<svg width="18" height="15" viewBox="0 0 18 15" fill="none" xmlns="http://www.w3.org/2000/svg">
<path fill-rule="evenodd" clip-rule="evenodd" d="M0.505859 5.97761V4.4183C0.505859 3.43571 1.30816 2.63342 2.29976 2.6244H5.81543V1.26321C5.81543 0.713319 6.26616 0.271606 6.80703 0.271606H10.7734C11.3233 0.271606 11.765 0.722334 11.765 1.26321V2.6244H15.2807C16.2723 2.6244 17.0746 3.43571 17.0746 4.4183V12.6215C17.0746 13.6131 16.2633 14.4154 15.2807 14.4154H2.29976C1.30816 14.4154 0.505859 13.6041 0.505859 12.6215V6.44637H6.51855V7.54641C6.51855 8.04221 6.92421 8.44786 7.42001 8.44786H10.1424C10.6382 8.44786 11.0439 8.04221 11.0439 7.54641V6.44637H17.0656V5.97761H0.505859ZM10.6382 6.44637H11.0439V6.43762H10.6382V6.44637ZM6.92421 6.44637H6.51855V6.43762H6.92421V6.44637ZM6.92421 6.44637V7.54641C6.92421 7.81684 7.14957 8.04221 7.42001 8.04221H10.1424C10.4128 8.04221 10.6382 7.81684 10.6382 7.54641V6.44637H6.92421ZM7.2748 1.22107C6.85038 1.22107 6.51758 1.56786 6.51758 1.97829V2.93383C6.51758 3.0583 6.61848 3.1592 6.74294 3.1592H10.8716C10.9961 3.1592 11.097 3.0583 11.097 2.93383V1.97829C11.097 1.55388 10.7502 1.22107 10.3398 1.22107H7.2748ZM10.2706 2.70847H7.35591V2.09574C7.35591 1.92925 7.49187 1.78924 7.66241 1.78924H9.9641C10.1306 1.78924 10.2706 1.9252 10.2706 2.09574V2.70847Z" fill="white"/>
</svg>
