<svg width="13" height="25" viewBox="0 0 13 25" fill="none" xmlns="http://www.w3.org/2000/svg">
<path fill-rule="evenodd" clip-rule="evenodd" d="M0.330566 11.3452L6.27795 7.39133L12.1767 11.3698L6.25202 0.396332L0.330566 11.3452ZM0.557527 12.4872L6.28452 8.62747L11.937 12.4585L6.28776 16.3224L0.557527 12.4872ZM0.330613 13.5923C2.41787 14.9922 4.59588 16.4575 6.278 17.5912L12.1768 13.5923C10.0409 17.5994 8.26154 20.9352 6.278 24.6272L5.06147 22.3719C3.42745 19.3429 1.74239 16.2192 0.330613 13.5923Z" fill="#3AB83A"/>
<path fill-rule="evenodd" clip-rule="evenodd" d="M6.25342 0.396332L6.27564 7.39133L12.1765 11.3698L6.25342 0.396332ZM6.28119 8.62747L11.971 12.4585L6.28397 16.3224L6.28119 8.62747ZM6.27562 17.5912L12.1765 13.5923C10.3462 17.5994 6.27562 24.6272 6.27562 24.6272V17.5912Z" fill="#0B8311"/>
</svg>
