<svg width="14" height="14" viewBox="0 0 14 14" fill="none" xmlns="http://www.w3.org/2000/svg">
<path fill-rule="evenodd" clip-rule="evenodd" d="M7.34822 0.192871C8.07772 0.192871 8.6691 0.784248 8.6691 1.51375V11.9879C8.6691 12.7174 8.07772 13.3088 7.34822 13.3088C6.61872 13.3088 6.02734 12.7174 6.02734 11.9879V1.51375C6.02734 0.784248 6.61872 0.192871 7.34822 0.192871Z" fill="white"/>
<path fill-rule="evenodd" clip-rule="evenodd" d="M13.9062 6.75081C13.9062 7.48031 13.3149 8.07169 12.5854 8.07169L2.11123 8.07169C1.38173 8.07169 0.790356 7.48031 0.790356 6.75081C0.790356 6.02131 1.38173 5.42993 2.11123 5.42993L12.5854 5.42993C13.3149 5.42993 13.9062 6.02131 13.9062 6.75081Z" fill="white"/>
</svg>
