<svg width="33" height="33" viewBox="0 0 33 33" fill="none" xmlns="http://www.w3.org/2000/svg">
<circle cx="16.5007" cy="16.6147" r="16.2" fill="#2F69FF"/>
<path d="M17.1008 0.414734H15.6008C7.00077 0.914734 0.300781 8.01475 0.300781 16.6147C0.300781 25.2147 7.00077 32.3148 15.6008 32.8148H17.2007C25.9007 32.4148 32.7007 25.3147 32.7007 16.6147C32.7007 7.81475 25.9008 0.714734 17.1008 0.414734ZM27.8008 6.81476C26.6008 7.71476 25.4008 8.41477 24.1008 9.01477C23.0008 6.31477 21.2008 3.81476 19.0008 1.81476C22.4008 2.41476 25.5008 4.21476 27.8008 6.81476ZM17.1008 1.91473C19.7008 3.91473 21.7008 6.51477 22.9008 9.51477C21.0008 10.2148 19.1008 10.5147 17.1008 10.6147V1.91473ZM17.1008 11.8148C19.2008 11.8148 21.4008 11.4147 23.4008 10.6147C24.0008 12.5147 24.3008 14.4147 24.3008 16.4147H17.1008V11.8148ZM17.1008 17.7147H24.3008C24.2008 19.6147 23.8008 21.5148 23.1008 23.3148C21.2008 22.7148 19.2008 22.3148 17.1008 22.3148V17.7147ZM13.7007 1.81476C11.5007 3.71476 9.80075 6.11472 8.70074 8.71472C7.50074 8.11472 6.30074 7.41477 5.20074 6.51477C7.50074 4.11477 10.5007 2.51476 13.7007 1.81476ZM4.50079 7.61475C5.70079 8.51475 7.00078 9.31477 8.30078 10.0148C7.60078 12.1148 7.20074 14.3148 7.20074 16.5148H1.50079C1.50079 13.2148 2.50079 10.2147 4.50079 7.61475ZM5.00079 26.1147C3.00079 23.7147 1.80077 20.8147 1.60077 17.7147H7.30078C7.40078 19.9147 7.90074 22.0148 8.70074 24.0148C7.30074 24.6148 6.10079 25.3147 5.00079 26.1147ZM5.80078 27.0148C6.80078 26.3148 7.90077 25.6147 9.10077 25.1147C10.2008 27.4147 11.8007 29.5147 13.7007 31.2147C10.7007 30.7147 8.00078 29.2148 5.80078 27.0148ZM15.8008 31.4147C13.4008 29.6147 11.5008 27.3147 10.3008 24.7147C12.1008 24.1147 13.9008 23.7147 15.8008 23.6147V31.4147ZM15.8008 22.3148C13.7008 22.4148 11.7007 22.8148 9.70074 23.5148C9.00074 21.7148 8.50076 19.7147 8.40076 17.7147H15.7007V22.3148H15.8008ZM15.8008 16.5148H8.40076C8.40076 14.4148 8.70076 12.4148 9.40076 10.5148C11.4008 11.3148 13.6008 11.8147 15.8008 11.9147V16.5148ZM15.8008 10.6147C13.8008 10.5147 11.8008 10.1148 9.90076 9.31476C11.2008 6.31476 13.2008 3.71476 15.8008 1.81476V10.6147ZM17.1008 31.2147V23.5148C19.0008 23.5148 20.8008 23.8147 22.6008 24.4147C21.3008 27.1147 19.4008 29.4147 17.1008 31.2147ZM19.0008 31.3148C21.0008 29.5148 22.6008 27.3147 23.8008 24.9147C25.1008 25.4147 26.3008 26.1148 27.4008 26.8148C25.1008 29.2148 22.1008 30.8148 19.0008 31.3148ZM28.1008 25.9147C26.9008 25.0147 25.6007 24.3148 24.2007 23.8148C24.9007 21.9148 25.4008 19.8148 25.5008 17.8148H31.4008C31.1008 20.7148 30.0008 23.5147 28.1008 25.9147ZM31.4008 16.4147H25.5008C25.5008 14.3147 25.1008 12.2147 24.5008 10.2147C25.9008 9.61472 27.3008 8.81476 28.6008 7.81476C30.4008 10.4148 31.4008 13.3147 31.4008 16.4147Z" fill="#0D0D0D"/>
</svg>
