<svg width="2030" height="588" viewBox="0 0 2030 588" fill="none" xmlns="http://www.w3.org/2000/svg">
<path fill-rule="evenodd" clip-rule="evenodd" d="M250.64 457.997C180.003 438.832 128.048 374.238 128.048 297.504C128.048 272.704 133.474 249.172 143.205 228.033H215.972C218.348 228.033 220.723 225.656 218.348 223.28C213.597 218.528 211.9 209.117 214.275 201.988C216.017 196.761 220.723 192.391 227.849 190.015C237.35 187.638 244.476 190.015 249.226 194.767C249.339 194.88 249.45 194.99 249.558 195.099C252.626 198.169 253.804 199.348 254.69 199.159C255.243 199.041 255.681 198.39 256.394 197.335C256.475 197.215 256.559 197.09 256.647 196.96C259.375 192.95 262.269 191.002 267.991 191.002H280.012H308.405C325.032 191.002 339.486 203.433 339.486 218.528V218.528C339.486 219.716 339.486 220.31 339.783 220.607C340.08 220.904 340.674 220.904 341.862 220.904H384.616C418.753 220.904 446.373 249.418 446.373 285.06V294.564C446.373 334.958 420.518 368.224 381.076 370.6H350.649H322.859C310.983 370.6 296.732 365.848 287.23 358.72C284.767 356.871 282.48 358.72 282.48 361.096V368.224C282.48 402.495 270.417 433.87 250.64 457.997ZM305.413 231.412C305.413 238.837 299.393 244.856 291.968 244.856C284.543 244.856 278.524 238.837 278.524 231.412C278.524 223.987 284.543 217.968 291.968 217.968C299.393 217.968 305.413 223.987 305.413 231.412Z" fill="white"/>
<path fill-rule="evenodd" clip-rule="evenodd" d="M294.255 481.479C397.737 481.479 481.642 397.551 481.642 294C481.642 190.449 397.737 106.52 294.255 106.52C190.773 106.52 106.868 190.449 106.868 294C106.868 397.551 190.773 481.479 294.255 481.479ZM294.255 502.527C409.371 502.527 502.69 409.166 502.69 294C502.69 178.833 409.371 85.4722 294.255 85.4722C179.139 85.4722 85.8198 178.833 85.8198 294C85.8198 409.166 179.139 502.527 294.255 502.527Z" fill="white"/>
<path fill-rule="evenodd" clip-rule="evenodd" d="M294.25 532.306C425.782 532.306 532.419 425.63 532.419 294.026C532.419 162.421 425.782 55.7453 294.25 55.7453C162.719 55.7453 56.0814 162.421 56.0814 294.026C56.0814 425.63 162.719 532.306 294.25 532.306ZM294.25 546.338C433.537 546.338 546.451 433.374 546.451 294.026C546.451 154.677 433.537 41.7133 294.25 41.7133C154.964 41.7133 42.0493 154.677 42.0493 294.026C42.0493 433.374 154.964 546.338 294.25 546.338Z" fill="white"/>
<path fill-rule="evenodd" clip-rule="evenodd" d="M294.25 14.4813C139.938 14.4813 14.8377 139.632 14.8377 294.02C14.8377 297.895 11.6965 301.036 7.82169 301.036C3.94685 301.036 0.805664 297.895 0.805664 294.02C0.805664 131.888 132.182 0.449219 294.25 0.449219C298.125 0.449219 301.266 3.5904 301.266 7.46525C301.266 11.3401 298.125 14.4813 294.25 14.4813ZM580.678 287.004C584.553 287.004 587.695 290.145 587.695 294.02C587.695 456.152 456.318 587.591 294.25 587.591C290.375 587.591 287.234 584.45 287.234 580.575C287.234 576.701 290.375 573.559 294.25 573.559C448.562 573.559 573.662 448.408 573.662 294.02C573.662 290.145 576.804 287.004 580.678 287.004ZM13.1742 349.888C16.956 349.044 20.706 351.425 21.55 355.207C38.0198 429.008 83.6708 491.82 145.775 530.871C149.055 532.934 150.042 537.265 147.98 540.545C145.917 543.826 141.586 544.813 138.306 542.75C73.1091 501.755 25.1595 435.805 7.8548 358.263C7.01083 354.482 9.39242 350.732 13.1742 349.888Z" fill="white"/>
<path fill-rule="evenodd" clip-rule="evenodd" d="M294.255 481.479C397.737 481.479 481.642 397.551 481.642 294C481.642 190.449 397.737 106.52 294.255 106.52C190.773 106.52 106.868 190.449 106.868 294C106.868 397.551 190.773 481.479 294.255 481.479ZM294.255 502.527C409.371 502.527 502.69 409.166 502.69 294C502.69 178.833 409.371 85.4722 294.255 85.4722C179.139 85.4722 85.8198 178.833 85.8198 294C85.8198 409.166 179.139 502.527 294.255 502.527Z" fill="white"/>
<path fill-rule="evenodd" clip-rule="evenodd" d="M294.25 532.306C425.782 532.306 532.419 425.63 532.419 294.026C532.419 162.421 425.782 55.7453 294.25 55.7453C162.719 55.7453 56.0814 162.421 56.0814 294.026C56.0814 425.63 162.719 532.306 294.25 532.306ZM294.25 546.338C433.537 546.338 546.451 433.374 546.451 294.026C546.451 154.677 433.537 41.7133 294.25 41.7133C154.964 41.7133 42.0493 154.677 42.0493 294.026C42.0493 433.374 154.964 546.338 294.25 546.338Z" fill="white"/>
<path fill-rule="evenodd" clip-rule="evenodd" d="M294.25 14.4813C139.938 14.4813 14.8377 139.632 14.8377 294.02C14.8377 297.895 11.6965 301.036 7.82169 301.036C3.94685 301.036 0.805664 297.895 0.805664 294.02C0.805664 131.888 132.182 0.449219 294.25 0.449219C298.125 0.449219 301.266 3.5904 301.266 7.46525C301.266 11.3401 298.125 14.4813 294.25 14.4813ZM580.678 287.004C584.553 287.004 587.695 290.145 587.695 294.02C587.695 456.152 456.318 587.591 294.25 587.591C290.375 587.591 287.234 584.45 287.234 580.575C287.234 576.701 290.375 573.559 294.25 573.559C448.562 573.559 573.662 448.408 573.662 294.02C573.662 290.145 576.804 287.004 580.678 287.004ZM13.1742 349.888C16.956 349.044 20.706 351.425 21.55 355.207C38.0198 429.008 83.6708 491.82 145.775 530.871C149.055 532.934 150.042 537.265 147.98 540.545C145.917 543.826 141.586 544.813 138.306 542.75C73.1091 501.755 25.1595 435.805 7.8548 358.263C7.01083 354.482 9.39242 350.732 13.1742 349.888Z" fill="white"/>
<path fill-rule="evenodd" clip-rule="evenodd" d="M294.25 14.4813C139.938 14.4813 14.8377 139.632 14.8377 294.02C14.8377 297.895 11.6965 301.036 7.82169 301.036C3.94685 301.036 0.805664 297.895 0.805664 294.02C0.805664 131.888 132.182 0.449219 294.25 0.449219C298.125 0.449219 301.266 3.5904 301.266 7.46525C301.266 11.3401 298.125 14.4813 294.25 14.4813ZM580.678 287.004C584.553 287.004 587.695 290.145 587.695 294.02C587.695 456.152 456.318 587.591 294.25 587.591C290.375 587.591 287.234 584.45 287.234 580.575C287.234 576.701 290.375 573.559 294.25 573.559C448.562 573.559 573.662 448.408 573.662 294.02C573.662 290.145 576.804 287.004 580.678 287.004ZM13.1742 349.888C16.956 349.044 20.706 351.425 21.55 355.207C38.0198 429.008 83.6708 491.82 145.775 530.871C149.055 532.934 150.042 537.265 147.98 540.545C145.917 543.826 141.586 544.813 138.306 542.75C73.1091 501.755 25.1595 435.805 7.8548 358.263C7.01083 354.482 9.39242 350.732 13.1742 349.888Z" fill="white"/>
<path d="M829.469 334.253C815.572 334.253 803.065 331.266 791.947 325.29C780.969 319.175 772.284 310.49 765.891 299.234C759.638 287.838 756.511 274.567 756.511 259.419C756.511 244.272 759.638 231.07 765.891 219.814C772.284 208.418 780.969 199.733 791.947 193.757C803.065 187.643 815.572 184.585 829.469 184.585C838.919 184.585 847.326 185.697 854.691 187.92C862.196 190.144 869.63 193.34 876.996 197.509C880.053 199.177 881.582 201.817 881.582 205.43C881.582 207.515 880.817 209.391 879.289 211.059C877.76 212.587 875.745 213.352 873.244 213.352C871.854 213.352 870.603 213.074 869.491 212.518C863.377 209.322 857.401 206.89 851.565 205.222C845.728 203.554 838.988 202.721 831.345 202.721C819.394 202.721 809.179 205.222 800.702 210.225C792.364 215.089 786.041 221.829 781.733 230.445C777.564 238.922 775.48 248.58 775.48 259.419C775.48 270.259 777.564 279.987 781.733 288.603C786.041 297.08 792.364 303.819 800.702 308.822C809.179 313.686 819.394 316.118 831.345 316.118C838.988 316.118 845.728 315.284 851.565 313.617C857.401 311.949 863.377 309.517 869.491 306.321C870.603 305.765 871.854 305.487 873.244 305.487C875.745 305.487 877.76 306.251 879.289 307.78C880.817 309.309 881.582 311.185 881.582 313.408C881.582 317.021 880.053 319.662 876.996 321.329C869.63 325.498 862.196 328.695 854.691 330.918C847.326 333.142 838.919 334.253 829.469 334.253Z" fill="white"/>
<path d="M956.064 333.211C953.424 333.211 951.2 332.308 949.393 330.501C947.587 328.695 946.684 326.471 946.684 323.831V196.259C946.684 193.618 947.587 191.395 949.393 189.588C951.2 187.643 953.424 186.67 956.064 186.67H1004.63C1023.53 186.67 1037.71 190.561 1047.16 198.343C1056.61 206.125 1061.33 216.339 1061.33 228.985C1061.33 237.323 1058.97 244.967 1054.24 251.915C1049.66 258.724 1042.92 263.658 1034.02 266.715C1044.03 269.356 1050.84 275.609 1054.45 285.476C1058.21 295.203 1060.08 304.792 1060.08 314.242V323.831C1060.08 326.471 1059.18 328.695 1057.37 330.501C1055.56 332.308 1053.34 333.211 1050.7 333.211C1047.78 333.211 1045.42 332.377 1043.61 330.71C1041.95 328.903 1041.11 326.61 1041.11 323.831V317.577C1041.11 310.629 1040.49 304.236 1039.24 298.4C1037.99 292.424 1035 287.143 1030.27 282.557C1025.55 277.833 1018.39 275.47 1008.8 275.47H965.653V323.831C965.653 326.471 964.68 328.695 962.734 330.501C960.928 332.308 958.704 333.211 956.064 333.211ZM1003.38 257.543C1015.33 257.543 1024.78 255.181 1031.73 250.456C1038.82 245.731 1042.36 239.061 1042.36 230.445C1042.36 222.107 1039.31 215.714 1033.19 211.267C1027.22 206.82 1016.93 204.597 1002.34 204.597H965.653V257.543H1003.38Z" fill="white"/>
<path d="M1178.05 333.211C1175.41 333.211 1173.11 332.308 1171.17 330.501C1169.36 328.695 1168.46 326.471 1168.46 323.831V270.676L1118.64 200.844C1117.53 199.038 1116.97 197.162 1116.97 195.216C1116.97 192.576 1117.8 190.352 1119.47 188.546C1121.28 186.6 1123.5 185.628 1126.14 185.628C1129.62 185.628 1132.4 187.226 1134.48 190.422L1178.05 253.791L1221.61 190.422C1223.7 187.226 1226.48 185.628 1229.95 185.628C1232.59 185.628 1234.82 186.6 1236.62 188.546C1238.43 190.352 1239.26 192.576 1239.12 195.216C1239.12 197.162 1238.57 199.038 1237.46 200.844L1187.43 270.676V323.831C1187.43 326.471 1186.52 328.695 1184.72 330.501C1182.91 332.308 1180.69 333.211 1178.05 333.211Z" fill="white"/>
<path d="M1310.55 333.211C1307.91 333.211 1305.69 332.308 1303.88 330.501C1302.08 328.695 1301.17 326.471 1301.17 323.831V196.259C1301.17 193.618 1302.08 191.395 1303.88 189.588C1305.69 187.643 1307.91 186.67 1310.55 186.67H1358.08C1371.28 186.67 1382.05 188.893 1390.39 193.34C1398.73 197.787 1404.7 203.485 1408.32 210.433C1411.93 217.382 1413.74 224.886 1413.74 232.946C1413.74 241.006 1411.93 248.51 1408.32 255.459C1404.7 262.407 1398.73 268.105 1390.39 272.552C1382.05 276.999 1371.28 279.222 1358.08 279.222H1320.14V323.831C1320.14 326.471 1319.17 328.695 1317.22 330.501C1315.42 332.308 1313.19 333.211 1310.55 333.211ZM1356.2 261.295C1370.38 261.295 1380.32 258.586 1386.01 253.166C1391.85 247.746 1394.77 241.006 1394.77 232.946C1394.77 224.886 1391.85 218.146 1386.01 212.726C1380.32 207.306 1370.38 204.597 1356.2 204.597H1320.14V261.295H1356.2Z" fill="white"/>
<path d="M1487.09 333.211C1484.45 333.211 1482.22 332.308 1480.42 330.501C1478.61 328.695 1477.71 326.471 1477.71 323.831V196.259C1477.71 193.618 1478.61 191.395 1480.42 189.588C1482.22 187.643 1484.45 186.67 1487.09 186.67H1534.61C1547.81 186.67 1558.58 188.893 1566.92 193.34C1575.26 197.787 1581.24 203.485 1584.85 210.433C1588.46 217.382 1590.27 224.886 1590.27 232.946C1590.27 241.006 1588.46 248.51 1584.85 255.459C1581.24 262.407 1575.26 268.105 1566.92 272.552C1558.58 276.999 1547.81 279.222 1534.61 279.222H1496.67V323.831C1496.67 326.471 1495.7 328.695 1493.76 330.501C1491.95 332.308 1489.73 333.211 1487.09 333.211ZM1532.74 261.295C1546.91 261.295 1556.85 258.586 1562.55 253.166C1568.38 247.746 1571.3 241.006 1571.3 232.946C1571.3 224.886 1568.38 218.146 1562.55 212.726C1556.85 207.306 1546.91 204.597 1532.74 204.597H1496.67V261.295H1532.74Z" fill="white"/>
<path d="M1718.65 334.253C1704.06 334.253 1691.27 331.057 1680.29 324.665C1669.32 318.272 1660.84 309.448 1654.86 298.191C1648.89 286.935 1645.76 274.011 1645.48 259.419C1645.76 244.828 1648.89 231.904 1654.86 220.647C1660.84 209.391 1669.32 200.567 1680.29 194.174C1691.27 187.782 1704.06 184.585 1718.65 184.585C1733.24 184.585 1745.96 187.782 1756.8 194.174C1767.77 200.567 1776.25 209.46 1782.23 220.856C1788.34 232.112 1791.54 244.967 1791.82 259.419C1791.54 273.872 1788.34 286.796 1782.23 298.191C1776.25 309.448 1767.77 318.272 1756.8 324.665C1745.96 331.057 1733.24 334.253 1718.65 334.253ZM1718.65 316.535C1729.77 316.535 1739.42 314.034 1747.62 309.031C1755.82 304.028 1762.08 297.219 1766.38 288.603C1770.69 279.987 1772.85 270.259 1772.85 259.419C1772.85 248.58 1770.69 238.852 1766.38 230.236C1762.08 221.62 1755.82 214.811 1747.62 209.808C1739.42 204.805 1729.77 202.304 1718.65 202.304C1707.39 202.304 1697.67 204.805 1689.47 209.808C1681.41 214.811 1675.22 221.62 1670.91 230.236C1666.61 238.852 1664.45 248.58 1664.45 259.419C1664.45 270.259 1666.61 279.987 1670.91 288.603C1675.22 297.219 1681.41 304.028 1689.47 309.031C1697.67 314.034 1707.39 316.535 1718.65 316.535Z" fill="white"/>
<path fill-rule="evenodd" clip-rule="evenodd" d="M786.386 335.447L786.31 335.404C773.42 328.225 763.225 317.992 755.818 304.95L755.777 304.876L755.736 304.802C748.401 291.436 744.927 276.188 744.927 259.417C744.927 242.649 748.4 227.444 755.765 214.187L755.788 214.145C763.192 200.946 773.414 190.661 786.386 183.595C799.367 176.461 813.817 173.002 829.466 173.002C839.79 173.002 849.349 174.213 858.007 176.823C866.384 179.307 874.594 182.847 882.631 187.391C885.717 189.093 888.502 191.562 890.455 194.935C892.414 198.319 893.16 201.961 893.16 205.428C893.16 210.668 891.127 215.276 887.823 218.881L887.653 219.067L887.475 219.245C883.431 223.288 878.291 224.929 873.241 224.929C870.268 224.929 867.211 224.324 864.31 222.873L864.216 222.826L864.124 222.778C858.613 219.897 853.367 217.779 848.38 216.354C843.805 215.047 838.174 214.298 831.342 214.298C821.018 214.298 812.933 216.449 806.586 220.195L806.535 220.225C800.148 223.951 795.404 229.005 792.106 235.587C788.837 242.247 787.058 250.103 787.058 259.417C787.058 268.695 788.824 276.63 792.106 283.453C795.386 289.864 800.127 294.948 806.56 298.83C812.917 302.452 821.018 304.535 831.342 304.535C838.174 304.535 843.805 303.786 848.38 302.479C853.367 301.054 858.613 298.936 864.124 296.055L864.216 296.007L864.31 295.96C867.211 294.509 870.268 293.904 873.241 293.904C878.291 293.904 883.431 295.545 887.475 299.589L879.286 307.777C877.757 306.249 875.742 305.484 873.241 305.484C871.851 305.484 870.6 305.762 869.489 306.318C863.374 309.514 857.399 311.946 851.562 313.614C845.725 315.282 838.985 316.115 831.342 316.115C819.391 316.115 809.177 313.683 800.7 308.82C792.362 303.817 786.039 297.077 781.731 288.6C777.562 279.984 775.477 270.256 775.477 259.417C775.477 248.577 777.562 238.919 781.731 230.442C786.039 221.826 792.362 215.086 800.7 210.222C809.177 205.219 819.391 202.718 831.342 202.718C838.985 202.718 845.725 203.552 851.562 205.219C857.399 206.887 863.374 209.319 869.489 212.515C870.6 213.071 871.851 213.349 873.241 213.349C875.742 213.349 877.757 212.584 879.286 211.056C880.815 209.388 881.579 207.512 881.579 205.428C881.579 201.814 880.05 199.174 876.993 197.506C869.628 193.337 862.193 190.141 854.689 187.918C847.323 185.694 838.916 184.582 829.466 184.582C815.569 184.582 803.062 187.64 791.945 193.754C780.966 199.73 772.281 208.415 765.888 219.811C759.635 231.067 756.508 244.269 756.508 259.417C756.508 274.564 759.635 287.835 765.888 299.231C772.281 310.487 780.966 319.173 791.945 325.287C803.062 331.263 815.569 334.251 829.466 334.251C838.916 334.251 847.323 333.139 854.689 330.915C862.193 328.692 869.628 325.496 876.993 321.327C880.05 319.659 881.579 317.019 881.579 313.405C881.579 311.182 880.815 309.306 879.286 307.777L887.475 299.589C891.243 303.357 893.16 308.209 893.16 313.405C893.16 316.872 892.414 320.514 890.455 323.898C888.502 327.271 885.717 329.741 882.63 331.443C874.593 335.986 866.384 339.526 858.006 342.011C849.349 344.62 839.79 345.831 829.466 345.831C813.853 345.831 799.431 342.458 786.462 335.488L786.386 335.447ZM1033.19 211.264C1027.21 206.817 1016.93 204.594 1002.34 204.594H965.65V257.54H1003.38C1015.33 257.54 1024.78 255.178 1031.73 250.453C1038.82 245.728 1042.36 239.058 1042.36 230.442C1042.36 222.104 1039.3 215.711 1033.19 211.264ZM1043.61 330.707C1041.94 328.9 1041.11 326.607 1041.11 323.828V317.574C1041.11 310.626 1040.48 304.234 1039.23 298.397C1037.98 292.421 1034.99 287.141 1030.27 282.555C1025.55 277.83 1018.39 275.467 1008.8 275.467H965.65V323.828C965.65 326.468 964.677 328.692 962.732 330.499C960.925 332.305 958.702 333.208 956.061 333.208C953.421 333.208 951.197 332.305 949.391 330.499C947.584 328.692 946.681 326.468 946.681 323.828V196.256C946.681 193.615 947.584 191.392 949.391 189.585C951.197 187.64 953.421 186.667 956.061 186.667H1004.63C1023.53 186.667 1037.7 190.558 1047.15 198.34C1056.6 206.122 1061.33 216.337 1061.33 228.983C1061.33 237.321 1058.97 244.964 1054.24 251.912C1052.29 254.816 1049.94 257.379 1047.2 259.601C1043.52 262.588 1039.12 264.959 1034.02 266.712C1039.17 268.071 1043.47 270.385 1046.93 273.655C1050.19 276.743 1052.7 280.682 1054.45 285.473C1058.2 295.201 1060.08 304.789 1060.08 314.239V323.828C1060.08 326.468 1059.18 328.692 1057.37 330.499C1055.56 332.305 1053.34 333.208 1050.7 333.208C1047.78 333.208 1045.42 332.375 1043.61 330.707ZM1056.5 266.871C1060.26 270.878 1063.21 275.744 1065.29 281.393C1069.48 292.285 1071.66 303.254 1071.66 314.239V323.828C1071.66 329.425 1069.62 334.629 1065.56 338.687C1061.5 342.746 1056.3 344.789 1050.7 344.789C1045.45 344.789 1040.09 343.218 1035.76 339.216L1035.42 338.902L1035.1 338.562C1031.2 334.333 1029.53 329.11 1029.53 323.828V317.574C1029.53 311.312 1028.96 305.745 1027.91 300.823L1027.9 300.769C1027.16 297.234 1025.41 293.974 1022.2 290.865L1022.14 290.805L1022.08 290.743C1020.32 288.985 1016.66 287.048 1008.8 287.048H977.231V323.828C977.231 329.637 974.959 334.871 970.768 338.838C966.732 342.796 961.588 344.789 956.061 344.789C950.464 344.789 945.26 342.746 941.202 338.687C937.144 334.629 935.1 329.425 935.1 323.828V196.256C935.1 190.729 937.093 185.586 941.05 181.55C945.017 177.359 950.252 175.086 956.061 175.086H1004.63C1024.83 175.086 1042.13 179.199 1054.52 189.401C1066.74 199.465 1072.91 213.008 1072.91 228.983C1072.91 239.654 1069.84 249.555 1063.83 258.403C1061.7 261.559 1059.25 264.378 1056.5 266.871ZM977.231 245.96H1003.38C1013.95 245.96 1020.84 243.851 1025.22 240.877L1025.31 240.817C1029.13 238.27 1030.78 235.24 1030.78 230.442C1030.78 225.367 1029.15 222.65 1026.38 220.63L1026.27 220.555C1023.46 218.464 1016.45 216.174 1002.34 216.174H977.231V245.96ZM1163.13 338.839L1162.98 338.687C1158.92 334.629 1156.87 329.425 1156.87 323.828V274.38L1108.98 207.247L1108.77 206.911C1106.64 203.45 1105.39 199.494 1105.39 195.213C1105.39 189.897 1107.16 184.801 1110.96 180.688L1110.98 180.663C1114.97 176.373 1120.26 174.044 1126.14 174.044C1133.9 174.044 1140.11 177.942 1144.09 183.958L1178.04 233.347L1212 183.957C1215.98 177.942 1222.18 174.044 1229.95 174.044C1235.76 174.044 1240.99 176.317 1244.96 180.508C1249 184.631 1250.92 189.914 1250.7 195.52C1250.64 199.683 1249.39 203.533 1247.32 206.911L1247.1 207.256L1199.01 274.393V323.828C1199.01 329.425 1196.96 334.629 1192.9 338.687C1188.85 342.746 1183.64 344.789 1178.04 344.789C1172.46 344.789 1167.36 342.768 1163.29 338.985L1163.13 338.839ZM1187.42 270.673L1237.45 200.842C1238.56 199.035 1239.12 197.159 1239.12 195.213C1239.26 192.573 1238.43 190.35 1236.62 188.543C1234.81 186.597 1232.59 185.625 1229.95 185.625C1226.47 185.625 1223.69 187.223 1221.61 190.419L1178.04 253.788L1134.48 190.419C1132.39 187.223 1129.61 185.625 1126.14 185.625C1123.5 185.625 1121.28 186.597 1119.47 188.543C1117.8 190.35 1116.97 192.573 1116.97 195.213C1116.97 197.159 1117.52 199.035 1118.64 200.842L1168.46 270.673V323.828C1168.46 326.468 1169.36 328.692 1171.17 330.499C1173.11 332.305 1175.4 333.208 1178.04 333.208C1180.68 333.208 1182.91 332.305 1184.71 330.499C1186.52 328.692 1187.42 326.468 1187.42 323.828V270.673ZM1386.01 212.723C1380.31 207.304 1370.38 204.594 1356.2 204.594H1320.14V261.293H1356.2C1370.38 261.293 1380.31 258.583 1386.01 253.163C1391.85 247.743 1394.77 241.003 1394.77 232.943C1394.77 224.883 1391.85 218.143 1386.01 212.723ZM1331.72 249.712H1356.2C1369.57 249.712 1375.66 247.027 1378.03 244.772L1378.13 244.676C1381.57 241.477 1383.18 237.827 1383.18 232.943C1383.18 228.06 1381.58 224.409 1378.13 221.21L1378.03 221.115C1375.66 218.86 1369.57 216.174 1356.2 216.174H1331.72V249.712ZM1310.55 344.789C1304.95 344.789 1299.75 342.746 1295.69 338.687C1291.63 334.629 1289.59 329.425 1289.59 323.828V196.256C1289.59 190.729 1291.58 185.584 1295.54 181.549C1299.51 177.358 1304.74 175.086 1310.55 175.086H1358.08C1372.47 175.086 1385.29 177.493 1395.84 183.119C1405.81 188.436 1413.69 195.667 1418.59 205.088C1423.09 213.735 1425.32 223.079 1425.32 232.943C1425.32 242.807 1423.09 252.151 1418.59 260.799C1413.69 270.219 1405.81 277.451 1395.84 282.767C1385.29 288.393 1372.47 290.8 1358.08 290.8H1331.72V323.828C1331.72 329.637 1329.45 334.871 1325.26 338.838C1321.22 342.796 1316.08 344.789 1310.55 344.789ZM1317.22 330.499C1319.17 328.692 1320.14 326.468 1320.14 323.828V279.219H1358.08C1371.28 279.219 1382.05 276.996 1390.39 272.549C1398.73 268.102 1404.7 262.404 1408.31 255.456C1411.93 248.508 1413.73 241.003 1413.73 232.943C1413.73 224.883 1411.93 217.379 1408.31 210.43C1404.7 203.482 1398.73 197.784 1390.39 193.337C1382.05 188.89 1371.28 186.667 1358.08 186.667H1310.55C1307.91 186.667 1305.69 187.64 1303.88 189.585C1302.07 191.392 1301.17 193.615 1301.17 196.256V323.828C1301.17 326.468 1302.07 328.692 1303.88 330.499C1305.69 332.305 1307.91 333.208 1310.55 333.208C1313.19 333.208 1315.41 332.305 1317.22 330.499ZM1562.54 212.723C1556.84 207.304 1546.91 204.594 1532.73 204.594H1496.67V261.293H1532.73C1546.91 261.293 1556.84 258.583 1562.54 253.163C1568.38 247.743 1571.3 241.003 1571.3 232.943C1571.3 224.883 1568.38 218.143 1562.54 212.723ZM1508.25 249.712H1532.73C1546.1 249.712 1552.19 247.027 1554.56 244.772L1554.66 244.676C1558.11 241.477 1559.72 237.827 1559.72 232.943C1559.72 228.06 1558.11 224.409 1554.66 221.21L1554.56 221.115C1552.19 218.86 1546.1 216.174 1532.73 216.174H1508.25V249.712ZM1487.08 344.789C1481.49 344.789 1476.28 342.746 1472.22 338.687C1468.17 334.629 1466.12 329.425 1466.12 323.828V196.256C1466.12 190.729 1468.12 185.584 1472.07 181.549C1476.04 177.358 1481.27 175.086 1487.08 175.086H1534.61C1549 175.086 1561.82 177.493 1572.37 183.119C1582.34 188.436 1590.22 195.667 1595.12 205.088C1599.62 213.735 1601.85 223.079 1601.85 232.943C1601.85 242.807 1599.62 252.151 1595.12 260.799C1590.22 270.219 1582.34 277.451 1572.37 282.767C1561.82 288.393 1549 290.8 1534.61 290.8H1508.25V323.828C1508.25 329.638 1505.98 334.873 1501.79 338.84C1497.75 342.797 1492.61 344.789 1487.08 344.789ZM1496.67 323.828C1496.67 326.468 1495.7 328.692 1493.75 330.499C1491.95 332.305 1489.72 333.208 1487.08 333.208C1484.44 333.208 1482.22 332.305 1480.41 330.499C1478.61 328.692 1477.7 326.468 1477.7 323.828V196.256C1477.7 193.615 1478.61 191.392 1480.41 189.585C1482.22 187.64 1484.44 186.667 1487.08 186.667H1534.61C1547.81 186.667 1558.58 188.89 1566.92 193.337C1575.26 197.784 1581.23 203.482 1584.85 210.43C1588.46 217.379 1590.27 224.883 1590.27 232.943C1590.27 241.003 1588.46 248.508 1584.85 255.456C1581.23 262.404 1575.26 268.102 1566.92 272.549C1558.58 276.996 1547.81 279.219 1534.61 279.219H1496.67V323.828ZM1633.9 259.417L1633.9 259.196C1634.21 243.051 1637.69 228.296 1644.63 215.215C1651.62 202.058 1661.61 191.646 1674.46 184.164C1687.46 176.596 1702.32 173.002 1718.65 173.002C1734.96 173.002 1749.76 176.589 1762.65 184.178C1775.5 191.666 1785.47 202.146 1792.44 215.4C1799.52 228.467 1803.08 243.157 1803.39 259.194L1803.4 259.417L1803.39 259.639C1803.08 275.698 1799.51 290.45 1792.44 303.639C1785.46 316.777 1775.48 327.178 1762.65 334.655C1749.76 342.244 1734.96 345.831 1718.65 345.831C1702.32 345.831 1687.46 342.237 1674.46 334.67C1661.61 327.187 1651.62 316.775 1644.63 303.619C1637.69 290.537 1634.21 275.782 1633.9 259.637L1633.9 259.417ZM1756.79 324.662C1767.77 318.269 1776.25 309.445 1782.22 298.189C1788.34 286.793 1791.54 273.869 1791.81 259.417C1791.54 244.964 1788.34 232.109 1782.22 220.853C1776.25 209.458 1767.77 200.564 1756.79 194.171C1745.95 187.779 1733.24 184.582 1718.65 184.582C1704.06 184.582 1691.27 187.779 1680.29 194.171C1669.31 200.564 1660.84 209.388 1654.86 220.645C1648.88 231.901 1645.76 244.825 1645.48 259.417C1645.76 274.008 1648.88 286.932 1654.86 298.189C1660.84 309.445 1669.31 318.269 1680.29 324.662C1691.27 331.054 1704.06 334.251 1718.65 334.251C1733.24 334.251 1745.95 331.054 1756.79 324.662ZM1718.65 304.952C1727.98 304.952 1735.48 302.872 1741.59 299.142C1747.93 295.275 1752.68 290.099 1756.02 283.421C1759.43 276.604 1761.26 268.685 1761.26 259.417C1761.26 250.148 1759.43 242.229 1756.02 235.412C1752.68 228.734 1747.93 223.558 1741.59 219.691C1735.48 215.962 1727.98 213.881 1718.65 213.881C1709.17 213.881 1701.61 215.967 1695.53 219.67C1689.34 223.522 1684.63 228.697 1681.27 235.412C1677.86 242.229 1676.03 250.148 1676.03 259.417C1676.03 268.685 1677.86 276.604 1681.27 283.421C1684.63 290.136 1689.34 295.311 1695.53 299.163C1701.61 302.866 1709.17 304.952 1718.65 304.952ZM1747.62 309.028C1739.42 314.031 1729.76 316.532 1718.65 316.532C1707.39 316.532 1697.66 314.031 1689.46 309.028C1681.4 304.025 1675.22 297.216 1670.91 288.6C1666.6 279.984 1664.45 270.256 1664.45 259.417C1664.45 248.577 1666.6 238.849 1670.91 230.233C1675.22 221.617 1681.4 214.808 1689.46 209.805C1697.66 204.802 1707.39 202.301 1718.65 202.301C1729.76 202.301 1739.42 204.802 1747.62 209.805C1755.82 214.808 1762.07 221.617 1766.38 230.233C1770.69 238.849 1772.84 248.577 1772.84 259.417C1772.84 270.256 1770.69 279.984 1766.38 288.6C1762.07 297.216 1755.82 304.025 1747.62 309.028Z" fill="white"/>
<path d="M757.459 498.292V418.135H785.113C789.083 418.135 792.69 418.955 795.935 420.597C799.217 422.2 801.813 424.547 803.721 427.639C805.63 430.731 806.584 434.433 806.584 438.746C806.584 441.075 806.183 443.327 805.382 445.503C804.618 447.64 803.55 449.491 802.175 451.056C800.84 452.583 799.313 453.614 797.595 454.148C800 454.759 802.042 455.847 803.721 457.412C805.401 458.938 806.756 460.732 807.786 462.794C808.855 464.855 809.619 467.011 810.077 469.263C810.535 471.515 810.764 473.691 810.764 475.791C810.764 480.218 809.752 484.131 807.729 487.528C805.744 490.887 803.072 493.521 799.714 495.429C796.355 497.338 792.652 498.292 788.606 498.292H757.459ZM767.078 489.818H787.747C790.381 489.818 792.767 489.15 794.904 487.814C797.08 486.44 798.817 484.57 800.114 482.203C801.412 479.837 802.061 477.165 802.061 474.187C802.061 471.554 801.412 469.073 800.114 466.744C798.817 464.378 797.08 462.469 794.904 461.019C792.767 459.568 790.381 458.843 787.747 458.843H767.078V489.818ZM767.078 450.541H784.197C787.709 450.541 790.705 449.51 793.186 447.449C795.706 445.35 796.965 442.43 796.965 438.689C796.965 434.643 795.706 431.628 793.186 429.643C790.705 427.62 787.709 426.608 784.197 426.608H767.078V450.541Z" fill="white"/>
<path d="M899.051 499.78C892.639 499.78 887.066 498.215 882.333 495.085C877.638 491.956 874.012 487.757 871.454 482.489C868.935 477.184 867.675 471.306 867.675 464.855V418.135H877.294V464.855C877.294 469.435 878.134 473.653 879.813 477.508C881.531 481.363 883.993 484.436 887.199 486.726C890.444 489.016 894.394 490.162 899.051 490.162C903.784 490.162 907.754 489.016 910.96 486.726C914.166 484.398 916.59 481.325 918.232 477.508C919.911 473.653 920.751 469.435 920.751 464.855V418.135H930.37V464.855C930.37 469.702 929.644 474.245 928.194 478.482C926.744 482.68 924.644 486.383 921.896 489.589C919.186 492.795 915.903 495.295 912.048 497.089C908.193 498.883 903.861 499.78 899.051 499.78Z" fill="white"/>
<path d="M1018.2 499.78C1013.88 499.78 1009.72 499.112 1005.71 497.776C1001.71 496.402 998.194 494.456 995.179 491.936C992.202 489.417 990.083 486.421 988.824 482.947L997.813 479.569C998.576 481.707 999.988 483.577 1002.05 485.18C1004.15 486.745 1006.61 487.967 1009.44 488.845C1012.26 489.723 1015.18 490.162 1018.2 490.162C1021.63 490.162 1024.82 489.608 1027.76 488.501C1030.73 487.356 1033.14 485.772 1034.97 483.749C1036.8 481.726 1037.72 479.359 1037.72 476.649C1037.72 473.863 1036.77 471.592 1034.86 469.836C1032.95 468.042 1030.51 466.63 1027.53 465.599C1024.55 464.53 1021.44 463.71 1018.2 463.137C1012.66 462.221 1007.7 460.923 1003.31 459.244C998.958 457.526 995.503 455.141 992.946 452.087C990.427 449.033 989.167 445.006 989.167 440.006C989.167 435.349 990.503 431.284 993.175 427.811C995.885 424.337 999.454 421.646 1003.88 419.738C1008.31 417.829 1013.08 416.875 1018.2 416.875C1022.43 416.875 1026.54 417.543 1030.51 418.879C1034.51 420.177 1038.04 422.085 1041.1 424.604C1044.15 427.124 1046.35 430.196 1047.68 433.823L1038.58 437.143C1037.81 434.968 1036.38 433.097 1034.28 431.532C1032.22 429.929 1029.78 428.708 1026.96 427.868C1024.17 426.99 1021.25 426.551 1018.2 426.551C1014.8 426.513 1011.63 427.066 1008.69 428.212C1005.75 429.357 1003.37 430.941 1001.53 432.964C999.702 434.987 998.786 437.334 998.786 440.006C998.786 443.212 999.626 445.674 1001.31 447.392C1003.02 449.071 1005.35 450.331 1008.29 451.171C1011.23 452.011 1014.53 452.755 1018.2 453.404C1023.39 454.282 1028.2 455.675 1032.62 457.583C1037.05 459.454 1040.6 461.954 1043.27 465.084C1045.98 468.214 1047.34 472.069 1047.34 476.649C1047.34 481.306 1045.98 485.371 1043.27 488.845C1040.6 492.318 1037.05 495.009 1032.62 496.918C1028.2 498.826 1023.39 499.78 1018.2 499.78Z" fill="white"/>
<path d="M1108.5 498.292V418.135H1118.12V498.292H1108.5Z" fill="white"/>
<path d="M1181.52 498.292V418.135H1191.94L1231.96 480.886V418.135H1241.58V498.292H1231.21L1191.08 435.54V498.292H1181.52Z" fill="white"/>
<path d="M1303.17 498.292V418.135H1352.35V427.753H1312.79V450.541H1345.2V460.16H1312.79V488.673H1352.35V498.292H1303.17Z" fill="white"/>
<path d="M1438.93 499.78C1434.62 499.78 1430.46 499.112 1426.45 497.776C1422.44 496.402 1418.93 494.456 1415.91 491.936C1412.94 489.417 1410.82 486.421 1409.56 482.947L1418.55 479.569C1419.31 481.707 1420.72 483.577 1422.79 485.18C1424.88 486.745 1427.35 487.967 1430.17 488.845C1433 489.723 1435.92 490.162 1438.93 490.162C1442.37 490.162 1445.55 489.608 1448.49 488.501C1451.47 487.356 1453.87 485.772 1455.71 483.749C1457.54 481.726 1458.46 479.359 1458.46 476.649C1458.46 473.863 1457.5 471.592 1455.59 469.836C1453.68 468.042 1451.24 466.63 1448.26 465.599C1445.29 464.53 1442.18 463.71 1438.93 463.137C1433.4 462.221 1428.43 460.923 1424.04 459.244C1419.69 457.526 1416.24 455.141 1413.68 452.087C1411.16 449.033 1409.9 445.006 1409.9 440.006C1409.9 435.349 1411.24 431.284 1413.91 427.811C1416.62 424.337 1420.19 421.646 1424.62 419.738C1429.05 417.829 1433.82 416.875 1438.93 416.875C1443.17 416.875 1447.27 417.543 1451.24 418.879C1455.25 420.177 1458.78 422.085 1461.83 424.604C1464.89 427.124 1467.08 430.196 1468.42 433.823L1459.31 437.143C1458.55 434.968 1457.12 433.097 1455.02 431.532C1452.96 429.929 1450.52 428.708 1447.69 427.868C1444.9 426.99 1441.98 426.551 1438.93 426.551C1435.53 426.513 1432.37 427.066 1429.43 428.212C1426.49 429.357 1424.1 430.941 1422.27 432.964C1420.44 434.987 1419.52 437.334 1419.52 440.006C1419.52 443.212 1420.36 445.674 1422.04 447.392C1423.76 449.071 1426.09 450.331 1429.03 451.171C1431.97 452.011 1435.27 452.755 1438.93 453.404C1444.12 454.282 1448.93 455.675 1453.36 457.583C1457.79 459.454 1461.34 461.954 1464.01 465.084C1466.72 468.214 1468.07 472.069 1468.07 476.649C1468.07 481.306 1466.72 485.371 1464.01 488.845C1461.34 492.318 1457.79 495.009 1453.36 496.918C1448.93 498.826 1444.12 499.78 1438.93 499.78Z" fill="white"/>
<path d="M1555.07 499.78C1550.76 499.78 1546.6 499.112 1542.59 497.776C1538.58 496.402 1535.07 494.456 1532.06 491.936C1529.08 489.417 1526.96 486.421 1525.7 482.947L1534.69 479.569C1535.45 481.707 1536.87 483.577 1538.93 485.18C1541.03 486.745 1543.49 487.967 1546.31 488.845C1549.14 489.723 1552.06 490.162 1555.07 490.162C1558.51 490.162 1561.7 489.608 1564.64 488.501C1567.61 487.356 1570.02 485.772 1571.85 483.749C1573.68 481.726 1574.6 479.359 1574.6 476.649C1574.6 473.863 1573.64 471.592 1571.74 469.836C1569.83 468.042 1567.38 466.63 1564.41 465.599C1561.43 464.53 1558.32 463.71 1555.07 463.137C1549.54 462.221 1544.58 460.923 1540.19 459.244C1535.84 457.526 1532.38 455.141 1529.82 452.087C1527.31 449.033 1526.05 445.006 1526.05 440.006C1526.05 435.349 1527.38 431.284 1530.05 427.811C1532.76 424.337 1536.33 421.646 1540.76 419.738C1545.19 417.829 1549.96 416.875 1555.07 416.875C1559.31 416.875 1563.41 417.543 1567.38 418.879C1571.39 420.177 1574.92 422.085 1577.98 424.604C1581.03 427.124 1583.22 430.196 1584.56 433.823L1575.46 437.143C1574.69 434.968 1573.26 433.097 1571.16 431.532C1569.1 429.929 1566.66 428.708 1563.83 427.868C1561.05 426.99 1558.13 426.551 1555.07 426.551C1551.68 426.513 1548.51 427.066 1545.57 428.212C1542.63 429.357 1540.24 430.941 1538.41 432.964C1536.58 434.987 1535.66 437.334 1535.66 440.006C1535.66 443.212 1536.5 445.674 1538.18 447.392C1539.9 449.071 1542.23 450.331 1545.17 451.171C1548.11 452.011 1551.41 452.755 1555.07 453.404C1560.27 454.282 1565.07 455.675 1569.5 457.583C1573.93 459.454 1577.48 461.954 1580.15 465.084C1582.86 468.214 1584.22 472.069 1584.22 476.649C1584.22 481.306 1582.86 485.371 1580.15 488.845C1577.48 492.318 1573.93 495.009 1569.5 496.918C1565.07 498.826 1560.27 499.78 1555.07 499.78Z" fill="white"/>
</svg>
