<svg width="182" height="53" viewBox="0 0 182 53" fill="none" xmlns="http://www.w3.org/2000/svg">
<path fill-rule="evenodd" clip-rule="evenodd" d="M22.4146 41.0503C16.0772 39.3308 11.4159 33.5355 11.4159 26.6511C11.4159 24.4261 11.9028 22.3149 12.7757 20.4183H19.3044C19.5175 20.4183 19.7306 20.2051 19.5175 19.9919C19.0912 19.5656 18.939 18.7212 19.1521 18.0817C19.3084 17.6127 19.7306 17.2206 20.3699 17.0074C21.2223 16.7942 21.8616 17.0074 22.2878 17.4338C22.2979 17.4439 22.3079 17.4538 22.3176 17.4635C22.5928 17.739 22.6985 17.8448 22.778 17.8278C22.8276 17.8172 22.867 17.7589 22.9309 17.6642C22.9381 17.6534 22.9457 17.6422 22.9536 17.6306C23.1984 17.2708 23.458 17.096 23.9714 17.096H25.0499H27.5972C29.089 17.096 30.3858 18.2112 30.3858 19.5656V19.5656C30.3858 19.6722 30.3858 19.7255 30.4124 19.7521C30.4391 19.7788 30.4923 19.7788 30.5989 19.7788H34.4348C37.4974 19.7788 39.9755 22.3369 39.9755 25.5347V26.3874C39.9755 30.0115 37.6558 32.996 34.1171 33.2092H31.3873H28.8941C27.8285 33.2092 26.5499 32.7828 25.6975 32.1433C25.4764 31.9775 25.2713 32.1433 25.2713 32.3565V32.996C25.2713 36.0708 24.189 38.8856 22.4146 41.0503ZM27.3287 20.7215C27.3287 21.3877 26.7887 21.9277 26.1225 21.9277C25.4564 21.9277 24.9163 21.3877 24.9163 20.7215C24.9163 20.0554 25.4564 19.5153 26.1225 19.5153C26.7887 19.5153 27.3287 20.0554 27.3287 20.7215Z" fill="#0D0D0D"/>
<path fill-rule="evenodd" clip-rule="evenodd" d="M26.3277 43.157C35.612 43.157 43.1398 35.627 43.1398 26.3367C43.1398 17.0463 35.612 9.51637 26.3277 9.51637C17.0435 9.51637 9.51571 17.0463 9.51571 26.3367C9.51571 35.627 17.0435 43.157 26.3277 43.157ZM26.3277 45.0454C36.6557 45.0454 45.0281 36.6692 45.0281 26.3367C45.0281 16.0041 36.6557 7.62798 26.3277 7.62798C15.9998 7.62798 7.62732 16.0041 7.62732 26.3367C7.62732 36.6692 15.9998 45.0454 26.3277 45.0454Z" fill="#0D0D0D"/>
<path fill-rule="evenodd" clip-rule="evenodd" d="M26.3273 47.7171C38.128 47.7171 47.6954 38.1463 47.6954 26.339C47.6954 14.5317 38.128 4.96097 26.3273 4.96097C14.5266 4.96097 4.95925 14.5317 4.95925 26.339C4.95925 38.1463 14.5266 47.7171 26.3273 47.7171ZM26.3273 48.976C38.8239 48.976 48.9543 38.8411 48.9543 26.339C48.9543 13.837 38.8239 3.70204 26.3273 3.70204C13.8308 3.70204 3.70032 13.837 3.70032 26.339C3.70032 38.8411 13.8308 48.976 26.3273 48.976Z" fill="#0D0D0D"/>
<path fill-rule="evenodd" clip-rule="evenodd" d="M26.3273 1.25893C12.4827 1.25893 1.25893 12.4872 1.25893 26.3386C1.25893 26.6863 0.977109 26.9681 0.629465 26.9681C0.281821 26.9681 0 26.6863 0 26.3386C0 11.7925 11.7869 0 26.3273 0C26.6749 0 26.9567 0.281821 26.9567 0.629465C26.9567 0.977108 26.6749 1.25893 26.3273 1.25893ZM52.0251 25.7092C52.3727 25.7092 52.6545 25.991 52.6545 26.3386C52.6545 40.8848 40.8677 52.6773 26.3273 52.6773C25.9796 52.6773 25.6978 52.3954 25.6978 52.0478C25.6978 51.7002 25.9796 51.4183 26.3273 51.4183C40.1719 51.4183 51.3956 40.19 51.3956 26.3386C51.3956 25.991 51.6774 25.7092 52.0251 25.7092ZM1.10968 31.3509C1.44898 31.2752 1.78542 31.4889 1.86114 31.8282C3.33878 38.4494 7.4345 44.0849 13.0064 47.5884C13.3007 47.7735 13.3892 48.1621 13.2042 48.4564C13.0191 48.7507 12.6305 48.8392 12.3362 48.6542C6.48693 44.9762 2.18498 39.0593 0.632435 32.1024C0.556715 31.7631 0.770387 31.4267 1.10968 31.3509Z" fill="#0D0D0D"/>
<path fill-rule="evenodd" clip-rule="evenodd" d="M26.3277 43.157C35.612 43.157 43.1398 35.627 43.1398 26.3367C43.1398 17.0463 35.612 9.51637 26.3277 9.51637C17.0435 9.51637 9.51571 17.0463 9.51571 26.3367C9.51571 35.627 17.0435 43.157 26.3277 43.157ZM26.3277 45.0454C36.6557 45.0454 45.0281 36.6692 45.0281 26.3367C45.0281 16.0041 36.6557 7.62798 26.3277 7.62798C15.9998 7.62798 7.62732 16.0041 7.62732 26.3367C7.62732 36.6692 15.9998 45.0454 26.3277 45.0454Z" fill="#0D0D0D"/>
<path fill-rule="evenodd" clip-rule="evenodd" d="M26.3273 47.7171C38.128 47.7171 47.6954 38.1463 47.6954 26.339C47.6954 14.5317 38.128 4.96097 26.3273 4.96097C14.5266 4.96097 4.95925 14.5317 4.95925 26.339C4.95925 38.1463 14.5266 47.7171 26.3273 47.7171ZM26.3273 48.976C38.8239 48.976 48.9543 38.8411 48.9543 26.339C48.9543 13.837 38.8239 3.70204 26.3273 3.70204C13.8308 3.70204 3.70032 13.837 3.70032 26.339C3.70032 38.8411 13.8308 48.976 26.3273 48.976Z" fill="#0D0D0D"/>
<path fill-rule="evenodd" clip-rule="evenodd" d="M26.3273 1.25893C12.4827 1.25893 1.25893 12.4872 1.25893 26.3386C1.25893 26.6863 0.977109 26.9681 0.629465 26.9681C0.281821 26.9681 0 26.6863 0 26.3386C0 11.7925 11.7869 0 26.3273 0C26.6749 0 26.9567 0.281821 26.9567 0.629465C26.9567 0.977108 26.6749 1.25893 26.3273 1.25893ZM52.0251 25.7092C52.3727 25.7092 52.6545 25.991 52.6545 26.3386C52.6545 40.8848 40.8677 52.6773 26.3273 52.6773C25.9796 52.6773 25.6978 52.3954 25.6978 52.0478C25.6978 51.7002 25.9796 51.4183 26.3273 51.4183C40.1719 51.4183 51.3956 40.19 51.3956 26.3386C51.3956 25.991 51.6774 25.7092 52.0251 25.7092ZM1.10968 31.3509C1.44898 31.2752 1.78542 31.4889 1.86114 31.8282C3.33878 38.4494 7.4345 44.0849 13.0064 47.5884C13.3007 47.7735 13.3892 48.1621 13.2042 48.4564C13.0191 48.7507 12.6305 48.8392 12.3362 48.6542C6.48693 44.9762 2.18498 39.0593 0.632435 32.1024C0.556715 31.7631 0.770387 31.4267 1.10968 31.3509Z" fill="#0D0D0D"/>
<path fill-rule="evenodd" clip-rule="evenodd" d="M26.3273 1.25893C12.4827 1.25893 1.25893 12.4872 1.25893 26.3386C1.25893 26.6863 0.977109 26.9681 0.629465 26.9681C0.281821 26.9681 0 26.6863 0 26.3386C0 11.7925 11.7869 0 26.3273 0C26.6749 0 26.9567 0.281821 26.9567 0.629465C26.9567 0.977108 26.6749 1.25893 26.3273 1.25893ZM52.0251 25.7092C52.3727 25.7092 52.6545 25.991 52.6545 26.3386C52.6545 40.8848 40.8677 52.6773 26.3273 52.6773C25.9796 52.6773 25.6978 52.3954 25.6978 52.0478C25.6978 51.7002 25.9796 51.4183 26.3273 51.4183C40.1719 51.4183 51.3956 40.19 51.3956 26.3386C51.3956 25.991 51.6774 25.7092 52.0251 25.7092ZM1.10968 31.3509C1.44898 31.2752 1.78542 31.4889 1.86114 31.8282C3.33878 38.4494 7.4345 44.0849 13.0064 47.5884C13.3007 47.7735 13.3892 48.1621 13.2042 48.4564C13.0191 48.7507 12.6305 48.8392 12.3362 48.6542C6.48693 44.9762 2.18498 39.0593 0.632435 32.1024C0.556715 31.7631 0.770387 31.4267 1.10968 31.3509Z" fill="#0D0D0D"/>
<path d="M74.5848 32.4671C73.338 32.4671 72.2159 32.1991 71.2185 31.6629C70.2335 31.1143 69.4543 30.3351 68.8808 29.3252C68.3197 28.3028 68.0392 27.1121 68.0392 25.7531C68.0392 24.3941 68.3197 23.2097 68.8808 22.1998C69.4543 21.1774 70.2335 20.3982 71.2185 19.8621C72.2159 19.3135 73.338 19.0392 74.5848 19.0392C75.4327 19.0392 76.187 19.1389 76.8478 19.3384C77.521 19.5379 78.1881 19.8247 78.8489 20.1987C79.1232 20.3483 79.2603 20.5852 79.2603 20.9094C79.2603 21.0964 79.1917 21.2647 79.0546 21.4143C78.9174 21.5515 78.7367 21.62 78.5122 21.62C78.3875 21.62 78.2753 21.5951 78.1756 21.5452C77.627 21.2585 77.0909 21.0403 76.5672 20.8907C76.0436 20.741 75.4389 20.6662 74.7532 20.6662C73.6809 20.6662 72.7645 20.8907 72.004 21.3395C71.2559 21.7759 70.6886 22.3806 70.3021 23.1536C69.9281 23.9141 69.7411 24.7806 69.7411 25.7531C69.7411 26.7256 69.9281 27.5984 70.3021 28.3714C70.6886 29.1319 71.2559 29.7366 72.004 30.1855C72.7645 30.6219 73.6809 30.8401 74.7532 30.8401C75.4389 30.8401 76.0436 30.7652 76.5672 30.6156C77.0909 30.466 77.627 30.2478 78.1756 29.9611C78.2753 29.9112 78.3875 29.8863 78.5122 29.8863C78.7367 29.8863 78.9174 29.9548 79.0546 30.092C79.1917 30.2291 79.2603 30.3974 79.2603 30.5969C79.2603 30.9211 79.1232 31.158 78.8489 31.3076C78.1881 31.6816 77.521 31.9684 76.8478 32.1679C76.187 32.3674 75.4327 32.4671 74.5848 32.4671Z" fill="#0D0D0D"/>
<path d="M85.9427 32.3736C85.7058 32.3736 85.5063 32.2926 85.3443 32.1305C85.1822 31.9684 85.1011 31.7689 85.1011 31.532V20.0865C85.1011 19.8496 85.1822 19.6501 85.3443 19.488C85.5063 19.3135 85.7058 19.2262 85.9427 19.2262H90.3002C91.9959 19.2262 93.2676 19.5753 94.1154 20.2735C94.9632 20.9717 95.3872 21.8881 95.3872 23.0227C95.3872 23.7707 95.1752 24.4565 94.7513 25.0799C94.3398 25.6908 93.7352 26.1334 92.9372 26.4077C93.8349 26.6446 94.4458 27.2057 94.77 28.0909C95.1066 28.9636 95.2749 29.8239 95.2749 30.6717V31.532C95.2749 31.7689 95.1939 31.9684 95.0318 32.1305C94.8697 32.2926 94.6702 32.3736 94.4334 32.3736C94.1715 32.3736 93.9596 32.2988 93.7975 32.1492C93.6479 31.9871 93.5731 31.7814 93.5731 31.532V30.971C93.5731 30.3476 93.517 29.774 93.4048 29.2504C93.2925 28.7143 93.0245 28.2405 92.6006 27.8291C92.1767 27.4051 91.5346 27.1932 90.6743 27.1932H86.803V31.532C86.803 31.7689 86.7157 31.9684 86.5412 32.1305C86.3791 32.2926 86.1796 32.3736 85.9427 32.3736ZM90.188 25.5848C91.2603 25.5848 92.1081 25.3729 92.7315 24.949C93.3674 24.5251 93.6853 23.9266 93.6853 23.1536C93.6853 22.4055 93.411 21.832 92.8624 21.433C92.3263 21.034 91.4037 20.8346 90.0945 20.8346H86.803V25.5848H90.188Z" fill="#0D0D0D"/>
<path d="M105.859 32.3736C105.622 32.3736 105.416 32.2926 105.241 32.1305C105.079 31.9684 104.998 31.7689 104.998 31.532V26.763L100.529 20.4979C100.429 20.3358 100.379 20.1675 100.379 19.993C100.379 19.7561 100.454 19.5566 100.603 19.3945C100.765 19.22 100.965 19.1327 101.202 19.1327C101.514 19.1327 101.763 19.2761 101.95 19.5628L105.859 25.2482L109.767 19.5628C109.954 19.2761 110.204 19.1327 110.515 19.1327C110.752 19.1327 110.952 19.22 111.114 19.3945C111.276 19.5566 111.351 19.7561 111.338 19.993C111.338 20.1675 111.288 20.3358 111.189 20.4979L106.7 26.763V31.532C106.7 31.7689 106.619 31.9684 106.457 32.1305C106.295 32.2926 106.095 32.3736 105.859 32.3736Z" fill="#0D0D0D"/>
<path d="M117.747 32.3736C117.51 32.3736 117.31 32.2926 117.148 32.1305C116.986 31.9684 116.905 31.7689 116.905 31.532V20.0865C116.905 19.8496 116.986 19.6501 117.148 19.488C117.31 19.3135 117.51 19.2262 117.747 19.2262H122.011C123.195 19.2262 124.162 19.4257 124.91 19.8247C125.658 20.2236 126.194 20.7348 126.518 21.3582C126.842 21.9816 127.004 22.6549 127.004 23.378C127.004 24.1011 126.842 24.7744 126.518 25.3978C126.194 26.0212 125.658 26.5324 124.91 26.9314C124.162 27.3303 123.195 27.5298 122.011 27.5298H118.607V31.532C118.607 31.7689 118.52 31.9684 118.345 32.1305C118.183 32.2926 117.984 32.3736 117.747 32.3736ZM121.843 25.9215C123.114 25.9215 124.006 25.6783 124.517 25.1921C125.041 24.7058 125.302 24.1011 125.302 23.378C125.302 22.6549 125.041 22.0502 124.517 21.5639C124.006 21.0777 123.114 20.8346 121.843 20.8346H118.607V25.9215H121.843Z" fill="#0D0D0D"/>
<path d="M133.585 32.3736C133.348 32.3736 133.149 32.2926 132.987 32.1305C132.824 31.9684 132.743 31.7689 132.743 31.532V20.0865C132.743 19.8496 132.824 19.6501 132.987 19.488C133.149 19.3135 133.348 19.2262 133.585 19.2262H137.849C139.033 19.2262 140 19.4257 140.748 19.8247C141.496 20.2236 142.032 20.7348 142.356 21.3582C142.68 21.9816 142.842 22.6549 142.842 23.378C142.842 24.1011 142.68 24.7744 142.356 25.3978C142.032 26.0212 141.496 26.5324 140.748 26.9314C140 27.3303 139.033 27.5298 137.849 27.5298H134.445V31.532C134.445 31.7689 134.358 31.9684 134.183 32.1305C134.021 32.2926 133.822 32.3736 133.585 32.3736ZM137.681 25.9215C138.952 25.9215 139.844 25.6783 140.355 25.1921C140.879 24.7058 141.141 24.1011 141.141 23.378C141.141 22.6549 140.879 22.0502 140.355 21.5639C139.844 21.0777 138.952 20.8346 137.681 20.8346H134.445V25.9215H137.681Z" fill="#0D0D0D"/>
<path d="M154.36 32.4671C153.051 32.4671 151.904 32.1804 150.919 31.6068C149.934 31.0333 149.174 30.2416 148.638 29.2317C148.102 28.2218 147.821 27.0623 147.796 25.7531C147.821 24.444 148.102 23.2845 148.638 22.2746C149.174 21.2647 149.934 20.473 150.919 19.8995C151.904 19.3259 153.051 19.0392 154.36 19.0392C155.67 19.0392 156.81 19.3259 157.783 19.8995C158.768 20.473 159.528 21.2709 160.064 22.2933C160.613 23.3032 160.9 24.4565 160.925 25.7531C160.9 27.0498 160.613 28.2093 160.064 29.2317C159.528 30.2416 158.768 31.0333 157.783 31.6068C156.81 32.1804 155.67 32.4671 154.36 32.4671ZM154.36 30.8775C155.358 30.8775 156.224 30.653 156.96 30.2042C157.696 29.7553 158.257 29.1444 158.643 28.3714C159.03 27.5984 159.223 26.7256 159.223 25.7531C159.223 24.7806 159.03 23.9079 158.643 23.1349C158.257 22.3619 157.696 21.7509 156.96 21.3021C156.224 20.8533 155.358 20.6288 154.36 20.6288C153.351 20.6288 152.478 20.8533 151.742 21.3021C151.019 21.7509 150.464 22.3619 150.078 23.1349C149.691 23.9079 149.498 24.7806 149.498 25.7531C149.498 26.7256 149.691 27.5984 150.078 28.3714C150.464 29.1444 151.019 29.7553 151.742 30.2042C152.478 30.653 153.351 30.8775 154.36 30.8775Z" fill="#0D0D0D"/>
<path fill-rule="evenodd" clip-rule="evenodd" d="M70.7196 32.5742L70.7128 32.5705C69.5563 31.9264 68.6416 31.0083 67.9771 29.8381L67.9734 29.8315L67.9697 29.8249C67.3117 28.6257 67 27.2577 67 25.753C67 24.2486 67.3115 22.8845 67.9723 21.695L67.9744 21.6913C68.6387 20.5071 69.5558 19.5844 70.7196 18.9504C71.8842 18.3103 73.1807 18 74.5846 18C75.5109 18 76.3685 18.1086 77.1453 18.3428C77.8969 18.5657 78.6334 18.8833 79.3545 19.2909C79.6314 19.4436 79.8812 19.6652 80.0564 19.9678C80.2322 20.2714 80.2991 20.5982 80.2991 20.9092C80.2991 21.3793 80.1168 21.7927 79.8203 22.1162L79.805 22.1328L79.7891 22.1488C79.4263 22.5116 78.9652 22.6588 78.512 22.6588C78.2453 22.6588 77.9711 22.6045 77.7108 22.4743L77.7024 22.4702L77.6941 22.4658C77.1997 22.2074 76.729 22.0173 76.2816 21.8895C75.8711 21.7722 75.3659 21.705 74.753 21.705C73.8267 21.705 73.1014 21.898 72.5319 22.2341L72.5273 22.2368C71.9543 22.5711 71.5287 23.0245 71.2327 23.615C70.9395 24.2126 70.7799 24.9174 70.7799 25.753C70.7799 26.5854 70.9384 27.2973 71.2327 27.9095C71.527 28.4847 71.9524 28.9408 72.5296 29.2891C73.0999 29.614 73.8267 29.8009 74.753 29.8009C75.3659 29.8009 75.8712 29.7337 76.2816 29.6164C76.729 29.4886 77.1997 29.2985 77.6941 29.0401L77.7024 29.0358L77.7108 29.0316C77.971 28.9014 78.2453 28.8471 78.512 28.8471C78.9652 28.8471 79.4263 28.9943 79.7891 29.3571L79.0544 30.0918C78.9172 29.9546 78.7365 29.8861 78.512 29.8861C78.3874 29.8861 78.2751 29.911 78.1754 29.9609C77.6268 30.2476 77.0907 30.4658 76.567 30.6154C76.0434 30.7651 75.4387 30.8399 74.753 30.8399C73.6807 30.8399 72.7643 30.6217 72.0038 30.1853C71.2557 29.7365 70.6884 29.1318 70.3019 28.3712C69.9279 27.5982 69.7409 26.7255 69.7409 25.753C69.7409 24.7805 69.9279 23.9139 70.3019 23.1534C70.6884 22.3804 71.2557 21.7757 72.0038 21.3393C72.7643 20.8905 73.6807 20.6661 74.753 20.6661C75.4387 20.6661 76.0434 20.7409 76.567 20.8905C77.0907 21.0401 77.6268 21.2583 78.1754 21.545C78.2751 21.5949 78.3874 21.6198 78.512 21.6198C78.7365 21.6198 78.9172 21.5513 79.0544 21.4141C79.1915 21.2645 79.2601 21.0962 79.2601 20.9092C79.2601 20.585 79.123 20.3481 78.8487 20.1985C78.1879 19.8245 77.5208 19.5377 76.8476 19.3382C76.1868 19.1387 75.4325 19.039 74.5846 19.039C73.3379 19.039 72.2157 19.3133 71.2183 19.8619C70.2333 20.398 69.4541 21.1772 68.8806 22.1996C68.3195 23.2095 68.039 24.394 68.039 25.753C68.039 27.112 68.3195 28.3026 68.8806 29.325C69.4541 30.3349 70.2333 31.1142 71.2183 31.6628C72.2157 32.1989 73.3379 32.4669 74.5846 32.4669C75.4325 32.4669 76.1868 32.3672 76.8476 32.1677C77.5208 31.9682 78.1879 31.6815 78.8487 31.3074C79.123 31.1578 79.2601 30.9209 79.2601 30.5967C79.2601 30.3973 79.1915 30.2289 79.0544 30.0918L79.7891 29.3571C80.1272 29.6952 80.2991 30.1305 80.2991 30.5967C80.2991 30.9078 80.2322 31.2345 80.0564 31.5381C79.8812 31.8407 79.6314 32.0623 79.3544 32.215C78.6334 32.6226 77.8968 32.9402 77.1452 33.1631C76.3685 33.3973 75.5109 33.5059 74.5846 33.5059C73.1839 33.5059 71.8899 33.2033 70.7264 32.5779L70.7196 32.5742ZM92.8622 21.4328C92.3261 21.0339 91.4035 20.8344 90.0943 20.8344H86.8028V25.5846H90.1878C91.2601 25.5846 92.1079 25.3727 92.7313 24.9488C93.3672 24.5249 93.6851 23.9264 93.6851 23.1534C93.6851 22.4053 93.4108 21.8318 92.8622 21.4328ZM93.7973 32.149C93.6477 31.9869 93.5729 31.7812 93.5729 31.5318V30.9708C93.5729 30.3474 93.5168 29.7739 93.4046 29.2502C93.2924 28.7141 93.0243 28.2403 92.6004 27.8289C92.1765 27.405 91.5344 27.193 90.6741 27.193H86.8028V31.5318C86.8028 31.7687 86.7155 31.9682 86.541 32.1303C86.3789 32.2924 86.1794 32.3734 85.9425 32.3734C85.7056 32.3734 85.5061 32.2924 85.3441 32.1303C85.182 31.9682 85.1009 31.7687 85.1009 31.5318V20.0863C85.1009 19.8494 85.182 19.6499 85.3441 19.4878C85.5061 19.3133 85.7056 19.226 85.9425 19.226H90.3001C91.9957 19.226 93.2674 19.5751 94.1152 20.2733C94.9631 20.9715 95.387 21.8879 95.387 23.0225C95.387 23.7706 95.175 24.4563 94.7511 25.0797C94.5756 25.3402 94.365 25.5702 94.1193 25.7695C93.7887 26.0375 93.3947 26.2502 92.937 26.4075C93.3988 26.5294 93.7847 26.737 94.0947 27.0304C94.3874 27.3074 94.6124 27.6608 94.7698 28.0907C95.1064 28.9634 95.2748 29.8237 95.2748 30.6716V31.5318C95.2748 31.7687 95.1937 31.9682 95.0316 32.1303C94.8695 32.2924 94.6701 32.3734 94.4332 32.3734C94.1713 32.3734 93.9594 32.2986 93.7973 32.149ZM94.9541 26.4218C95.2908 26.7812 95.5554 27.2178 95.7422 27.7247C96.1181 28.7018 96.3137 29.686 96.3137 30.6716V31.5318C96.3137 32.034 96.1304 32.5009 95.7663 32.865C95.4022 33.2291 94.9353 33.4124 94.4332 33.4124C93.962 33.4124 93.4815 33.2715 93.0926 32.9125L93.062 32.8843L93.0339 32.8537C92.6837 32.4744 92.5339 32.0057 92.5339 31.5318V30.9708C92.5339 30.409 92.4833 29.9095 92.3886 29.4679L92.3876 29.4631C92.3212 29.1459 92.1642 28.8534 91.8768 28.5744L91.8712 28.569L91.8657 28.5635C91.7079 28.4058 91.3793 28.232 90.6741 28.232H87.8418V31.5318C87.8418 32.053 87.638 32.5226 87.262 32.8785C86.8999 33.2336 86.4384 33.4124 85.9425 33.4124C85.4404 33.4124 84.9735 33.2291 84.6094 32.865C84.2453 32.5009 84.0619 32.034 84.0619 31.5318V20.0863C84.0619 19.5905 84.2407 19.129 84.5958 18.7669C84.9517 18.3909 85.4213 18.187 85.9425 18.187H90.3001C92.1121 18.187 93.6643 18.556 94.7757 19.4713C95.8722 20.3743 96.426 21.5893 96.426 23.0225C96.426 23.9799 96.1508 24.8682 95.6116 25.662C95.4206 25.9452 95.2005 26.1981 94.9541 26.4218ZM87.8418 24.5457H90.1878C91.1361 24.5457 91.7546 24.3565 92.1471 24.0896L92.1549 24.0843C92.4978 23.8557 92.6461 23.5838 92.6461 23.1534C92.6461 22.6981 92.5003 22.4544 92.2511 22.2731L92.2419 22.2664C91.9898 22.0788 91.3609 21.8734 90.0943 21.8734H87.8418V24.5457ZM104.52 32.8786L104.507 32.865C104.142 32.5009 103.959 32.034 103.959 31.5318V27.0955L99.662 21.0724L99.6435 21.0423C99.4524 20.7318 99.3398 20.3768 99.3398 19.9928C99.3398 19.5158 99.4991 19.0586 99.8397 18.6896L99.8418 18.6873C100.199 18.3024 100.674 18.0935 101.202 18.0935C101.898 18.0935 102.455 18.4433 102.812 18.9829L105.858 23.4141L108.905 18.9829C109.262 18.4432 109.819 18.0935 110.515 18.0935C111.036 18.0935 111.506 18.2974 111.862 18.6735C112.225 19.0434 112.396 19.5173 112.377 20.0203C112.372 20.3938 112.26 20.7392 112.073 21.0423L112.054 21.0733L107.739 27.0966V31.5318C107.739 32.034 107.556 32.5009 107.192 32.865C106.827 33.2291 106.361 33.4124 105.858 33.4124C105.358 33.4124 104.9 33.2311 104.534 32.8917L104.52 32.8786ZM106.7 26.7629L111.188 20.4977C111.288 20.3357 111.338 20.1673 111.338 19.9928C111.351 19.7559 111.276 19.5564 111.114 19.3943C110.952 19.2198 110.752 19.1325 110.515 19.1325C110.203 19.1325 109.954 19.2759 109.767 19.5626L105.858 25.248L101.95 19.5626C101.763 19.2759 101.513 19.1325 101.202 19.1325C100.965 19.1325 100.765 19.2198 100.603 19.3943C100.454 19.5564 100.379 19.7559 100.379 19.9928C100.379 20.1673 100.429 20.3357 100.528 20.4977L104.998 26.7629V31.5318C104.998 31.7687 105.079 31.9682 105.241 32.1303C105.416 32.2924 105.622 32.3734 105.858 32.3734C106.095 32.3734 106.295 32.2924 106.457 32.1303C106.619 31.9682 106.7 31.7687 106.7 31.5318V26.7629ZM124.517 21.5637C124.006 21.0775 123.114 20.8344 121.842 20.8344H118.607V25.9213H121.842C123.114 25.9213 124.006 25.6782 124.517 25.1919C125.04 24.7057 125.302 24.101 125.302 23.3778C125.302 22.6547 125.04 22.05 124.517 21.5637ZM119.646 24.8823H121.842C123.041 24.8823 123.588 24.6414 123.801 24.4391L123.81 24.4305C124.119 24.1435 124.263 23.816 124.263 23.3778C124.263 22.9397 124.119 22.6121 123.81 22.3251L123.801 22.3166C123.588 22.1143 123.041 21.8734 121.842 21.8734H119.646V24.8823ZM117.747 33.4124C117.245 33.4124 116.778 33.2291 116.414 32.865C116.049 32.5009 115.866 32.034 115.866 31.5318V20.0863C115.866 19.5904 116.045 19.1289 116.4 18.7668C116.756 18.3908 117.225 18.187 117.747 18.187H122.011C123.302 18.187 124.452 18.403 125.398 18.9077C126.293 19.3847 127 20.0335 127.44 20.8787C127.843 21.6545 128.043 22.4929 128.043 23.3778C128.043 24.2628 127.843 25.1011 127.44 25.877C127 26.7221 126.293 27.371 125.398 27.8479C124.452 28.3527 123.302 28.5686 122.011 28.5686H119.646V31.5318C119.646 32.053 119.442 32.5226 119.066 32.8785C118.704 33.2336 118.243 33.4124 117.747 33.4124ZM118.345 32.1303C118.52 31.9682 118.607 31.7687 118.607 31.5318V27.5296H122.011C123.195 27.5296 124.161 27.3302 124.909 26.9312C125.658 26.5322 126.194 26.021 126.518 25.3976C126.842 24.7742 127.004 24.101 127.004 23.3778C127.004 22.6547 126.842 21.9814 126.518 21.358C126.194 20.7346 125.658 20.2234 124.909 19.8245C124.161 19.4255 123.195 19.226 122.011 19.226H117.747C117.51 19.226 117.31 19.3133 117.148 19.4878C116.986 19.6499 116.905 19.8494 116.905 20.0863V31.5318C116.905 31.7687 116.986 31.9682 117.148 32.1303C117.31 32.2924 117.51 32.3734 117.747 32.3734C117.984 32.3734 118.183 32.2924 118.345 32.1303ZM140.355 21.5637C139.844 21.0775 138.952 20.8344 137.681 20.8344H134.445V25.9213H137.681C138.952 25.9213 139.844 25.6782 140.355 25.1919C140.879 24.7057 141.14 24.101 141.14 23.3778C141.14 22.6547 140.879 22.05 140.355 21.5637ZM135.484 24.8823H137.681C138.88 24.8823 139.426 24.6414 139.639 24.4391L139.648 24.4305C139.957 24.1435 140.101 23.816 140.101 23.3778C140.101 22.9397 139.957 22.6121 139.648 22.3251L139.639 22.3166C139.426 22.1143 138.88 21.8734 137.681 21.8734H135.484V24.8823ZM133.585 33.4124C133.083 33.4124 132.616 33.2291 132.252 32.865C131.888 32.5009 131.704 32.034 131.704 31.5318V20.0863C131.704 19.5904 131.883 19.1289 132.238 18.7668C132.594 18.3908 133.064 18.187 133.585 18.187H137.849C139.14 18.187 140.29 18.403 141.237 18.9077C142.131 19.3847 142.838 20.0335 143.278 20.8787C143.681 21.6545 143.881 22.4929 143.881 23.3778C143.881 24.2628 143.681 25.1011 143.278 25.877C142.838 26.7221 142.131 27.371 141.237 27.8479C140.29 28.3527 139.14 28.5686 137.849 28.5686H135.484V31.5318C135.484 32.0531 135.28 32.5228 134.904 32.8787C134.542 33.2337 134.081 33.4124 133.585 33.4124ZM134.445 31.5318C134.445 31.7687 134.358 31.9682 134.183 32.1303C134.021 32.2924 133.822 32.3734 133.585 32.3734C133.348 32.3734 133.148 32.2924 132.986 32.1303C132.824 31.9682 132.743 31.7687 132.743 31.5318V20.0863C132.743 19.8494 132.824 19.6499 132.986 19.4878C133.148 19.3133 133.348 19.226 133.585 19.226H137.849C139.033 19.226 140 19.4255 140.748 19.8245C141.496 20.2234 142.032 20.7346 142.356 21.358C142.68 21.9814 142.842 22.6547 142.842 23.3778C142.842 24.101 142.68 24.7742 142.356 25.3976C142.032 26.021 141.496 26.5322 140.748 26.9312C140 27.3302 139.033 27.5296 137.849 27.5296H134.445V31.5318ZM146.757 25.753L146.757 25.7332C146.785 24.2847 147.097 22.9609 147.72 21.7872C148.346 20.6069 149.243 19.6727 150.396 19.0014C151.562 18.3224 152.895 18 154.36 18C155.824 18 157.152 18.3218 158.308 19.0027C159.461 19.6745 160.356 20.6147 160.981 21.8039C161.616 22.9763 161.936 24.2942 161.963 25.733L161.964 25.753L161.963 25.7729C161.936 27.2137 161.615 28.5372 160.981 29.7205C160.355 30.8992 159.459 31.8324 158.308 32.5032C157.152 33.1841 155.824 33.5059 154.36 33.5059C152.895 33.5059 151.562 33.1835 150.396 32.5045C149.243 31.8332 148.346 30.899 147.72 29.7187C147.097 28.545 146.785 27.2212 146.757 25.7727L146.757 25.753ZM157.783 31.6066C158.768 31.0331 159.528 30.2414 160.064 29.2315C160.613 28.2091 160.9 27.0496 160.925 25.753C160.9 24.4563 160.613 23.303 160.064 22.2931C159.528 21.2707 158.768 20.4728 157.783 19.8993C156.81 19.3258 155.669 19.039 154.36 19.039C153.051 19.039 151.904 19.3258 150.919 19.8993C149.934 20.4728 149.174 21.2645 148.637 22.2744C148.101 23.2843 147.821 24.4438 147.796 25.753C147.821 27.0621 148.101 28.2216 148.637 29.2315C149.174 30.2414 149.934 31.0331 150.919 31.6066C151.904 32.1802 153.051 32.4669 154.36 32.4669C155.669 32.4669 156.81 32.1802 157.783 31.6066ZM154.36 29.8383C155.197 29.8383 155.87 29.6517 156.419 29.3171C156.987 28.9701 157.414 28.5057 157.714 27.9066C158.019 27.295 158.184 26.5845 158.184 25.753C158.184 24.9214 158.019 24.2109 157.714 23.5994C157.414 23.0002 156.987 22.5358 156.419 22.1888C155.87 21.8543 155.197 21.6676 154.36 21.6676C153.51 21.6676 152.832 21.8548 152.286 22.187C151.731 22.5325 151.308 22.9968 151.007 23.5994C150.701 24.2109 150.537 24.9214 150.537 25.753C150.537 26.5845 150.701 27.295 151.007 27.9066C151.308 28.5091 151.731 28.9734 152.286 29.3189C152.832 29.6512 153.51 29.8383 154.36 29.8383ZM156.96 30.204C156.224 30.6529 155.358 30.8773 154.36 30.8773C153.35 30.8773 152.478 30.6529 151.742 30.204C151.019 29.7552 150.464 29.1442 150.077 28.3712C149.691 27.5982 149.498 26.7255 149.498 25.753C149.498 24.7805 149.691 23.9077 150.077 23.1347C150.464 22.3617 151.019 21.7508 151.742 21.3019C152.478 20.8531 153.35 20.6287 154.36 20.6287C155.358 20.6287 156.224 20.8531 156.96 21.3019C157.695 21.7508 158.256 22.3617 158.643 23.1347C159.029 23.9077 159.223 24.7805 159.223 25.753C159.223 26.7255 159.029 27.5982 158.643 28.3712C158.256 29.1442 157.695 29.7552 156.96 30.204Z" fill="#0D0D0D"/>
</svg>
