<svg width="182" height="53" viewBox="0 0 182 53" fill="none" xmlns="http://www.w3.org/2000/svg">
<path fill-rule="evenodd" clip-rule="evenodd" d="M22.4146 41.0503C16.0772 39.3308 11.4159 33.5356 11.4159 26.6511C11.4159 24.4262 11.9028 22.315 12.7757 20.4184H19.3044C19.5175 20.4184 19.7306 20.2052 19.5175 19.992C19.0912 19.5656 18.939 18.7213 19.1521 18.0817C19.3084 17.6127 19.7306 17.2206 20.3699 17.0075C21.2223 16.7943 21.8616 17.0075 22.2878 17.4338C22.2979 17.444 22.3079 17.4539 22.3176 17.4636C22.5928 17.739 22.6985 17.8448 22.778 17.8279C22.8276 17.8173 22.867 17.7589 22.9309 17.6642C22.9381 17.6535 22.9457 17.6423 22.9536 17.6306C23.1984 17.2709 23.458 17.0961 23.9714 17.0961H25.0499H27.5972C29.089 17.0961 30.3858 18.2113 30.3858 19.5656V19.5657C30.3858 19.6723 30.3858 19.7255 30.4124 19.7522C30.4391 19.7788 30.4923 19.7788 30.5989 19.7788H34.4348C37.4974 19.7788 39.9755 22.337 39.9755 25.5347V26.3875C39.9755 30.0115 37.6558 32.9961 34.1171 33.2093H31.3873H28.8941C27.8285 33.2093 26.5499 32.7829 25.6975 32.1434C25.4764 31.9775 25.2713 32.1434 25.2713 32.3565V32.9961C25.2713 36.0708 24.189 38.8857 22.4146 41.0503ZM27.3287 20.7216C27.3287 21.3877 26.7887 21.9278 26.1225 21.9278C25.4564 21.9278 24.9163 21.3877 24.9163 20.7216C24.9163 20.0554 25.4564 19.5154 26.1225 19.5154C26.7887 19.5154 27.3287 20.0554 27.3287 20.7216Z" fill="#0D0D0D"/>
<path fill-rule="evenodd" clip-rule="evenodd" d="M26.3277 43.1569C35.612 43.1569 43.1398 35.627 43.1398 26.3366C43.1398 17.0462 35.612 9.51632 26.3277 9.51632C17.0435 9.51632 9.51571 17.0462 9.51571 26.3366C9.51571 35.627 17.0435 43.1569 26.3277 43.1569ZM26.3277 45.0453C36.6557 45.0453 45.0281 36.6691 45.0281 26.3366C45.0281 16.0041 36.6557 7.62793 26.3277 7.62793C15.9998 7.62793 7.62732 16.0041 7.62732 26.3366C7.62732 36.6691 15.9998 45.0453 26.3277 45.0453Z" fill="#0D0D0D"/>
<path fill-rule="evenodd" clip-rule="evenodd" d="M26.3273 47.7172C38.128 47.7172 47.6954 38.1465 47.6954 26.3391C47.6954 14.5318 38.128 4.96108 26.3273 4.96108C14.5266 4.96108 4.95925 14.5318 4.95925 26.3391C4.95925 38.1465 14.5266 47.7172 26.3273 47.7172ZM26.3273 48.9761C38.8239 48.9761 48.9543 38.8412 48.9543 26.3391C48.9543 13.8371 38.8239 3.70215 26.3273 3.70215C13.8308 3.70215 3.70032 13.8371 3.70032 26.3391C3.70032 38.8412 13.8308 48.9761 26.3273 48.9761Z" fill="#0D0D0D"/>
<path fill-rule="evenodd" clip-rule="evenodd" d="M26.3273 1.25893C12.4827 1.25893 1.25893 12.4872 1.25893 26.3386C1.25893 26.6863 0.977109 26.9681 0.629465 26.9681C0.281821 26.9681 0 26.6863 0 26.3386C0 11.7925 11.7869 0 26.3273 0C26.6749 0 26.9567 0.281821 26.9567 0.629465C26.9567 0.977108 26.6749 1.25893 26.3273 1.25893ZM52.0251 25.7092C52.3727 25.7092 52.6545 25.991 52.6545 26.3386C52.6545 40.8848 40.8677 52.6773 26.3273 52.6773C25.9796 52.6773 25.6978 52.3954 25.6978 52.0478C25.6978 51.7002 25.9796 51.4183 26.3273 51.4183C40.1719 51.4183 51.3956 40.19 51.3956 26.3386C51.3956 25.991 51.6774 25.7092 52.0251 25.7092ZM1.10968 31.3509C1.44898 31.2752 1.78542 31.4889 1.86114 31.8282C3.33878 38.4494 7.4345 44.0849 13.0064 47.5884C13.3007 47.7735 13.3892 48.1621 13.2042 48.4564C13.0191 48.7507 12.6305 48.8392 12.3362 48.6542C6.48693 44.9762 2.18498 39.0593 0.632435 32.1024C0.556715 31.7631 0.770387 31.4267 1.10968 31.3509Z" fill="#0D0D0D"/>
<path fill-rule="evenodd" clip-rule="evenodd" d="M26.3277 43.1569C35.612 43.1569 43.1398 35.627 43.1398 26.3366C43.1398 17.0462 35.612 9.51632 26.3277 9.51632C17.0435 9.51632 9.51571 17.0462 9.51571 26.3366C9.51571 35.627 17.0435 43.1569 26.3277 43.1569ZM26.3277 45.0453C36.6557 45.0453 45.0281 36.6691 45.0281 26.3366C45.0281 16.0041 36.6557 7.62793 26.3277 7.62793C15.9998 7.62793 7.62732 16.0041 7.62732 26.3366C7.62732 36.6691 15.9998 45.0453 26.3277 45.0453Z" fill="#0D0D0D"/>
<path fill-rule="evenodd" clip-rule="evenodd" d="M26.3273 47.7172C38.128 47.7172 47.6954 38.1465 47.6954 26.3391C47.6954 14.5318 38.128 4.96108 26.3273 4.96108C14.5266 4.96108 4.95925 14.5318 4.95925 26.3391C4.95925 38.1465 14.5266 47.7172 26.3273 47.7172ZM26.3273 48.9761C38.8239 48.9761 48.9543 38.8412 48.9543 26.3391C48.9543 13.8371 38.8239 3.70215 26.3273 3.70215C13.8308 3.70215 3.70032 13.8371 3.70032 26.3391C3.70032 38.8412 13.8308 48.9761 26.3273 48.9761Z" fill="#0D0D0D"/>
<path fill-rule="evenodd" clip-rule="evenodd" d="M26.3273 1.25893C12.4827 1.25893 1.25893 12.4872 1.25893 26.3386C1.25893 26.6863 0.977109 26.9681 0.629465 26.9681C0.281821 26.9681 0 26.6863 0 26.3386C0 11.7925 11.7869 0 26.3273 0C26.6749 0 26.9567 0.281821 26.9567 0.629465C26.9567 0.977108 26.6749 1.25893 26.3273 1.25893ZM52.0251 25.7092C52.3727 25.7092 52.6545 25.991 52.6545 26.3386C52.6545 40.8848 40.8677 52.6773 26.3273 52.6773C25.9796 52.6773 25.6978 52.3954 25.6978 52.0478C25.6978 51.7002 25.9796 51.4183 26.3273 51.4183C40.1719 51.4183 51.3956 40.19 51.3956 26.3386C51.3956 25.991 51.6774 25.7092 52.0251 25.7092ZM1.10968 31.3509C1.44898 31.2752 1.78542 31.4889 1.86114 31.8282C3.33878 38.4494 7.4345 44.0849 13.0064 47.5884C13.3007 47.7735 13.3892 48.1621 13.2042 48.4564C13.0191 48.7507 12.6305 48.8392 12.3362 48.6542C6.48693 44.9762 2.18498 39.0593 0.632435 32.1024C0.556715 31.7631 0.770387 31.4267 1.10968 31.3509Z" fill="#0D0D0D"/>
<path fill-rule="evenodd" clip-rule="evenodd" d="M26.3273 1.25893C12.4827 1.25893 1.25893 12.4872 1.25893 26.3386C1.25893 26.6863 0.977109 26.9681 0.629465 26.9681C0.281821 26.9681 0 26.6863 0 26.3386C0 11.7925 11.7869 0 26.3273 0C26.6749 0 26.9567 0.281821 26.9567 0.629465C26.9567 0.977108 26.6749 1.25893 26.3273 1.25893ZM52.0251 25.7092C52.3727 25.7092 52.6545 25.991 52.6545 26.3386C52.6545 40.8848 40.8677 52.6773 26.3273 52.6773C25.9796 52.6773 25.6978 52.3954 25.6978 52.0478C25.6978 51.7002 25.9796 51.4183 26.3273 51.4183C40.1719 51.4183 51.3956 40.19 51.3956 26.3386C51.3956 25.991 51.6774 25.7092 52.0251 25.7092ZM1.10968 31.3509C1.44898 31.2752 1.78542 31.4889 1.86114 31.8282C3.33878 38.4494 7.4345 44.0849 13.0064 47.5884C13.3007 47.7735 13.3892 48.1621 13.2042 48.4564C13.0191 48.7507 12.6305 48.8392 12.3362 48.6542C6.48693 44.9762 2.18498 39.0593 0.632435 32.1024C0.556715 31.7631 0.770387 31.4267 1.10968 31.3509Z" fill="#0D0D0D"/>
<path d="M74.3461 29.9475C73.0993 29.9475 71.9772 29.6794 70.9797 29.1433C69.9948 28.5947 69.2155 27.8155 68.642 26.8056C68.0809 25.7832 67.8004 24.5925 67.8004 23.2335C67.8004 21.8745 68.0809 20.69 68.642 19.6801C69.2155 18.6578 69.9948 17.8785 70.9797 17.3424C71.9772 16.7938 73.0993 16.5195 74.3461 16.5195C75.1939 16.5195 75.9482 16.6193 76.609 16.8188C77.2823 17.0182 77.9493 17.305 78.6101 17.679C78.8844 17.8287 79.0215 18.0656 79.0215 18.3897C79.0215 18.5767 78.953 18.7451 78.8158 18.8947C78.6787 19.0318 78.4979 19.1004 78.2735 19.1004C78.1488 19.1004 78.0366 19.0755 77.9368 19.0256C77.3882 18.7388 76.8521 18.5206 76.3285 18.371C75.8048 18.2214 75.2001 18.1466 74.5144 18.1466C73.4421 18.1466 72.5258 18.371 71.7652 18.8199C71.0171 19.2562 70.4498 19.8609 70.0633 20.6339C69.6893 21.3945 69.5023 22.261 69.5023 23.2335C69.5023 24.206 69.6893 25.0787 70.0633 25.8518C70.4498 26.6123 71.0171 27.217 71.7652 27.6658C72.5258 28.1022 73.4421 28.3204 74.5144 28.3204C75.2001 28.3204 75.8048 28.2456 76.3285 28.096C76.8521 27.9464 77.3882 27.7282 77.9368 27.4414C78.0366 27.3915 78.1488 27.3666 78.2735 27.3666C78.4979 27.3666 78.6787 27.4352 78.8158 27.5723C78.953 27.7095 79.0215 27.8778 79.0215 28.0773C79.0215 28.4014 78.8844 28.6383 78.6101 28.788C77.9493 29.162 77.2823 29.4488 76.609 29.6482C75.9482 29.8477 75.1939 29.9475 74.3461 29.9475Z" fill="#0D0D0D"/>
<path d="M85.7039 29.854C85.4671 29.854 85.2676 29.7729 85.1055 29.6108C84.9434 29.4488 84.8624 29.2493 84.8624 29.0124V17.5668C84.8624 17.3299 84.9434 17.1305 85.1055 16.9684C85.2676 16.7938 85.4671 16.7065 85.7039 16.7065H90.0615C91.7571 16.7065 93.0288 17.0557 93.8767 17.7539C94.7245 18.4521 95.1484 19.3684 95.1484 20.503C95.1484 21.2511 94.9364 21.9368 94.5125 22.5602C94.1011 23.1712 93.4964 23.6138 92.6984 23.8881C93.5961 24.125 94.2071 24.686 94.5312 25.5712C94.8679 26.444 95.0362 27.3043 95.0362 28.1521V29.0124C95.0362 29.2493 94.9551 29.4488 94.793 29.6108C94.631 29.7729 94.4315 29.854 94.1946 29.854C93.9328 29.854 93.7208 29.7792 93.5587 29.6295C93.4091 29.4675 93.3343 29.2617 93.3343 29.0124V28.4513C93.3343 27.8279 93.2782 27.2544 93.166 26.7307C93.0538 26.1946 92.7857 25.7208 92.3618 25.3094C91.9379 24.8855 91.2958 24.6735 90.4355 24.6735H86.5642V29.0124C86.5642 29.2493 86.477 29.4488 86.3024 29.6108C86.1403 29.7729 85.9408 29.854 85.7039 29.854ZM89.9493 23.0652C91.0215 23.0652 91.8693 22.8532 92.4927 22.4293C93.1286 22.0054 93.4465 21.407 93.4465 20.6339C93.4465 19.8859 93.1722 19.3123 92.6236 18.9134C92.0875 18.5144 91.1649 18.3149 89.8558 18.3149H86.5642V23.0652H89.9493Z" fill="#0D0D0D"/>
<path d="M105.62 29.854C105.383 29.854 105.177 29.7729 105.003 29.6108C104.841 29.4488 104.76 29.2493 104.76 29.0124V24.2434L100.29 17.9783C100.19 17.8162 100.14 17.6479 100.14 17.4733C100.14 17.2364 100.215 17.0369 100.365 16.8749C100.527 16.7003 100.726 16.613 100.963 16.613C101.275 16.613 101.524 16.7564 101.711 17.0432L105.62 22.7285L109.529 17.0432C109.716 16.7564 109.965 16.613 110.277 16.613C110.513 16.613 110.713 16.7003 110.875 16.8749C111.037 17.0369 111.112 17.2364 111.099 17.4733C111.099 17.6479 111.05 17.8162 110.95 17.9783L106.461 24.2434V29.0124C106.461 29.2493 106.38 29.4488 106.218 29.6108C106.056 29.7729 105.857 29.854 105.62 29.854Z" fill="#0D0D0D"/>
<path d="M117.508 29.854C117.271 29.854 117.072 29.7729 116.91 29.6108C116.748 29.4488 116.666 29.2493 116.666 29.0124V17.5668C116.666 17.3299 116.748 17.1305 116.91 16.9684C117.072 16.7938 117.271 16.7065 117.508 16.7065H121.772C122.957 16.7065 123.923 16.906 124.671 17.305C125.419 17.704 125.955 18.2152 126.279 18.8386C126.603 19.462 126.765 20.1352 126.765 20.8584C126.765 21.5815 126.603 22.2548 126.279 22.8782C125.955 23.5016 125.419 24.0127 124.671 24.4117C123.923 24.8107 122.957 25.0102 121.772 25.0102H118.368V29.0124C118.368 29.2493 118.281 29.4488 118.107 29.6108C117.944 29.7729 117.745 29.854 117.508 29.854ZM121.604 23.4018C122.876 23.4018 123.767 23.1587 124.278 22.6724C124.802 22.1862 125.064 21.5815 125.064 20.8584C125.064 20.1352 124.802 19.5305 124.278 19.0443C123.767 18.558 122.876 18.3149 121.604 18.3149H118.368V23.4018H121.604Z" fill="#0D0D0D"/>
<path d="M133.346 29.854C133.109 29.854 132.91 29.7729 132.748 29.6108C132.586 29.4488 132.505 29.2493 132.505 29.0124V17.5668C132.505 17.3299 132.586 17.1305 132.748 16.9684C132.91 16.7938 133.109 16.7065 133.346 16.7065H137.61C138.795 16.7065 139.761 16.906 140.509 17.305C141.257 17.704 141.793 18.2152 142.117 18.8386C142.442 19.462 142.604 20.1352 142.604 20.8584C142.604 21.5815 142.442 22.2548 142.117 22.8782C141.793 23.5016 141.257 24.0127 140.509 24.4117C139.761 24.8107 138.795 25.0102 137.61 25.0102H134.206V29.0124C134.206 29.2493 134.119 29.4488 133.945 29.6108C133.783 29.7729 133.583 29.854 133.346 29.854ZM137.442 23.4018C138.714 23.4018 139.605 23.1587 140.116 22.6724C140.64 22.1862 140.902 21.5815 140.902 20.8584C140.902 20.1352 140.64 19.5305 140.116 19.0443C139.605 18.558 138.714 18.3149 137.442 18.3149H134.206V23.4018H137.442Z" fill="#0D0D0D"/>
<path d="M154.122 29.9475C152.813 29.9475 151.665 29.6607 150.681 29.0872C149.696 28.5137 148.935 27.7219 148.399 26.712C147.863 25.7021 147.582 24.5426 147.557 23.2335C147.582 21.9244 147.863 20.7649 148.399 19.755C148.935 18.7451 149.696 17.9533 150.681 17.3798C151.665 16.8063 152.813 16.5195 154.122 16.5195C155.431 16.5195 156.572 16.8063 157.544 17.3798C158.529 17.9533 159.29 18.7513 159.826 19.7737C160.374 20.7836 160.661 21.9368 160.686 23.2335C160.661 24.5302 160.374 25.6897 159.826 26.712C159.29 27.7219 158.529 28.5137 157.544 29.0872C156.572 29.6607 155.431 29.9475 154.122 29.9475ZM154.122 28.3578C155.119 28.3578 155.986 28.1334 156.721 27.6845C157.457 27.2357 158.018 26.6248 158.404 25.8518C158.791 25.0787 158.984 24.206 158.984 23.2335C158.984 22.261 158.791 21.3882 158.404 20.6152C158.018 19.8422 157.457 19.2313 156.721 18.7825C155.986 18.3336 155.119 18.1092 154.122 18.1092C153.112 18.1092 152.239 18.3336 151.503 18.7825C150.78 19.2313 150.225 19.8422 149.839 20.6152C149.452 21.3882 149.259 22.261 149.259 23.2335C149.259 24.206 149.452 25.0787 149.839 25.8518C150.225 26.6248 150.78 27.2357 151.503 27.6845C152.239 28.1334 153.112 28.3578 154.122 28.3578Z" fill="#0D0D0D"/>
<path fill-rule="evenodd" clip-rule="evenodd" d="M70.4807 30.0547L70.4739 30.0509C69.3175 29.4068 68.4028 28.4887 67.7383 27.3186L67.7345 27.312L67.7309 27.3053C67.0728 26.1062 66.7612 24.7381 66.7612 23.2334C66.7612 21.7291 67.0727 20.3649 67.7335 19.1755L67.7356 19.1717C68.3999 17.9876 69.3169 17.0648 70.4808 16.4309C71.6454 15.7908 72.9418 15.4805 74.3458 15.4805C75.2721 15.4805 76.1297 15.5891 76.9065 15.8233C77.6581 16.0462 78.3946 16.3638 79.1157 16.7714C79.3926 16.9241 79.6424 17.1457 79.8176 17.4483C79.9934 17.7519 80.0603 18.0786 80.0603 18.3896C80.0603 18.8598 79.878 19.2732 79.5815 19.5967L79.5662 19.6133L79.5502 19.6293C79.1874 19.9921 78.7263 20.1393 78.2732 20.1393C78.0065 20.1393 77.7322 20.085 77.4719 19.9548L77.4636 19.9506L77.4553 19.9463C76.9608 19.6878 76.4902 19.4978 76.0428 19.37C75.6323 19.2527 75.1271 19.1855 74.5141 19.1855C73.5879 19.1855 72.8625 19.3785 72.293 19.7146L72.2885 19.7173C71.7155 20.0515 71.2898 20.505 70.9939 21.0955C70.7007 21.693 70.541 22.3979 70.541 23.2334C70.541 24.0659 70.6995 24.7778 70.9939 25.39C71.2882 25.9651 71.7136 26.4213 72.2907 26.7696C72.8611 27.0945 73.5878 27.2813 74.5141 27.2813C75.1271 27.2813 75.6323 27.2142 76.0428 27.0969C76.4902 26.9691 76.9608 26.779 77.4553 26.5206L77.4636 26.5162L77.4719 26.512C77.7322 26.3819 78.0065 26.3276 78.2732 26.3276C78.7263 26.3276 79.1874 26.4748 79.5502 26.8376L78.8156 27.5723C78.6784 27.4351 78.4976 27.3665 78.2732 27.3665C78.1485 27.3665 78.0363 27.3915 77.9366 27.4414C77.388 27.7281 76.8519 27.9463 76.3282 28.0959C75.8046 28.2455 75.1999 28.3203 74.5141 28.3203C73.4419 28.3203 72.5255 28.1022 71.765 27.6658C71.0169 27.2169 70.4496 26.6122 70.0631 25.8517C69.6891 25.0787 69.502 24.2059 69.502 23.2334C69.502 22.2609 69.6891 21.3944 70.0631 20.6339C70.4496 19.8609 71.0169 19.2562 71.765 18.8198C72.5255 18.3709 73.4419 18.1465 74.5141 18.1465C75.1999 18.1465 75.8046 18.2213 76.3282 18.3709C76.8519 18.5206 77.388 18.7387 77.9366 19.0255C78.0363 19.0754 78.1485 19.1003 78.2732 19.1003C78.4976 19.1003 78.6784 19.0317 78.8156 18.8946C78.9527 18.745 79.0213 18.5767 79.0213 18.3896C79.0213 18.0655 78.8841 17.8286 78.6098 17.679C77.949 17.3049 77.282 17.0182 76.6087 16.8187C75.9479 16.6192 75.1936 16.5195 74.3458 16.5195C73.099 16.5195 71.9769 16.7938 70.9795 17.3423C69.9945 17.8785 69.2153 18.6577 68.6417 19.6801C68.0807 20.69 67.8002 21.8744 67.8002 23.2334C67.8002 24.5924 68.0807 25.7831 68.6417 26.8055C69.2153 27.8154 69.9945 28.5946 70.9795 29.1432C71.9769 29.6793 73.099 29.9474 74.3458 29.9474C75.1936 29.9474 75.9479 29.8477 76.6087 29.6482C77.282 29.4487 77.949 29.1619 78.6098 28.7879C78.8841 28.6383 79.0213 28.4014 79.0213 28.0772C79.0213 27.8777 78.9527 27.7094 78.8156 27.5723L79.5502 26.8376C79.8884 27.1757 80.0603 27.611 80.0603 28.0772C80.0603 28.3882 79.9934 28.715 79.8176 29.0186C79.6424 29.3212 79.3926 29.5428 79.1156 29.6955C78.3946 30.1031 77.658 30.4207 76.9064 30.6436C76.1297 30.8778 75.272 30.9864 74.3458 30.9864C72.945 30.9864 71.6511 30.6838 70.4876 30.0584L70.4807 30.0547ZM92.6234 18.9133C92.0873 18.5143 91.1646 18.3148 89.8555 18.3148H86.564V23.0651H89.949C91.0213 23.0651 91.8691 22.8532 92.4925 22.4293C93.1283 22.0053 93.4463 21.4069 93.4463 20.6339C93.4463 19.8858 93.172 19.3123 92.6234 18.9133ZM93.5585 29.6295C93.4089 29.4674 93.3341 29.2617 93.3341 29.0123V28.4513C93.3341 27.8279 93.2779 27.2543 93.1657 26.7307C93.0535 26.1946 92.7855 25.7208 92.3616 25.3093C91.9376 24.8854 91.2955 24.6735 90.4353 24.6735H86.564V29.0123C86.564 29.2492 86.4767 29.4487 86.3022 29.6108C86.1401 29.7728 85.9406 29.8539 85.7037 29.8539C85.4668 29.8539 85.2673 29.7728 85.1052 29.6108C84.9431 29.4487 84.8621 29.2492 84.8621 29.0123V17.5668C84.8621 17.3299 84.9431 17.1304 85.1052 16.9683C85.2673 16.7938 85.4668 16.7065 85.7037 16.7065H90.0612C91.7569 16.7065 93.0286 17.0556 93.8764 17.7538C94.7242 18.452 95.1481 19.3684 95.1481 20.503C95.1481 21.251 94.9362 21.9368 94.5123 22.5602C94.3368 22.8207 94.1262 23.0506 93.8804 23.2499C93.5499 23.518 93.1558 23.7307 92.6982 23.888C93.16 24.0099 93.5459 24.2175 93.8559 24.5109C94.1485 24.7879 94.3736 25.1413 94.531 25.5712C94.8676 26.4439 95.0359 27.3042 95.0359 28.152V29.0123C95.0359 29.2492 94.9549 29.4487 94.7928 29.6108C94.6307 29.7728 94.4312 29.8539 94.1943 29.8539C93.9325 29.8539 93.7206 29.7791 93.5585 29.6295ZM94.7152 23.9022C95.052 24.2617 95.3166 24.6983 95.5034 25.2052C95.8793 26.1823 96.0749 27.1664 96.0749 28.152V29.0123C96.0749 29.5145 95.8916 29.9813 95.5275 30.3454C95.1634 30.7095 94.6965 30.8929 94.1943 30.8929C93.7231 30.8929 93.2427 30.752 92.8537 30.3929L92.8232 30.3647L92.795 30.3342C92.4448 29.9548 92.2951 29.4862 92.2951 29.0123V28.4513C92.2951 27.8894 92.2444 27.39 92.1498 26.9484L92.1488 26.9435C92.0824 26.6263 91.9254 26.3339 91.6379 26.0549L91.6324 26.0495L91.6269 26.044C91.4691 25.8862 91.1405 25.7125 90.4353 25.7125H87.603V29.0123C87.603 29.5335 87.3991 30.0031 87.0232 30.359C86.6611 30.7141 86.1996 30.8929 85.7037 30.8929C85.2015 30.8929 84.7347 30.7095 84.3706 30.3454C84.0065 29.9813 83.8231 29.5145 83.8231 29.0123V17.5668C83.8231 17.0709 84.0019 16.6095 84.3569 16.2474C84.7128 15.8714 85.1825 15.6675 85.7037 15.6675H90.0612C91.8733 15.6675 93.4254 16.0364 94.5369 16.9518C95.6334 17.8547 96.1871 19.0698 96.1871 20.503C96.1871 21.4603 95.912 22.3487 95.3727 23.1425C95.1818 23.4257 94.9617 23.6786 94.7152 23.9022ZM87.603 22.0261H89.949C90.8973 22.0261 91.5158 21.837 91.9082 21.5701L91.9161 21.5647C92.2589 21.3362 92.4073 21.0643 92.4073 20.6339C92.4073 20.1786 92.2615 19.9348 92.0123 19.7536L92.0031 19.7469C91.751 19.5593 91.1221 19.3538 89.8555 19.3538H87.603V22.0261ZM104.281 30.359L104.268 30.3454C103.904 29.9813 103.72 29.5145 103.72 29.0123V24.576L99.4232 18.5529L99.4047 18.5227C99.2136 18.2122 99.1009 17.8573 99.1009 17.4733C99.1009 16.9963 99.2603 16.539 99.6009 16.1701L99.603 16.1678C99.9604 15.7829 100.435 15.574 100.963 15.574C101.659 15.574 102.216 15.9237 102.573 16.4634L105.62 20.8945L108.666 16.4634C109.023 15.9237 109.58 15.574 110.276 15.574C110.798 15.574 111.267 15.7779 111.623 16.1539C111.986 16.5238 112.158 16.9978 112.138 17.5008C112.133 17.8743 112.021 18.2197 111.834 18.5227L111.815 18.5537L107.5 24.5771V29.0123C107.5 29.5145 107.317 29.9813 106.953 30.3454C106.589 30.7095 106.122 30.8929 105.62 30.8929C105.119 30.8929 104.661 30.7116 104.295 30.3721L104.281 30.359ZM106.461 24.2433L110.95 17.9782C111.049 17.8161 111.099 17.6478 111.099 17.4733C111.112 17.2364 111.037 17.0369 110.875 16.8748C110.713 16.7002 110.513 16.613 110.276 16.613C109.965 16.613 109.715 16.7564 109.528 17.0431L105.62 22.7285L101.711 17.0431C101.524 16.7564 101.274 16.613 100.963 16.613C100.726 16.613 100.526 16.7002 100.364 16.8748C100.215 17.0369 100.14 17.2364 100.14 17.4733C100.14 17.6478 100.19 17.8161 100.29 17.9782L104.759 24.2433V29.0123C104.759 29.2492 104.84 29.4487 105.002 29.6108C105.177 29.7728 105.383 29.8539 105.62 29.8539C105.856 29.8539 106.056 29.7728 106.218 29.6108C106.38 29.4487 106.461 29.2492 106.461 29.0123V24.2433ZM124.278 19.0442C123.767 18.558 122.875 18.3148 121.604 18.3148H118.368V23.4017H121.604C122.875 23.4017 123.767 23.1586 124.278 22.6724C124.802 22.1861 125.063 21.5814 125.063 20.8583C125.063 20.1352 124.802 19.5305 124.278 19.0442ZM119.407 22.3628H121.604C122.803 22.3628 123.349 22.1219 123.562 21.9196L123.571 21.911C123.88 21.624 124.024 21.2964 124.024 20.8583C124.024 20.4201 123.88 20.0926 123.571 19.8056L123.562 19.7971C123.349 19.5948 122.803 19.3538 121.604 19.3538H119.407V22.3628ZM117.508 30.8929C117.006 30.8929 116.539 30.7095 116.175 30.3454C115.811 29.9813 115.627 29.5145 115.627 29.0123V17.5668C115.627 17.0709 115.806 16.6094 116.161 16.2473C116.517 15.8713 116.987 15.6675 117.508 15.6675H121.772C123.063 15.6675 124.213 15.8835 125.16 16.3882C126.054 16.8652 126.761 17.514 127.201 18.3591C127.604 19.135 127.804 19.9733 127.804 20.8583C127.804 21.7433 127.604 22.5816 127.201 23.3574C126.761 24.2026 126.054 24.8514 125.16 25.3284C124.213 25.8331 123.063 26.0491 121.772 26.0491H119.407V29.0123C119.407 29.5335 119.203 30.0031 118.827 30.359C118.465 30.7141 118.004 30.8929 117.508 30.8929ZM118.106 29.6108C118.281 29.4487 118.368 29.2492 118.368 29.0123V25.0101H121.772C122.956 25.0101 123.923 24.8106 124.671 24.4116C125.419 24.0127 125.955 23.5015 126.279 22.8781C126.603 22.2547 126.765 21.5814 126.765 20.8583C126.765 20.1352 126.603 19.4619 126.279 18.8385C125.955 18.2151 125.419 17.7039 124.671 17.3049C123.923 16.906 122.956 16.7065 121.772 16.7065H117.508C117.271 16.7065 117.071 16.7938 116.909 16.9683C116.747 17.1304 116.666 17.3299 116.666 17.5668V29.0123C116.666 29.2492 116.747 29.4487 116.909 29.6108C117.071 29.7728 117.271 29.8539 117.508 29.8539C117.745 29.8539 117.944 29.7728 118.106 29.6108ZM140.116 19.0442C139.605 18.558 138.713 18.3148 137.442 18.3148H134.206V23.4017H137.442C138.713 23.4017 139.605 23.1586 140.116 22.6724C140.64 22.1861 140.902 21.5814 140.902 20.8583C140.902 20.1352 140.64 19.5305 140.116 19.0442ZM135.245 22.3628H137.442C138.641 22.3628 139.187 22.1219 139.4 21.9196L139.409 21.911C139.718 21.624 139.863 21.2964 139.863 20.8583C139.863 20.4201 139.718 20.0926 139.409 19.8056L139.4 19.7971C139.187 19.5948 138.641 19.3538 137.442 19.3538H135.245V22.3628ZM133.346 30.8929C132.844 30.8929 132.377 30.7095 132.013 30.3454C131.649 29.9813 131.465 29.5145 131.465 29.0123V17.5668C131.465 17.0709 131.644 16.6094 131.999 16.2473C132.355 15.8713 132.825 15.6675 133.346 15.6675H137.61C138.901 15.6675 140.051 15.8835 140.998 16.3882C141.892 16.8652 142.599 17.514 143.039 18.3591C143.442 19.135 143.642 19.9733 143.642 20.8583C143.642 21.7433 143.442 22.5816 143.039 23.3574C142.599 24.2026 141.892 24.8514 140.998 25.3284C140.051 25.8331 138.901 26.0491 137.61 26.0491H135.245V29.0123C135.245 29.5336 135.041 30.0033 134.665 30.3592C134.303 30.7142 133.842 30.8929 133.346 30.8929ZM134.206 29.0123C134.206 29.2492 134.119 29.4487 133.944 29.6108C133.782 29.7728 133.583 29.8539 133.346 29.8539C133.109 29.8539 132.91 29.7728 132.747 29.6108C132.585 29.4487 132.504 29.2492 132.504 29.0123V17.5668C132.504 17.3299 132.585 17.1304 132.747 16.9683C132.91 16.7938 133.109 16.7065 133.346 16.7065H137.61C138.794 16.7065 139.761 16.906 140.509 17.3049C141.257 17.7039 141.793 18.2151 142.117 18.8385C142.441 19.4619 142.603 20.1352 142.603 20.8583C142.603 21.5814 142.441 22.2547 142.117 22.8781C141.793 23.5015 141.257 24.0127 140.509 24.4116C139.761 24.8106 138.794 25.0101 137.61 25.0101H134.206V29.0123ZM146.518 23.2334L146.518 23.2136C146.546 21.7652 146.858 20.4414 147.481 19.2677C148.108 18.0874 149.005 17.1532 150.157 16.4819C151.323 15.8029 152.656 15.4805 154.121 15.4805C155.585 15.4805 156.913 15.8023 158.069 16.4831C159.222 17.155 160.117 18.0952 160.742 19.2843C161.377 20.4567 161.697 21.7747 161.725 23.2135L161.725 23.2334L161.725 23.2534C161.697 24.6942 161.377 26.0177 160.742 27.201C160.116 28.3797 159.22 29.3129 158.069 29.9837C156.913 30.6646 155.585 30.9864 154.121 30.9864C152.656 30.9864 151.323 30.6639 150.157 29.985C149.005 29.3137 148.108 28.3795 147.481 27.1992C146.858 26.0255 146.546 24.7017 146.518 23.2532L146.518 23.2334ZM157.544 29.0871C158.529 28.5136 159.289 27.7219 159.825 26.712C160.374 25.6896 160.661 24.5301 160.686 23.2334C160.661 21.9368 160.374 20.7835 159.825 19.7736C159.289 18.7512 158.529 17.9533 157.544 17.3797C156.571 16.8062 155.431 16.5195 154.121 16.5195C152.812 16.5195 151.665 16.8062 150.68 17.3797C149.695 17.9533 148.935 18.745 148.399 19.7549C147.863 20.7648 147.582 21.9243 147.557 23.2334C147.582 24.5426 147.863 25.7021 148.399 26.712C148.935 27.7219 149.695 28.5136 150.68 29.0871C151.665 29.6606 152.812 29.9474 154.121 29.9474C155.431 29.9474 156.571 29.6606 157.544 29.0871ZM154.121 27.3187C154.958 27.3187 155.631 27.1321 156.18 26.7976C156.748 26.4506 157.175 25.9862 157.475 25.387C157.781 24.7755 157.945 24.065 157.945 23.2334C157.945 22.4018 157.781 21.6914 157.475 21.0798C157.175 20.4807 156.748 20.0163 156.18 19.6693C155.631 19.3347 154.958 19.1481 154.121 19.1481C153.271 19.1481 152.593 19.3352 152.047 19.6674C151.492 20.013 151.069 20.4773 150.768 21.0798C150.462 21.6914 150.298 22.4018 150.298 23.2334C150.298 24.065 150.462 24.7755 150.768 25.387C151.069 25.9895 151.492 26.4538 152.047 26.7994C152.593 27.1316 153.271 27.3187 154.121 27.3187ZM156.721 27.6845C155.985 28.1333 155.119 28.3577 154.121 28.3577C153.111 28.3577 152.239 28.1333 151.503 27.6845C150.78 27.2356 150.225 26.6247 149.839 25.8517C149.452 25.0787 149.259 24.2059 149.259 23.2334C149.259 22.2609 149.452 21.3882 149.839 20.6152C150.225 19.8422 150.78 19.2312 151.503 18.7824C152.239 18.3335 153.111 18.1091 154.121 18.1091C155.119 18.1091 155.985 18.3335 156.721 18.7824C157.457 19.2312 158.018 19.8422 158.404 20.6152C158.791 21.3882 158.984 22.2609 158.984 23.2334C158.984 24.2059 158.791 25.0787 158.404 25.8517C158.018 26.6247 157.457 27.2356 156.721 27.6845Z" fill="#0D0D0D"/>
<path d="M67.8855 44.6647V37.4731H70.3666C70.7227 37.4731 71.0464 37.5467 71.3374 37.694C71.632 37.8378 71.8648 38.0484 72.036 38.3258C72.2073 38.6032 72.2929 38.9354 72.2929 39.3224C72.2929 39.5313 72.2569 39.7333 72.185 39.9285C72.1165 40.1203 72.0206 40.2864 71.8974 40.4268C71.7775 40.5638 71.6405 40.6562 71.4864 40.7042C71.7022 40.759 71.8854 40.8566 72.036 40.997C72.1867 41.134 72.3083 41.2949 72.4008 41.4798C72.4966 41.6648 72.5651 41.8582 72.6062 42.0603C72.6473 42.2623 72.6679 42.4575 72.6679 42.6459C72.6679 43.0431 72.5771 43.3942 72.3956 43.6989C72.2175 44.0003 71.9778 44.2366 71.6765 44.4078C71.3751 44.5791 71.0429 44.6647 70.6799 44.6647H67.8855ZM68.7485 43.9044H70.6029C70.8392 43.9044 71.0532 43.8445 71.245 43.7246C71.4402 43.6013 71.596 43.4335 71.7124 43.2212C71.8289 43.0089 71.8871 42.7692 71.8871 42.5021C71.8871 42.2658 71.8289 42.0432 71.7124 41.8343C71.596 41.622 71.4402 41.4507 71.245 41.3206C71.0532 41.1905 70.8392 41.1254 70.6029 41.1254H68.7485V43.9044ZM68.7485 40.3806H70.2844C70.5995 40.3806 70.8683 40.2881 71.0909 40.1032C71.3169 39.9148 71.4299 39.6528 71.4299 39.3172C71.4299 38.9542 71.3169 38.6837 71.0909 38.5056C70.8683 38.3241 70.5995 38.2334 70.2844 38.2334H68.7485V40.3806Z" fill="#0D0D0D"/>
<path d="M80.5889 44.7982C80.0135 44.7982 79.5135 44.6578 79.0889 44.377C78.6677 44.0962 78.3424 43.7195 78.1129 43.2469C77.8869 42.7709 77.7739 42.2435 77.7739 41.6648V37.4731H78.6369V41.6648C78.6369 42.0757 78.7122 42.4541 78.8629 42.8C79.017 43.1459 79.2379 43.4216 79.5255 43.627C79.8166 43.8325 80.1711 43.9352 80.5889 43.9352C81.0135 43.9352 81.3696 43.8325 81.6573 43.627C81.945 43.4181 82.1624 43.1425 82.3097 42.8C82.4604 42.4541 82.5357 42.0757 82.5357 41.6648V37.4731H83.3987V41.6648C83.3987 42.0997 83.3336 42.5072 83.2035 42.8873C83.0734 43.264 82.885 43.5962 82.6384 43.8839C82.3953 44.1715 82.1008 44.3958 81.7549 44.5568C81.409 44.7177 81.0203 44.7982 80.5889 44.7982Z" fill="#0D0D0D"/>
<path d="M91.2782 44.7982C90.8913 44.7982 90.518 44.7383 90.1584 44.6184C89.7988 44.4951 89.4838 44.3205 89.2132 44.0945C88.9461 43.8685 88.7561 43.5996 88.6431 43.288L89.4495 42.9849C89.518 43.1767 89.6447 43.3445 89.8297 43.4883C90.018 43.6287 90.2389 43.7383 90.4923 43.8171C90.7457 43.8959 91.0077 43.9352 91.2782 43.9352C91.5865 43.9352 91.8724 43.8856 92.1361 43.7863C92.4032 43.6835 92.619 43.5414 92.7833 43.3599C92.9477 43.1784 93.0299 42.9661 93.0299 42.7229C93.0299 42.473 92.9443 42.2692 92.7731 42.1117C92.6018 41.9507 92.3827 41.824 92.1156 41.7315C91.8484 41.6357 91.5693 41.562 91.2782 41.5107C90.7817 41.4285 90.3365 41.312 89.9427 41.1614C89.5523 41.0072 89.2424 40.7932 89.0129 40.5193C88.7869 40.2453 88.6739 39.884 88.6739 39.4354C88.6739 39.0176 88.7937 38.6529 89.0335 38.3412C89.2766 38.0296 89.5968 37.7882 89.994 37.6169C90.3913 37.4457 90.8194 37.3601 91.2782 37.3601C91.6584 37.3601 92.0265 37.42 92.3827 37.5399C92.7422 37.6563 93.059 37.8276 93.333 38.0536C93.6069 38.2796 93.8039 38.5553 93.9237 38.8806L93.107 39.1785C93.0385 38.9833 92.91 38.8155 92.7217 38.6751C92.5368 38.5313 92.3176 38.4217 92.0642 38.3464C91.8142 38.2676 91.5522 38.2282 91.2782 38.2282C90.9735 38.2248 90.6892 38.2745 90.4255 38.3772C90.1618 38.4799 89.9478 38.6221 89.7834 38.8036C89.6191 38.9851 89.5369 39.1957 89.5369 39.4354C89.5369 39.723 89.6122 39.9439 89.7629 40.098C89.917 40.2487 90.1259 40.3617 90.3896 40.4371C90.6533 40.5124 90.9495 40.5792 91.2782 40.6374C91.744 40.7162 92.1755 40.8412 92.5727 41.0124C92.97 41.1802 93.2885 41.4045 93.5282 41.6853C93.7713 41.9661 93.8929 42.312 93.8929 42.7229C93.8929 43.1407 93.7713 43.5055 93.5282 43.8171C93.2885 44.1287 92.97 44.3702 92.5727 44.5414C92.1755 44.7126 91.744 44.7982 91.2782 44.7982Z" fill="#0D0D0D"/>
<path d="M99.3802 44.6647V37.4731H100.243V44.6647H99.3802Z" fill="#0D0D0D"/>
<path d="M105.931 44.6647V37.4731H106.866L110.457 43.1031V37.4731H111.32V44.6647H110.39L106.789 39.0347V44.6647H105.931Z" fill="#0D0D0D"/>
<path d="M116.846 44.6647V37.4731H121.258V38.3361H117.709V40.3806H120.616V41.2435H117.709V43.8017H121.258V44.6647H116.846Z" fill="#0D0D0D"/>
<path d="M129.026 44.7982C128.639 44.7982 128.266 44.7383 127.906 44.6184C127.546 44.4951 127.231 44.3205 126.961 44.0945C126.694 43.8685 126.504 43.5996 126.391 43.288L127.197 42.9849C127.266 43.1767 127.392 43.3445 127.577 43.4883C127.766 43.6287 127.986 43.7383 128.24 43.8171C128.493 43.8959 128.755 43.9352 129.026 43.9352C129.334 43.9352 129.62 43.8856 129.884 43.7863C130.151 43.6835 130.367 43.5414 130.531 43.3599C130.695 43.1784 130.778 42.9661 130.778 42.7229C130.778 42.473 130.692 42.2692 130.521 42.1117C130.349 41.9507 130.13 41.824 129.863 41.7315C129.596 41.6357 129.317 41.562 129.026 41.5107C128.529 41.4285 128.084 41.312 127.69 41.1614C127.3 41.0072 126.99 40.7932 126.761 40.5193C126.534 40.2453 126.421 39.884 126.421 39.4354C126.421 39.0176 126.541 38.6529 126.781 38.3412C127.024 38.0296 127.344 37.7882 127.742 37.6169C128.139 37.4457 128.567 37.3601 129.026 37.3601C129.406 37.3601 129.774 37.42 130.13 37.5399C130.49 37.6563 130.807 37.8276 131.081 38.0536C131.355 38.2796 131.551 38.5553 131.671 38.8806L130.855 39.1785C130.786 38.9833 130.658 38.8155 130.469 38.6751C130.284 38.5313 130.065 38.4217 129.812 38.3464C129.562 38.2676 129.3 38.2282 129.026 38.2282C128.721 38.2248 128.437 38.2745 128.173 38.3772C127.909 38.4799 127.695 38.6221 127.531 38.8036C127.367 38.9851 127.284 39.1957 127.284 39.4354C127.284 39.723 127.36 39.9439 127.51 40.098C127.665 40.2487 127.873 40.3617 128.137 40.4371C128.401 40.5124 128.697 40.5792 129.026 40.6374C129.492 40.7162 129.923 40.8412 130.32 41.0124C130.718 41.1802 131.036 41.4045 131.276 41.6853C131.519 41.9661 131.64 42.312 131.64 42.7229C131.64 43.1407 131.519 43.5055 131.276 43.8171C131.036 44.1287 130.718 44.3702 130.32 44.5414C129.923 44.7126 129.492 44.7982 129.026 44.7982Z" fill="#0D0D0D"/>
<path d="M139.446 44.7982C139.059 44.7982 138.686 44.7383 138.326 44.6184C137.967 44.4951 137.651 44.3205 137.381 44.0945C137.114 43.8685 136.924 43.5996 136.811 43.288L137.617 42.9849C137.686 43.1767 137.812 43.3445 137.997 43.4883C138.186 43.6287 138.407 43.7383 138.66 43.8171C138.913 43.8959 139.175 43.9352 139.446 43.9352C139.754 43.9352 140.04 43.8856 140.304 43.7863C140.571 43.6835 140.787 43.5414 140.951 43.3599C141.115 43.1784 141.198 42.9661 141.198 42.7229C141.198 42.473 141.112 42.2692 140.941 42.1117C140.77 41.9507 140.55 41.824 140.283 41.7315C140.016 41.6357 139.737 41.562 139.446 41.5107C138.949 41.4285 138.504 41.312 138.11 41.1614C137.72 41.0072 137.41 40.7932 137.181 40.5193C136.955 40.2453 136.842 39.884 136.842 39.4354C136.842 39.0176 136.961 38.6529 137.201 38.3412C137.444 38.0296 137.765 37.7882 138.162 37.6169C138.559 37.4457 138.987 37.3601 139.446 37.3601C139.826 37.3601 140.194 37.42 140.55 37.5399C140.91 37.6563 141.227 37.8276 141.501 38.0536C141.775 38.2796 141.972 38.5553 142.091 38.8806L141.275 39.1785C141.206 38.9833 141.078 38.8155 140.889 38.6751C140.704 38.5313 140.485 38.4217 140.232 38.3464C139.982 38.2676 139.72 38.2282 139.446 38.2282C139.141 38.2248 138.857 38.2745 138.593 38.3772C138.33 38.4799 138.116 38.6221 137.951 38.8036C137.787 38.9851 137.705 39.1957 137.705 39.4354C137.705 39.723 137.78 39.9439 137.931 40.098C138.085 40.2487 138.294 40.3617 138.557 40.4371C138.821 40.5124 139.117 40.5792 139.446 40.6374C139.912 40.7162 140.343 40.8412 140.74 41.0124C141.138 41.1802 141.456 41.4045 141.696 41.6853C141.939 41.9661 142.061 42.312 142.061 42.7229C142.061 43.1407 141.939 43.5055 141.696 43.8171C141.456 44.1287 141.138 44.3702 140.74 44.5414C140.343 44.7126 139.912 44.7982 139.446 44.7982Z" fill="#0D0D0D"/>
</svg>
