<svg width="183" height="54" viewBox="0 0 183 54" fill="none" xmlns="http://www.w3.org/2000/svg">
<path fill-rule="evenodd" clip-rule="evenodd" d="M22.5572 41.9879C16.1856 40.2592 11.499 34.4328 11.499 27.5112C11.499 25.2742 11.9885 23.1517 12.8662 21.2448H19.4303C19.6446 21.2448 19.8588 21.0305 19.6446 20.8162C19.2161 20.3875 19.063 19.5386 19.2772 18.8956C19.4343 18.4241 19.8588 18.0299 20.5016 17.8156C21.3586 17.6013 22.0013 17.8156 22.4298 18.2442C22.44 18.2544 22.45 18.2644 22.4597 18.2742C22.7364 18.5511 22.8427 18.6575 22.9227 18.6404C22.9725 18.6298 23.0121 18.5711 23.0764 18.4759C23.0836 18.4651 23.0912 18.4538 23.0992 18.4421C23.3453 18.0804 23.6063 17.9047 24.1224 17.9047H25.2067H27.7678C29.2675 17.9047 30.5713 19.0259 30.5713 20.3875V20.3876C30.5713 20.4947 30.5713 20.5483 30.5981 20.5751C30.6249 20.6019 30.6785 20.6019 30.7856 20.6019H34.6421C37.7212 20.6019 40.2126 23.1738 40.2126 26.3887V27.246C40.2126 30.8896 37.8804 33.8902 34.3227 34.1045H31.5782H29.0716C28.0003 34.1045 26.7148 33.6759 25.8578 33.0329C25.6356 32.8661 25.4293 33.0329 25.4293 33.2472V33.8902C25.4293 36.9815 24.3412 39.8116 22.5572 41.9879ZM27.4977 21.5496C27.4977 22.2194 26.9548 22.7623 26.2851 22.7623C25.6153 22.7623 25.0724 22.2194 25.0724 21.5496C25.0724 20.8799 25.6153 20.3369 26.2851 20.3369C26.9548 20.3369 27.4977 20.8799 27.4977 21.5496Z" fill="url(#paint0_linear_307_1149)"/>
<path fill-rule="evenodd" clip-rule="evenodd" d="M26.4909 44.1058C35.8251 44.1058 43.3933 36.5354 43.3933 27.1951C43.3933 17.8548 35.8251 10.2844 26.4909 10.2844C17.1568 10.2844 9.58849 17.8548 9.58849 27.1951C9.58849 36.5354 17.1568 44.1058 26.4909 44.1058ZM26.4909 46.0044C36.8744 46.0044 45.2919 37.5832 45.2919 27.1951C45.2919 16.807 36.8744 8.3858 26.4909 8.3858C16.1074 8.3858 7.68994 16.807 7.68994 27.1951C7.68994 37.5832 16.1074 46.0044 26.4909 46.0044Z" fill="url(#paint1_linear_307_1149)"/>
<path fill-rule="evenodd" clip-rule="evenodd" d="M26.4904 48.6904C38.3545 48.6904 47.9733 39.0682 47.9733 27.1974C47.9733 15.3266 38.3545 5.70436 26.4904 5.70436C14.6262 5.70436 5.0074 15.3266 5.0074 27.1974C5.0074 39.0682 14.6262 48.6904 26.4904 48.6904ZM26.4904 49.9561C39.0541 49.9561 49.239 39.7667 49.239 27.1974C49.239 14.6281 39.0541 4.43866 26.4904 4.43866C13.9266 4.43866 3.7417 14.6281 3.7417 27.1974C3.7417 39.7667 13.9266 49.9561 26.4904 49.9561Z" fill="url(#paint2_linear_307_1149)"/>
<path fill-rule="evenodd" clip-rule="evenodd" d="M26.4908 1.98243C12.5718 1.98243 1.28767 13.2711 1.28767 27.197C1.28767 27.5465 1.00434 27.8298 0.654822 27.8298C0.305309 27.8298 0.0219727 27.5465 0.0219727 27.197C0.0219727 12.5726 11.8722 0.716736 26.4908 0.716736C26.8403 0.716736 27.1237 1.00007 27.1237 1.34959C27.1237 1.6991 26.8403 1.98243 26.4908 1.98243ZM52.3268 26.5641C52.6763 26.5641 52.9596 26.8475 52.9596 27.197C52.9596 41.8214 41.1094 53.6773 26.4908 53.6773C26.1413 53.6773 25.858 53.3939 25.858 53.0444C25.858 52.6949 26.1413 52.4116 26.4908 52.4116C40.4099 52.4116 51.6939 41.1229 51.6939 27.197C51.6939 26.8475 51.9773 26.5641 52.3268 26.5641ZM1.13762 32.2363C1.47875 32.1601 1.81699 32.375 1.89312 32.7161C3.37871 39.3729 7.49645 45.0387 13.0983 48.5611C13.3942 48.7471 13.4832 49.1378 13.2972 49.4337C13.1111 49.7296 12.7204 49.8186 12.4246 49.6326C6.54378 45.9348 2.2187 39.986 0.657809 32.9918C0.581681 32.6506 0.796502 32.3124 1.13762 32.2363Z" fill="url(#paint3_linear_307_1149)"/>
<path fill-rule="evenodd" clip-rule="evenodd" d="M26.4909 44.1058C35.8251 44.1058 43.3933 36.5354 43.3933 27.1951C43.3933 17.8548 35.8251 10.2844 26.4909 10.2844C17.1568 10.2844 9.58849 17.8548 9.58849 27.1951C9.58849 36.5354 17.1568 44.1058 26.4909 44.1058ZM26.4909 46.0044C36.8744 46.0044 45.2919 37.5832 45.2919 27.1951C45.2919 16.807 36.8744 8.3858 26.4909 8.3858C16.1074 8.3858 7.68994 16.807 7.68994 27.1951C7.68994 37.5832 16.1074 46.0044 26.4909 46.0044Z" fill="url(#paint4_linear_307_1149)"/>
<path fill-rule="evenodd" clip-rule="evenodd" d="M26.4904 48.6904C38.3545 48.6904 47.9733 39.0682 47.9733 27.1974C47.9733 15.3266 38.3545 5.70436 26.4904 5.70436C14.6262 5.70436 5.0074 15.3266 5.0074 27.1974C5.0074 39.0682 14.6262 48.6904 26.4904 48.6904ZM26.4904 49.9561C39.0541 49.9561 49.239 39.7667 49.239 27.1974C49.239 14.6281 39.0541 4.43866 26.4904 4.43866C13.9266 4.43866 3.7417 14.6281 3.7417 27.1974C3.7417 39.7667 13.9266 49.9561 26.4904 49.9561Z" fill="url(#paint5_linear_307_1149)"/>
<path fill-rule="evenodd" clip-rule="evenodd" d="M26.4908 1.98243C12.5718 1.98243 1.28767 13.2711 1.28767 27.197C1.28767 27.5465 1.00434 27.8298 0.654822 27.8298C0.305309 27.8298 0.0219727 27.5465 0.0219727 27.197C0.0219727 12.5726 11.8722 0.716736 26.4908 0.716736C26.8403 0.716736 27.1237 1.00007 27.1237 1.34959C27.1237 1.6991 26.8403 1.98243 26.4908 1.98243ZM52.3268 26.5641C52.6763 26.5641 52.9596 26.8475 52.9596 27.197C52.9596 41.8214 41.1094 53.6773 26.4908 53.6773C26.1413 53.6773 25.858 53.3939 25.858 53.0444C25.858 52.6949 26.1413 52.4116 26.4908 52.4116C40.4099 52.4116 51.6939 41.1229 51.6939 27.197C51.6939 26.8475 51.9773 26.5641 52.3268 26.5641ZM1.13762 32.2363C1.47875 32.1601 1.81699 32.375 1.89312 32.7161C3.37871 39.3729 7.49645 45.0387 13.0983 48.5611C13.3942 48.7471 13.4832 49.1378 13.2972 49.4337C13.1111 49.7296 12.7204 49.8186 12.4246 49.6326C6.54378 45.9348 2.2187 39.986 0.657809 32.9918C0.581681 32.6506 0.796502 32.3124 1.13762 32.2363Z" fill="url(#paint6_linear_307_1149)"/>
<path fill-rule="evenodd" clip-rule="evenodd" d="M26.4908 1.98243C12.5718 1.98243 1.28767 13.2711 1.28767 27.197C1.28767 27.5465 1.00434 27.8298 0.654822 27.8298C0.305309 27.8298 0.0219727 27.5465 0.0219727 27.197C0.0219727 12.5726 11.8722 0.716736 26.4908 0.716736C26.8403 0.716736 27.1237 1.00007 27.1237 1.34959C27.1237 1.6991 26.8403 1.98243 26.4908 1.98243ZM52.3268 26.5641C52.6763 26.5641 52.9596 26.8475 52.9596 27.197C52.9596 41.8214 41.1094 53.6773 26.4908 53.6773C26.1413 53.6773 25.858 53.3939 25.858 53.0444C25.858 52.6949 26.1413 52.4116 26.4908 52.4116C40.4099 52.4116 51.6939 41.1229 51.6939 27.197C51.6939 26.8475 51.9773 26.5641 52.3268 26.5641ZM1.13762 32.2363C1.47875 32.1601 1.81699 32.375 1.89312 32.7161C3.37871 39.3729 7.49645 45.0387 13.0983 48.5611C13.3942 48.7471 13.4832 49.1378 13.2972 49.4337C13.1111 49.7296 12.7204 49.8186 12.4246 49.6326C6.54378 45.9348 2.2187 39.986 0.657809 32.9918C0.581681 32.6506 0.796502 32.3124 1.13762 32.2363Z" fill="url(#paint7_linear_307_1149)"/>
<path d="M74.7293 33.5855C73.4758 33.5855 72.3476 33.316 71.3448 32.777C70.3546 32.2254 69.5712 31.442 68.9945 30.4267C68.4305 29.3988 68.1484 28.2017 68.1484 26.8354C68.1484 25.4691 68.4305 24.2783 68.9945 23.2629C69.5712 22.2351 70.3546 21.4516 71.3448 20.9126C72.3476 20.3611 73.4758 20.0853 74.7293 20.0853C75.5817 20.0853 76.34 20.1856 77.0044 20.3862C77.6813 20.5867 78.3519 20.875 79.0162 21.2511C79.292 21.4015 79.4299 21.6397 79.4299 21.9656C79.4299 22.1536 79.361 22.3228 79.2231 22.4732C79.0852 22.6111 78.9034 22.6801 78.6778 22.6801C78.5524 22.6801 78.4396 22.655 78.3394 22.6049C77.7878 22.3165 77.2488 22.0972 76.7223 21.9468C76.1959 21.7963 75.5879 21.7211 74.8985 21.7211C73.8205 21.7211 72.8992 21.9468 72.1346 22.398C71.3825 22.8367 70.8121 23.4447 70.4235 24.2219C70.0475 24.9865 69.8595 25.8577 69.8595 26.8354C69.8595 27.8131 70.0475 28.6906 70.4235 29.4677C70.8121 30.2324 71.3825 30.8403 72.1346 31.2916C72.8992 31.7303 73.8205 31.9497 74.8985 31.9497C75.5879 31.9497 76.1959 31.8744 76.7223 31.724C77.2488 31.5736 77.7878 31.3542 78.3394 31.0659C78.4396 31.0158 78.5524 30.9907 78.6778 30.9907C78.9034 30.9907 79.0852 31.0597 79.2231 31.1976C79.361 31.3354 79.4299 31.5047 79.4299 31.7052C79.4299 32.0311 79.292 32.2693 79.0162 32.4197C78.3519 32.7958 77.6813 33.0841 77.0044 33.2846C76.34 33.4852 75.5817 33.5855 74.7293 33.5855Z" fill="white"/>
<path d="M86.1482 33.4915C85.9101 33.4915 85.7095 33.41 85.5466 33.247C85.3836 33.0841 85.3021 32.8835 85.3021 32.6453V21.1383C85.3021 20.9001 85.3836 20.6995 85.5466 20.5366C85.7095 20.3611 85.9101 20.2734 86.1482 20.2734H90.5292C92.234 20.2734 93.5125 20.6243 94.3649 21.3263C95.2173 22.0282 95.6435 22.9496 95.6435 24.0902C95.6435 24.8423 95.4304 25.5318 95.0042 26.1585C94.5905 26.7727 93.9826 27.2177 93.1803 27.4935C94.0829 27.7316 94.6971 28.2957 95.023 29.1857C95.3614 30.0631 95.5306 30.9281 95.5306 31.7804V32.6453C95.5306 32.8835 95.4492 33.0841 95.2862 33.247C95.1233 33.41 94.9227 33.4915 94.6845 33.4915C94.4213 33.4915 94.2082 33.4162 94.0453 33.2658C93.8948 33.1029 93.8196 32.896 93.8196 32.6453V32.0813C93.8196 31.4545 93.7632 30.8779 93.6504 30.3514C93.5376 29.8124 93.2681 29.3361 92.8419 28.9225C92.4157 28.4963 91.7702 28.2832 90.9052 28.2832H87.0131V32.6453C87.0131 32.8835 86.9254 33.0841 86.7499 33.247C86.587 33.41 86.3864 33.4915 86.1482 33.4915ZM90.4164 26.6662C91.4944 26.6662 92.3468 26.4531 92.9735 26.0269C93.6128 25.6007 93.9324 24.999 93.9324 24.2219C93.9324 23.4698 93.6567 22.8932 93.1051 22.492C92.5661 22.0909 91.6385 21.8904 90.3224 21.8904H87.0131V26.6662H90.4164Z" fill="white"/>
<path d="M106.171 33.4915C105.933 33.4915 105.726 33.41 105.551 33.247C105.388 33.0841 105.306 32.8835 105.306 32.6453V27.8507L100.813 21.5519C100.712 21.389 100.662 21.2197 100.662 21.0443C100.662 20.8061 100.737 20.6055 100.888 20.4426C101.051 20.2671 101.251 20.1793 101.489 20.1793C101.803 20.1793 102.053 20.3235 102.241 20.6118L106.171 26.3277L110.101 20.6118C110.289 20.3235 110.54 20.1793 110.853 20.1793C111.091 20.1793 111.292 20.2671 111.455 20.4426C111.618 20.6055 111.693 20.8061 111.68 21.0443C111.68 21.2197 111.63 21.389 111.53 21.5519L107.017 27.8507V32.6453C107.017 32.8835 106.936 33.0841 106.773 33.247C106.61 33.41 106.409 33.4915 106.171 33.4915Z" fill="white"/>
<path d="M118.123 33.4915C117.885 33.4915 117.685 33.41 117.522 33.247C117.359 33.0841 117.277 32.8835 117.277 32.6453V21.1383C117.277 20.9001 117.359 20.6995 117.522 20.5366C117.685 20.3611 117.885 20.2734 118.123 20.2734H122.41C123.601 20.2734 124.573 20.4739 125.325 20.875C126.077 21.2761 126.616 21.7901 126.942 22.4168C127.268 23.0436 127.431 23.7205 127.431 24.4475C127.431 25.1745 127.268 25.8514 126.942 26.4782C126.616 27.1049 126.077 27.6188 125.325 28.0199C124.573 28.4211 123.601 28.6216 122.41 28.6216H118.988V32.6453C118.988 32.8835 118.901 33.0841 118.725 33.247C118.562 33.41 118.362 33.4915 118.123 33.4915ZM122.241 27.0046C123.52 27.0046 124.416 26.7602 124.93 26.2713C125.456 25.7825 125.72 25.1745 125.72 24.4475C125.72 23.7205 125.456 23.1125 124.93 22.6237C124.416 22.1348 123.52 21.8904 122.241 21.8904H118.988V27.0046H122.241Z" fill="white"/>
<path d="M134.047 33.4915C133.809 33.4915 133.608 33.41 133.445 33.247C133.282 33.0841 133.201 32.8835 133.201 32.6453V21.1383C133.201 20.9001 133.282 20.6995 133.445 20.5366C133.608 20.3611 133.809 20.2734 134.047 20.2734H138.334C139.524 20.2734 140.496 20.4739 141.248 20.875C142 21.2761 142.539 21.7901 142.865 22.4168C143.191 23.0436 143.354 23.7205 143.354 24.4475C143.354 25.1745 143.191 25.8514 142.865 26.4782C142.539 27.1049 142 27.6188 141.248 28.0199C140.496 28.4211 139.524 28.6216 138.334 28.6216H134.912V32.6453C134.912 32.8835 134.824 33.0841 134.648 33.247C134.485 33.41 134.285 33.4915 134.047 33.4915ZM138.164 27.0046C139.443 27.0046 140.339 26.7602 140.853 26.2713C141.38 25.7825 141.643 25.1745 141.643 24.4475C141.643 23.7205 141.38 23.1125 140.853 22.6237C140.339 22.1348 139.443 21.8904 138.164 21.8904H134.912V27.0046H138.164Z" fill="white"/>
<path d="M154.934 33.5855C153.618 33.5855 152.464 33.2972 151.474 32.7206C150.484 32.1439 149.719 31.348 149.18 30.3326C148.641 29.3173 148.359 28.1516 148.334 26.8354C148.359 25.5192 148.641 24.3535 149.18 23.3381C149.719 22.3228 150.484 21.5268 151.474 20.9502C152.464 20.3736 153.618 20.0853 154.934 20.0853C156.25 20.0853 157.397 20.3736 158.375 20.9502C159.365 21.5268 160.13 22.3291 160.669 23.3569C161.22 24.3723 161.508 25.5318 161.533 26.8354C161.508 28.139 161.22 29.3048 160.669 30.3326C160.13 31.348 159.365 32.1439 158.375 32.7206C157.397 33.2972 156.25 33.5855 154.934 33.5855ZM154.934 31.9873C155.937 31.9873 156.808 31.7616 157.547 31.3104C158.287 30.8591 158.851 30.2449 159.24 29.4677C159.628 28.6906 159.822 27.8131 159.822 26.8354C159.822 25.8577 159.628 24.9802 159.24 24.2031C158.851 23.4259 158.287 22.8117 157.547 22.3604C156.808 21.9092 155.937 21.6835 154.934 21.6835C153.918 21.6835 153.041 21.9092 152.301 22.3604C151.574 22.8117 151.017 23.4259 150.628 24.2031C150.239 24.9802 150.045 25.8577 150.045 26.8354C150.045 27.8131 150.239 28.6906 150.628 29.4677C151.017 30.2449 151.574 30.8591 152.301 31.3104C153.041 31.7616 153.918 31.9873 154.934 31.9873Z" fill="white"/>
<path fill-rule="evenodd" clip-rule="evenodd" d="M70.8436 33.6931L70.8367 33.6893C69.6741 33.0417 68.7545 32.1187 68.0864 30.9422L68.0826 30.9356L68.0789 30.9289C67.4173 29.7233 67.104 28.3479 67.104 26.8351C67.104 25.3227 67.4172 23.9512 68.0816 22.7554L68.0837 22.7516C68.7515 21.561 69.6735 20.6333 70.8436 19.996C72.0145 19.3524 73.3179 19.0405 74.7294 19.0405C75.6607 19.0405 76.5229 19.1497 77.3038 19.3851C78.0595 19.6092 78.8 19.9285 79.5249 20.3383C79.8033 20.4919 80.0545 20.7146 80.2306 21.0189C80.4073 21.3241 80.4746 21.6526 80.4746 21.9653C80.4746 22.4379 80.2913 22.8536 79.9932 23.1788L79.9779 23.1955L79.9618 23.2116C79.5971 23.5763 79.1335 23.7244 78.6779 23.7244C78.4098 23.7244 78.134 23.6697 77.8724 23.5389L77.8639 23.5347L77.8556 23.5303C77.3585 23.2705 76.8853 23.0794 76.4355 22.9509C76.0229 22.833 75.5149 22.7654 74.8987 22.7654C73.9674 22.7654 73.2382 22.9594 72.6656 23.2973L72.661 23.3C72.0849 23.6361 71.657 24.092 71.3595 24.6857C71.0647 25.2864 70.9042 25.9951 70.9042 26.8351C70.9042 27.672 71.0635 28.3877 71.3595 29.0032C71.6554 29.5815 72.0831 30.0401 72.6633 30.3903C73.2367 30.7169 73.9674 30.9048 74.8987 30.9048C75.5149 30.9048 76.0229 30.8373 76.4355 30.7194C76.8853 30.5908 77.3585 30.3998 77.8556 30.1399L77.8639 30.1356L77.8724 30.1314C78.134 30.0005 78.4098 29.9459 78.6779 29.9459C79.1335 29.9459 79.5971 30.0939 79.9618 30.4586L79.2232 31.1973C79.0853 31.0594 78.9036 30.9905 78.6779 30.9905C78.5526 30.9905 78.4398 31.0155 78.3395 31.0657C77.788 31.354 77.249 31.5733 76.7225 31.7238C76.196 31.8742 75.5881 31.9494 74.8987 31.9494C73.8206 31.9494 72.8993 31.73 72.1347 31.2913C71.3826 30.84 70.8123 30.2321 70.4237 29.4675C70.0476 28.6903 69.8596 27.8128 69.8596 26.8351C69.8596 25.8574 70.0476 24.9862 70.4237 24.2216C70.8123 23.4444 71.3826 22.8365 72.1347 22.3977C72.8993 21.9465 73.8206 21.7209 74.8987 21.7209C75.5881 21.7209 76.196 21.7961 76.7225 21.9465C77.249 22.0969 77.788 22.3163 78.3395 22.6046C78.4398 22.6547 78.5526 22.6798 78.6779 22.6798C78.9036 22.6798 79.0853 22.6108 79.2232 22.473C79.3611 22.3225 79.43 22.1533 79.43 21.9653C79.43 21.6394 79.2922 21.4012 79.0164 21.2508C78.352 20.8747 77.6814 20.5864 77.0045 20.3859C76.3402 20.1853 75.5818 20.085 74.7294 20.085C73.4759 20.085 72.3478 20.3608 71.345 20.9124C70.3547 21.4514 69.5713 22.2348 68.9947 23.2627C68.4306 24.278 68.1486 25.4688 68.1486 26.8351C68.1486 28.2014 68.4306 29.3985 68.9947 30.4264C69.5713 31.4417 70.3547 32.2251 71.345 32.7767C72.3478 33.3157 73.4759 33.5852 74.7294 33.5852C75.5818 33.5852 76.3402 33.4849 77.0045 33.2844C77.6814 33.0838 78.352 32.7955 79.0164 32.4194C79.2922 32.269 79.43 32.0309 79.43 31.7049C79.43 31.5044 79.3611 31.3352 79.2232 31.1973L79.9618 30.4586C80.3018 30.7986 80.4746 31.2362 80.4746 31.7049C80.4746 32.0176 80.4073 32.3462 80.2306 32.6514C80.0545 32.9556 79.8033 33.1784 79.5249 33.3319C78.7999 33.7417 78.0594 34.061 77.3038 34.2851C76.5229 34.5206 75.6606 34.6298 74.7294 34.6298C73.3211 34.6298 72.0202 34.3255 70.8504 33.6968L70.8436 33.6931ZM93.1053 22.4918C92.5663 22.0906 91.6387 21.8901 90.3225 21.8901H87.0133V26.6659H90.4165C91.4945 26.6659 92.3469 26.4528 92.9737 26.0266C93.6129 25.6004 93.9326 24.9987 93.9326 24.2216C93.9326 23.4695 93.6568 22.8929 93.1053 22.4918ZM94.0454 33.2655C93.895 33.1026 93.8198 32.8958 93.8198 32.6451V32.081C93.8198 31.4542 93.7634 30.8776 93.6506 30.3512C93.5377 29.8122 93.2682 29.3358 92.842 28.9222C92.4159 28.496 91.7703 28.2829 90.9054 28.2829H87.0133V32.6451C87.0133 32.8832 86.9255 33.0838 86.7501 33.2467C86.5871 33.4097 86.3865 33.4912 86.1484 33.4912C85.9102 33.4912 85.7097 33.4097 85.5467 33.2467C85.3838 33.0838 85.3023 32.8832 85.3023 32.6451V21.138C85.3023 20.8998 85.3838 20.6993 85.5467 20.5363C85.7097 20.3608 85.9102 20.2731 86.1484 20.2731H90.5293C92.2341 20.2731 93.5127 20.624 94.365 21.326C95.2174 22.028 95.6436 22.9493 95.6436 24.09C95.6436 24.8421 95.4305 25.5315 95.0043 26.1582C94.8279 26.4202 94.6162 26.6513 94.3691 26.8517C94.0368 27.1212 93.6406 27.335 93.1805 27.4932C93.6448 27.6157 94.0327 27.8245 94.3444 28.1195C94.6386 28.3979 94.8649 28.7533 95.0231 29.1854C95.3616 30.0629 95.5308 30.9278 95.5308 31.7802V32.6451C95.5308 32.8832 95.4493 33.0838 95.2864 33.2467C95.1234 33.4097 94.9228 33.4912 94.6847 33.4912C94.4215 33.4912 94.2084 33.416 94.0454 33.2655ZM95.2084 27.5075C95.547 27.8689 95.813 28.3079 96.0008 28.8174C96.3787 29.7998 96.5754 30.7893 96.5754 31.7802V32.6451C96.5754 33.1499 96.3911 33.6193 96.025 33.9854C95.6589 34.3514 95.1895 34.5358 94.6847 34.5358C94.211 34.5358 93.7279 34.3941 93.3369 34.0331L93.3062 34.0048L93.2778 33.9741C92.9258 33.5927 92.7752 33.1215 92.7752 32.6451V32.081C92.7752 31.5161 92.7243 31.014 92.6292 30.57L92.6281 30.5652C92.5614 30.2463 92.4035 29.9522 92.1145 29.6718L92.1089 29.6663L92.1034 29.6608C91.9448 29.5022 91.6144 29.3275 90.9054 29.3275H88.0579V32.6451C88.0579 33.169 87.8529 33.6412 87.475 33.999C87.1109 34.356 86.6469 34.5358 86.1484 34.5358C85.6435 34.5358 85.1741 34.3514 84.8081 33.9854C84.442 33.6193 84.2577 33.1499 84.2577 32.6451V21.138C84.2577 20.6395 84.4374 20.1755 84.7944 19.8115C85.1522 19.4335 85.6244 19.2285 86.1484 19.2285H90.5293C92.3511 19.2285 93.9117 19.5994 95.0291 20.5197C96.1315 21.4275 96.6882 22.649 96.6882 24.09C96.6882 25.0525 96.4116 25.9456 95.8694 26.7437C95.6775 27.0284 95.4561 27.2827 95.2084 27.5075ZM88.0579 25.6213H90.4165C91.3699 25.6213 91.9917 25.4311 92.3863 25.1628L92.3942 25.1574C92.7389 24.9277 92.888 24.6543 92.888 24.2216C92.888 23.7638 92.7415 23.5188 92.4909 23.3365L92.4816 23.3298C92.2282 23.1412 91.5959 22.9347 90.3225 22.9347H88.0579V25.6213ZM104.826 33.999L104.812 33.9854C104.446 33.6193 104.262 33.1499 104.262 32.6451V28.1849L99.9417 22.1294L99.923 22.0991C99.7309 21.7869 99.6177 21.4301 99.6177 21.044C99.6177 20.5644 99.7779 20.1047 100.12 19.7338L100.122 19.7315C100.482 19.3445 100.959 19.1345 101.49 19.1345C102.19 19.1345 102.75 19.4861 103.109 20.0287L106.171 24.4836L109.234 20.0287C109.593 19.4861 110.153 19.1345 110.853 19.1345C111.377 19.1345 111.849 19.3395 112.207 19.7175C112.572 20.0894 112.745 20.5659 112.725 21.0717C112.72 21.4471 112.607 21.7944 112.42 22.0991L112.4 22.1302L108.062 28.186V32.6451C108.062 33.1499 107.878 33.6193 107.512 33.9854C107.146 34.3514 106.676 34.5358 106.171 34.5358C105.668 34.5358 105.208 34.3535 104.84 34.0122L104.826 33.999ZM107.017 27.8504L111.53 21.5516C111.63 21.3887 111.68 21.2195 111.68 21.044C111.693 20.8058 111.618 20.6052 111.455 20.4423C111.292 20.2668 111.091 20.1791 110.853 20.1791C110.54 20.1791 110.289 20.3232 110.101 20.6115L106.171 26.3275L102.242 20.6115C102.054 20.3232 101.803 20.1791 101.49 20.1791C101.251 20.1791 101.051 20.2668 100.888 20.4423C100.737 20.6052 100.662 20.8058 100.662 21.044C100.662 21.2195 100.712 21.3887 100.813 21.5516L105.306 27.8504V32.6451C105.306 32.8832 105.388 33.0838 105.551 33.2467C105.726 33.4097 105.933 33.4912 106.171 33.4912C106.41 33.4912 106.61 33.4097 106.773 33.2467C106.936 33.0838 107.017 32.8832 107.017 32.6451V27.8504ZM124.93 22.6234C124.416 22.1345 123.52 21.8901 122.241 21.8901H118.988V27.0043H122.241C123.52 27.0043 124.416 26.7599 124.93 26.271C125.456 25.7822 125.72 25.1742 125.72 24.4472C125.72 23.7202 125.456 23.1122 124.93 22.6234ZM120.033 25.9598H122.241C123.447 25.9598 123.996 25.7176 124.21 25.5142L124.219 25.5055C124.53 25.217 124.675 24.8877 124.675 24.4472C124.675 24.0067 124.53 23.6774 124.219 23.3888L124.21 23.3803C123.996 23.1769 123.447 22.9347 122.241 22.9347H120.033V25.9598ZM118.124 34.5358C117.619 34.5358 117.149 34.3514 116.783 33.9854C116.417 33.6193 116.233 33.1499 116.233 32.6451V21.138C116.233 20.6394 116.413 20.1754 116.77 19.8114C117.127 19.4334 117.6 19.2285 118.124 19.2285H122.41C123.708 19.2285 124.865 19.4456 125.816 19.9531C126.716 20.4326 127.427 21.0849 127.869 21.9346C128.274 22.7147 128.475 23.5575 128.475 24.4472C128.475 25.3369 128.274 26.1798 127.869 26.9598C127.427 27.8095 126.716 28.4618 125.816 28.9414C124.865 29.4488 123.708 29.6659 122.41 29.6659H120.033V32.6451C120.033 33.169 119.828 33.6412 119.45 33.999C119.086 34.356 118.622 34.5358 118.124 34.5358ZM118.725 33.2467C118.901 33.0838 118.988 32.8832 118.988 32.6451V28.6213H122.41C123.601 28.6213 124.573 28.4208 125.325 28.0197C126.077 27.6186 126.616 27.1046 126.942 26.4779C127.268 25.8511 127.431 25.1742 127.431 24.4472C127.431 23.7202 127.268 23.0433 126.942 22.4165C126.616 21.7898 126.077 21.2759 125.325 20.8747C124.573 20.4736 123.601 20.2731 122.41 20.2731H118.124C117.885 20.2731 117.685 20.3608 117.522 20.5363C117.359 20.6993 117.277 20.8998 117.277 21.138V32.6451C117.277 32.8832 117.359 33.0838 117.522 33.2467C117.685 33.4097 117.885 33.4912 118.124 33.4912C118.362 33.4912 118.562 33.4097 118.725 33.2467ZM140.853 22.6234C140.339 22.1345 139.443 21.8901 138.165 21.8901H134.912V27.0043H138.165C139.443 27.0043 140.339 26.7599 140.853 26.271C141.38 25.7822 141.643 25.1742 141.643 24.4472C141.643 23.7202 141.38 23.1122 140.853 22.6234ZM135.956 25.9598H138.165C139.37 25.9598 139.92 25.7176 140.133 25.5142L140.142 25.5055C140.453 25.217 140.598 24.8877 140.598 24.4472C140.598 24.0067 140.453 23.6774 140.143 23.3888L140.133 23.3803C139.92 23.1769 139.37 22.9347 138.165 22.9347H135.956V25.9598ZM134.047 34.5358C133.542 34.5358 133.073 34.3514 132.707 33.9854C132.34 33.6193 132.156 33.1499 132.156 32.6451V21.138C132.156 20.6394 132.336 20.1754 132.693 19.8114C133.051 19.4334 133.523 19.2285 134.047 19.2285H138.334C139.632 19.2285 140.788 19.4456 141.74 19.9531C142.639 20.4326 143.35 21.0849 143.792 21.9346C144.198 22.7147 144.399 23.5575 144.399 24.4472C144.399 25.3369 144.198 26.1798 143.792 26.9598C143.35 27.8095 142.639 28.4618 141.74 28.9414C140.788 29.4488 139.632 29.6659 138.334 29.6659H135.956V32.6451C135.956 33.1691 135.751 33.6414 135.373 33.9992C135.009 34.3561 134.545 34.5358 134.047 34.5358ZM134.912 32.6451C134.912 32.8832 134.824 33.0838 134.649 33.2467C134.486 33.4097 134.285 33.4912 134.047 33.4912C133.809 33.4912 133.608 33.4097 133.445 33.2467C133.282 33.0838 133.201 32.8832 133.201 32.6451V21.138C133.201 20.8998 133.282 20.6993 133.445 20.5363C133.608 20.3608 133.809 20.2731 134.047 20.2731H138.334C139.525 20.2731 140.496 20.4736 141.248 20.8747C142 21.2759 142.539 21.7898 142.865 22.4165C143.191 23.0433 143.354 23.7202 143.354 24.4472C143.354 25.1742 143.191 25.8511 142.865 26.4779C142.539 27.1046 142 27.6186 141.248 28.0197C140.496 28.4208 139.525 28.6213 138.334 28.6213H134.912V32.6451ZM147.29 26.8351L147.29 26.8152C147.318 25.359 147.631 24.0281 148.258 22.8481C148.888 21.6614 149.79 20.7221 150.949 20.0473C152.121 19.3646 153.461 19.0405 154.934 19.0405C156.405 19.0405 157.741 19.364 158.903 20.0485C160.062 20.724 160.962 21.6692 161.59 22.8648C162.229 24.0435 162.55 25.3685 162.578 26.815L162.578 26.8351L162.578 26.8552C162.55 28.3037 162.228 29.6344 161.59 30.824C160.961 32.0091 160.06 32.9472 158.903 33.6217C157.741 34.3062 156.405 34.6298 154.934 34.6298C153.461 34.6298 152.121 34.3056 150.949 33.623C149.79 32.9481 148.888 32.0089 148.258 30.8222C147.631 29.6422 147.318 28.3113 147.29 26.855L147.29 26.8351ZM158.375 32.7203C159.365 32.1437 160.13 31.3477 160.669 30.3324C161.22 29.3045 161.509 28.1388 161.534 26.8351C161.509 25.5315 161.22 24.372 160.669 23.3567C160.13 22.3288 159.365 21.5266 158.375 20.95C157.397 20.3733 156.25 20.085 154.934 20.085C153.618 20.085 152.465 20.3733 151.474 20.95C150.484 21.5266 149.719 22.3225 149.18 23.3379C148.641 24.3532 148.359 25.5189 148.334 26.8351C148.359 28.1513 148.641 29.317 149.18 30.3324C149.719 31.3477 150.484 32.1437 151.474 32.7203C152.465 33.2969 153.618 33.5852 154.934 33.5852C156.25 33.5852 157.397 33.2969 158.375 32.7203ZM154.934 30.9424C155.776 30.9424 156.452 30.7548 157.003 30.4184C157.575 30.0696 158.004 29.6027 158.305 29.0003C158.613 28.3855 158.778 27.6712 158.778 26.8351C158.778 25.9991 158.613 25.2848 158.305 24.6699C158.004 24.0675 157.575 23.6007 157.003 23.2518C156.452 22.9155 155.776 22.7278 154.934 22.7278C154.079 22.7278 153.398 22.9159 152.849 23.2499C152.291 23.5974 151.865 24.0642 151.563 24.6699C151.255 25.2848 151.09 25.9991 151.09 26.8351C151.09 27.6712 151.255 28.3855 151.563 29.0003C151.865 29.606 152.291 30.0728 152.849 30.4203C153.398 30.7543 154.079 30.9424 154.934 30.9424ZM157.548 31.3101C156.808 31.7614 155.937 31.987 154.934 31.987C153.919 31.987 153.041 31.7614 152.302 31.3101C151.575 30.8588 151.017 30.2446 150.628 29.4675C150.24 28.6903 150.045 27.8128 150.045 26.8351C150.045 25.8574 150.24 24.9799 150.628 24.2028C151.017 23.4256 151.575 22.8114 152.302 22.3601C153.041 21.9089 153.919 21.6833 154.934 21.6833C155.937 21.6833 156.808 21.9089 157.548 22.3601C158.287 22.8114 158.851 23.4256 159.24 24.2028C159.628 24.9799 159.823 25.8574 159.823 26.8351C159.823 27.8128 159.628 28.6903 159.24 29.4675C158.851 30.2446 158.287 30.8588 157.548 31.3101Z" fill="white"/>
<defs>
<linearGradient id="paint0_linear_307_1149" x1="11.499" y1="17.7315" x2="40.9002" y2="18.5957" gradientUnits="userSpaceOnUse">
<stop stop-color="#2F69FF"/>
<stop offset="1" stop-color="#00C0A9"/>
</linearGradient>
<linearGradient id="paint1_linear_307_1149" x1="7.68994" y1="8.3858" x2="46.2018" y2="9.34163" gradientUnits="userSpaceOnUse">
<stop stop-color="#2F69FF"/>
<stop offset="1" stop-color="#00C0A9"/>
</linearGradient>
<linearGradient id="paint2_linear_307_1149" x1="3.7417" y1="4.43866" x2="50.34" y2="5.59519" gradientUnits="userSpaceOnUse">
<stop stop-color="#2F69FF"/>
<stop offset="1" stop-color="#00C0A9"/>
</linearGradient>
<linearGradient id="paint3_linear_307_1149" x1="0.0219727" y1="0.716736" x2="54.2407" y2="2.06241" gradientUnits="userSpaceOnUse">
<stop stop-color="#2F69FF"/>
<stop offset="1" stop-color="#00C0A9"/>
</linearGradient>
<linearGradient id="paint4_linear_307_1149" x1="7.68994" y1="8.3858" x2="46.2018" y2="9.34163" gradientUnits="userSpaceOnUse">
<stop stop-color="#2F69FF"/>
<stop offset="1" stop-color="#00C0A9"/>
</linearGradient>
<linearGradient id="paint5_linear_307_1149" x1="3.7417" y1="4.43866" x2="50.34" y2="5.59519" gradientUnits="userSpaceOnUse">
<stop stop-color="#2F69FF"/>
<stop offset="1" stop-color="#00C0A9"/>
</linearGradient>
<linearGradient id="paint6_linear_307_1149" x1="0.0219727" y1="0.716736" x2="54.2407" y2="2.06241" gradientUnits="userSpaceOnUse">
<stop stop-color="#2F69FF"/>
<stop offset="1" stop-color="#00C0A9"/>
</linearGradient>
<linearGradient id="paint7_linear_307_1149" x1="0.0219727" y1="0.716736" x2="54.2407" y2="2.06241" gradientUnits="userSpaceOnUse">
<stop stop-color="#2F69FF"/>
<stop offset="1" stop-color="#00C0A9"/>
</linearGradient>
</defs>
</svg>
