<svg width="2030" height="588" viewBox="0 0 2030 588" fill="none" xmlns="http://www.w3.org/2000/svg">
<path fill-rule="evenodd" clip-rule="evenodd" d="M250.64 457.617C180.003 438.452 128.048 373.858 128.048 297.124C128.048 272.324 133.474 248.793 143.205 227.653H215.972C218.348 227.653 220.723 225.277 218.348 222.9C213.597 218.148 211.9 208.737 214.275 201.609C216.017 196.381 220.723 192.011 227.849 189.635C237.35 187.259 244.476 189.635 249.226 194.387C249.339 194.5 249.45 194.61 249.558 194.719C252.626 197.789 253.804 198.968 254.69 198.779C255.243 198.661 255.681 198.011 256.394 196.955C256.475 196.835 256.559 196.71 256.647 196.58C259.375 192.57 262.269 190.622 267.991 190.622H280.012H308.405C325.032 190.622 339.486 203.053 339.486 218.148V218.149C339.486 219.337 339.486 219.93 339.783 220.227C340.08 220.524 340.674 220.524 341.862 220.524H384.616C418.753 220.524 446.373 249.038 446.373 284.68V294.184C446.373 334.578 420.518 367.844 381.076 370.22H350.649H322.859C310.983 370.22 296.732 365.468 287.23 358.34C284.767 356.491 282.48 358.34 282.48 360.716V367.844C282.48 402.115 270.417 433.49 250.64 457.617ZM305.413 231.032C305.413 238.457 299.393 244.476 291.968 244.476C284.543 244.476 278.524 238.457 278.524 231.032C278.524 223.607 284.543 217.588 291.968 217.588C299.393 217.588 305.413 223.607 305.413 231.032Z" fill="#979797"/>
<path fill-rule="evenodd" clip-rule="evenodd" d="M294.255 481.099C397.737 481.099 481.642 397.171 481.642 293.62C481.642 190.069 397.737 106.14 294.255 106.14C190.773 106.14 106.868 190.069 106.868 293.62C106.868 397.171 190.773 481.099 294.255 481.099ZM294.255 502.147C409.371 502.147 502.69 408.786 502.69 293.62C502.69 178.453 409.371 85.0923 294.255 85.0923C179.139 85.0923 85.8198 178.453 85.8198 293.62C85.8198 408.786 179.139 502.147 294.255 502.147Z" fill="#979797"/>
<path fill-rule="evenodd" clip-rule="evenodd" d="M294.25 531.926C425.782 531.926 532.419 425.25 532.419 293.646C532.419 162.041 425.782 55.3655 294.25 55.3655C162.719 55.3655 56.0814 162.041 56.0814 293.646C56.0814 425.25 162.719 531.926 294.25 531.926ZM294.25 545.958C433.537 545.958 546.451 432.994 546.451 293.646C546.451 154.298 433.537 41.3334 294.25 41.3334C154.964 41.3334 42.0493 154.298 42.0493 293.646C42.0493 432.994 154.964 545.958 294.25 545.958Z" fill="#979797"/>
<path fill-rule="evenodd" clip-rule="evenodd" d="M294.25 14.1014C139.938 14.1014 14.8377 139.252 14.8377 293.64C14.8377 297.515 11.6965 300.656 7.82169 300.656C3.94685 300.656 0.805664 297.515 0.805664 293.64C0.805664 131.508 132.182 0.0693359 294.25 0.0693359C298.125 0.0693359 301.266 3.21052 301.266 7.08536C301.266 10.9602 298.125 14.1014 294.25 14.1014ZM580.678 286.624C584.553 286.624 587.695 289.766 587.695 293.64C587.695 455.772 456.318 587.211 294.25 587.211C290.375 587.211 287.234 584.07 287.234 580.195C287.234 576.321 290.375 573.179 294.25 573.179C448.562 573.179 573.662 448.028 573.662 293.64C573.662 289.766 576.804 286.624 580.678 286.624ZM13.1742 349.508C16.956 348.664 20.706 351.045 21.55 354.827C38.0198 428.628 83.6708 491.441 145.775 530.491C149.055 532.554 150.042 536.885 147.98 540.166C145.917 543.446 141.586 544.433 138.306 542.37C73.1091 501.375 25.1595 435.425 7.8548 357.883C7.01083 354.102 9.39242 350.352 13.1742 349.508Z" fill="#979797"/>
<path fill-rule="evenodd" clip-rule="evenodd" d="M294.255 481.099C397.737 481.099 481.642 397.171 481.642 293.62C481.642 190.069 397.737 106.14 294.255 106.14C190.773 106.14 106.868 190.069 106.868 293.62C106.868 397.171 190.773 481.099 294.255 481.099ZM294.255 502.147C409.371 502.147 502.69 408.786 502.69 293.62C502.69 178.453 409.371 85.0923 294.255 85.0923C179.139 85.0923 85.8198 178.453 85.8198 293.62C85.8198 408.786 179.139 502.147 294.255 502.147Z" fill="#979797"/>
<path fill-rule="evenodd" clip-rule="evenodd" d="M294.25 531.926C425.782 531.926 532.419 425.25 532.419 293.646C532.419 162.041 425.782 55.3655 294.25 55.3655C162.719 55.3655 56.0814 162.041 56.0814 293.646C56.0814 425.25 162.719 531.926 294.25 531.926ZM294.25 545.958C433.537 545.958 546.451 432.994 546.451 293.646C546.451 154.298 433.537 41.3334 294.25 41.3334C154.964 41.3334 42.0493 154.298 42.0493 293.646C42.0493 432.994 154.964 545.958 294.25 545.958Z" fill="#979797"/>
<path fill-rule="evenodd" clip-rule="evenodd" d="M294.25 14.1014C139.938 14.1014 14.8377 139.252 14.8377 293.64C14.8377 297.515 11.6965 300.656 7.82169 300.656C3.94685 300.656 0.805664 297.515 0.805664 293.64C0.805664 131.508 132.182 0.0693359 294.25 0.0693359C298.125 0.0693359 301.266 3.21052 301.266 7.08536C301.266 10.9602 298.125 14.1014 294.25 14.1014ZM580.678 286.624C584.553 286.624 587.695 289.766 587.695 293.64C587.695 455.772 456.318 587.211 294.25 587.211C290.375 587.211 287.234 584.07 287.234 580.195C287.234 576.321 290.375 573.179 294.25 573.179C448.562 573.179 573.662 448.028 573.662 293.64C573.662 289.766 576.804 286.624 580.678 286.624ZM13.1742 349.508C16.956 348.664 20.706 351.045 21.55 354.827C38.0198 428.628 83.6708 491.441 145.775 530.491C149.055 532.554 150.042 536.885 147.98 540.166C145.917 543.446 141.586 544.433 138.306 542.37C73.1091 501.375 25.1595 435.425 7.8548 357.883C7.01083 354.102 9.39242 350.352 13.1742 349.508Z" fill="#979797"/>
<path fill-rule="evenodd" clip-rule="evenodd" d="M294.25 14.1014C139.938 14.1014 14.8377 139.252 14.8377 293.64C14.8377 297.515 11.6965 300.656 7.82169 300.656C3.94685 300.656 0.805664 297.515 0.805664 293.64C0.805664 131.508 132.182 0.0693359 294.25 0.0693359C298.125 0.0693359 301.266 3.21052 301.266 7.08536C301.266 10.9602 298.125 14.1014 294.25 14.1014ZM580.678 286.624C584.553 286.624 587.695 289.766 587.695 293.64C587.695 455.772 456.318 587.211 294.25 587.211C290.375 587.211 287.234 584.07 287.234 580.195C287.234 576.321 290.375 573.179 294.25 573.179C448.562 573.179 573.662 448.028 573.662 293.64C573.662 289.766 576.804 286.624 580.678 286.624ZM13.1742 349.508C16.956 348.664 20.706 351.045 21.55 354.827C38.0198 428.628 83.6708 491.441 145.775 530.491C149.055 532.554 150.042 536.885 147.98 540.166C145.917 543.446 141.586 544.433 138.306 542.37C73.1091 501.375 25.1595 435.425 7.8548 357.883C7.01083 354.102 9.39242 350.352 13.1742 349.508Z" fill="#979797"/>
<path d="M829.469 333.873C815.572 333.873 803.065 330.886 791.947 324.91C780.969 318.795 772.284 310.11 765.891 298.854C759.638 287.458 756.511 274.187 756.511 259.039C756.511 243.892 759.638 230.69 765.891 219.434C772.284 208.038 780.969 199.353 791.947 193.377C803.065 187.263 815.572 184.205 829.469 184.205C838.919 184.205 847.326 185.317 854.691 187.541C862.196 189.764 869.63 192.96 876.996 197.129C880.053 198.797 881.582 201.437 881.582 205.05C881.582 207.135 880.817 209.011 879.289 210.679C877.76 212.207 875.745 212.972 873.244 212.972C871.854 212.972 870.603 212.694 869.491 212.138C863.377 208.942 857.401 206.51 851.565 204.842C845.728 203.174 838.988 202.341 831.345 202.341C819.394 202.341 809.179 204.842 800.702 209.845C792.364 214.709 786.041 221.449 781.733 230.065C777.564 238.542 775.48 248.2 775.48 259.039C775.48 269.879 777.564 279.607 781.733 288.223C786.041 296.7 792.364 303.44 800.702 308.442C809.179 313.306 819.394 315.738 831.345 315.738C838.988 315.738 845.728 314.904 851.565 313.237C857.401 311.569 863.377 309.137 869.491 305.941C870.603 305.385 871.854 305.107 873.244 305.107C875.745 305.107 877.76 305.872 879.289 307.4C880.817 308.929 881.582 310.805 881.582 313.028C881.582 316.641 880.053 319.282 876.996 320.949C869.63 325.118 862.196 328.315 854.691 330.538C847.326 332.762 838.919 333.873 829.469 333.873Z" fill="#979797"/>
<path d="M956.064 332.831C953.424 332.831 951.2 331.928 949.393 330.121C947.587 328.315 946.684 326.091 946.684 323.451V195.879C946.684 193.238 947.587 191.015 949.393 189.208C951.2 187.263 953.424 186.29 956.064 186.29H1004.63C1023.53 186.29 1037.71 190.181 1047.16 197.963C1056.61 205.745 1061.33 215.959 1061.33 228.605C1061.33 236.944 1058.97 244.587 1054.24 251.535C1049.66 258.345 1042.92 263.278 1034.02 266.335C1044.03 268.976 1050.84 275.229 1054.45 285.096C1058.21 294.824 1060.08 304.412 1060.08 313.862V323.451C1060.08 326.091 1059.18 328.315 1057.37 330.121C1055.56 331.928 1053.34 332.831 1050.7 332.831C1047.78 332.831 1045.42 331.997 1043.61 330.33C1041.95 328.523 1041.11 326.23 1041.11 323.451V317.197C1041.11 310.249 1040.49 303.856 1039.24 298.02C1037.99 292.044 1035 286.763 1030.27 282.178C1025.55 277.453 1018.39 275.09 1008.8 275.09H965.653V323.451C965.653 326.091 964.68 328.315 962.734 330.121C960.928 331.928 958.704 332.831 956.064 332.831ZM1003.38 257.163C1015.33 257.163 1024.78 254.801 1031.73 250.076C1038.82 245.351 1042.36 238.681 1042.36 230.065C1042.36 221.727 1039.31 215.334 1033.19 210.887C1027.22 206.44 1016.93 204.217 1002.34 204.217H965.653V257.163H1003.38Z" fill="#979797"/>
<path d="M1178.05 332.831C1175.41 332.831 1173.11 331.928 1171.17 330.121C1169.36 328.315 1168.46 326.091 1168.46 323.451V270.296L1118.64 200.465C1117.53 198.658 1116.97 196.782 1116.97 194.836C1116.97 192.196 1117.8 189.972 1119.47 188.166C1121.28 186.22 1123.5 185.248 1126.14 185.248C1129.62 185.248 1132.4 186.846 1134.48 190.042L1178.05 253.411L1221.61 190.042C1223.7 186.846 1226.48 185.248 1229.95 185.248C1232.59 185.248 1234.82 186.22 1236.62 188.166C1238.43 189.972 1239.26 192.196 1239.12 194.836C1239.12 196.782 1238.57 198.658 1237.46 200.465L1187.43 270.296V323.451C1187.43 326.091 1186.52 328.315 1184.72 330.121C1182.91 331.928 1180.69 332.831 1178.05 332.831Z" fill="#979797"/>
<path d="M1310.55 332.831C1307.91 332.831 1305.69 331.928 1303.88 330.121C1302.08 328.315 1301.17 326.091 1301.17 323.451V195.879C1301.17 193.238 1302.08 191.015 1303.88 189.208C1305.69 187.263 1307.91 186.29 1310.55 186.29H1358.08C1371.28 186.29 1382.05 188.513 1390.39 192.96C1398.73 197.407 1404.7 203.105 1408.32 210.053C1411.93 217.002 1413.74 224.506 1413.74 232.566C1413.74 240.626 1411.93 248.13 1408.32 255.079C1404.7 262.027 1398.73 267.725 1390.39 272.172C1382.05 276.619 1371.28 278.842 1358.08 278.842H1320.14V323.451C1320.14 326.091 1319.17 328.315 1317.22 330.121C1315.42 331.928 1313.19 332.831 1310.55 332.831ZM1356.2 260.915C1370.38 260.915 1380.32 258.206 1386.01 252.786C1391.85 247.366 1394.77 240.626 1394.77 232.566C1394.77 224.506 1391.85 217.766 1386.01 212.346C1380.32 206.927 1370.38 204.217 1356.2 204.217H1320.14V260.915H1356.2Z" fill="#979797"/>
<path d="M1487.09 332.831C1484.45 332.831 1482.22 331.928 1480.42 330.121C1478.61 328.315 1477.71 326.091 1477.71 323.451V195.879C1477.71 193.238 1478.61 191.015 1480.42 189.208C1482.22 187.263 1484.45 186.29 1487.09 186.29H1534.61C1547.81 186.29 1558.58 188.513 1566.92 192.96C1575.26 197.407 1581.24 203.105 1584.85 210.053C1588.46 217.002 1590.27 224.506 1590.27 232.566C1590.27 240.626 1588.46 248.13 1584.85 255.079C1581.24 262.027 1575.26 267.725 1566.92 272.172C1558.58 276.619 1547.81 278.842 1534.61 278.842H1496.67V323.451C1496.67 326.091 1495.7 328.315 1493.76 330.121C1491.95 331.928 1489.73 332.831 1487.09 332.831ZM1532.74 260.915C1546.91 260.915 1556.85 258.206 1562.55 252.786C1568.38 247.366 1571.3 240.626 1571.3 232.566C1571.3 224.506 1568.38 217.766 1562.55 212.346C1556.85 206.927 1546.91 204.217 1532.74 204.217H1496.67V260.915H1532.74Z" fill="#979797"/>
<path d="M1718.65 333.873C1704.06 333.873 1691.27 330.677 1680.29 324.285C1669.32 317.892 1660.84 309.068 1654.86 297.811C1648.89 286.555 1645.76 273.631 1645.48 259.039C1645.76 244.448 1648.89 231.524 1654.86 220.267C1660.84 209.011 1669.32 200.187 1680.29 193.794C1691.27 187.402 1704.06 184.205 1718.65 184.205C1733.24 184.205 1745.96 187.402 1756.8 193.794C1767.77 200.187 1776.25 209.081 1782.23 220.476C1788.34 231.732 1791.54 244.587 1791.82 259.039C1791.54 273.492 1788.34 286.416 1782.23 297.811C1776.25 309.068 1767.77 317.892 1756.8 324.285C1745.96 330.677 1733.24 333.873 1718.65 333.873ZM1718.65 316.155C1729.77 316.155 1739.42 313.654 1747.62 308.651C1755.82 303.648 1762.08 296.839 1766.38 288.223C1770.69 279.607 1772.85 269.879 1772.85 259.039C1772.85 248.2 1770.69 238.472 1766.38 229.856C1762.08 221.24 1755.82 214.431 1747.62 209.428C1739.42 204.425 1729.77 201.924 1718.65 201.924C1707.39 201.924 1697.67 204.425 1689.47 209.428C1681.41 214.431 1675.22 221.24 1670.91 229.856C1666.61 238.472 1664.45 248.2 1664.45 259.039C1664.45 269.879 1666.61 279.607 1670.91 288.223C1675.22 296.839 1681.41 303.648 1689.47 308.651C1697.67 313.654 1707.39 316.155 1718.65 316.155Z" fill="#979797"/>
<path fill-rule="evenodd" clip-rule="evenodd" d="M786.386 335.067L786.31 335.025C773.42 327.846 763.225 317.612 755.818 304.57L755.777 304.496L755.736 304.422C748.401 291.056 744.927 275.808 744.927 259.037C744.927 242.269 748.4 227.064 755.765 213.807L755.788 213.765C763.192 200.566 773.414 190.281 786.386 183.215C799.367 176.081 813.817 172.622 829.466 172.622C839.79 172.622 849.349 173.833 858.007 176.443C866.384 178.927 874.594 182.468 882.631 187.011C885.717 188.713 888.502 191.183 890.455 194.555C892.414 197.939 893.16 201.581 893.16 205.048C893.16 210.288 891.127 214.896 887.823 218.501L887.653 218.687L887.475 218.865C883.431 222.908 878.291 224.549 873.241 224.549C870.268 224.549 867.211 223.944 864.31 222.493L864.216 222.446L864.124 222.398C858.613 219.517 853.367 217.399 848.38 215.974C843.805 214.667 838.174 213.918 831.342 213.918C821.018 213.918 812.933 216.069 806.586 219.815L806.535 219.845C800.148 223.571 795.404 228.626 792.106 235.207C788.837 241.867 787.058 249.724 787.058 259.037C787.058 268.315 788.824 276.25 792.106 283.073C795.386 289.484 800.127 294.568 806.56 298.451C812.917 302.072 821.018 304.155 831.342 304.155C838.174 304.155 843.805 303.406 848.38 302.099C853.367 300.674 858.613 298.556 864.124 295.675L864.216 295.627L864.31 295.58C867.211 294.13 870.268 293.524 873.241 293.524C878.291 293.524 883.431 295.165 887.475 299.209L879.286 307.397C877.757 305.869 875.742 305.104 873.241 305.104C871.851 305.104 870.6 305.382 869.489 305.938C863.374 309.134 857.399 311.566 851.562 313.234C845.725 314.902 838.985 315.735 831.342 315.735C819.391 315.735 809.177 313.304 800.7 308.44C792.362 303.437 786.039 296.697 781.731 288.22C777.562 279.604 775.477 269.876 775.477 259.037C775.477 248.197 777.562 238.539 781.731 230.062C786.039 221.446 792.362 214.706 800.7 209.842C809.177 204.839 819.391 202.338 831.342 202.338C838.985 202.338 845.725 203.172 851.562 204.839C857.399 206.507 863.374 208.939 869.489 212.135C870.6 212.691 871.851 212.969 873.241 212.969C875.742 212.969 877.757 212.205 879.286 210.676C880.815 209.008 881.579 207.132 881.579 205.048C881.579 201.435 880.05 198.794 876.993 197.127C869.628 192.958 862.193 189.761 854.689 187.538C847.323 185.314 838.916 184.203 829.466 184.203C815.569 184.203 803.062 187.26 791.945 193.374C780.966 199.35 772.281 208.036 765.888 219.431C759.635 230.687 756.508 243.889 756.508 259.037C756.508 274.184 759.635 287.456 765.888 298.851C772.281 310.107 780.966 318.793 791.945 324.907C803.062 330.883 815.569 333.871 829.466 333.871C838.916 333.871 847.323 332.759 854.689 330.536C862.193 328.312 869.628 325.116 876.993 320.947C880.05 319.279 881.579 316.639 881.579 313.026C881.579 310.802 880.815 308.926 879.286 307.397L887.475 299.209C891.243 302.977 893.16 307.829 893.16 313.026C893.16 316.492 892.414 320.134 890.455 323.518C888.502 326.891 885.717 329.361 882.63 331.063C874.593 335.606 866.384 339.146 858.006 341.631C849.349 344.241 839.79 345.451 829.466 345.451C813.853 345.451 799.431 342.078 786.462 335.108L786.386 335.067ZM1033.19 210.884C1027.21 206.437 1016.93 204.214 1002.34 204.214H965.65V257.161H1003.38C1015.33 257.161 1024.78 254.798 1031.73 250.073C1038.82 245.348 1042.36 238.678 1042.36 230.062C1042.36 221.724 1039.3 215.331 1033.19 210.884ZM1043.61 330.327C1041.94 328.52 1041.11 326.228 1041.11 323.448V317.195C1041.11 310.246 1040.48 303.854 1039.23 298.017C1037.98 292.041 1034.99 286.761 1030.27 282.175C1025.55 277.45 1018.39 275.087 1008.8 275.087H965.65V323.448C965.65 326.089 964.677 328.312 962.732 330.119C960.925 331.925 958.702 332.828 956.061 332.828C953.421 332.828 951.197 331.925 949.391 330.119C947.584 328.312 946.681 326.089 946.681 323.448V195.876C946.681 193.235 947.584 191.012 949.391 189.205C951.197 187.26 953.421 186.287 956.061 186.287H1004.63C1023.53 186.287 1037.7 190.178 1047.15 197.96C1056.6 205.743 1061.33 215.957 1061.33 228.603C1061.33 236.941 1058.97 244.584 1054.24 251.532C1052.29 254.436 1049.94 256.999 1047.2 259.221C1043.52 262.208 1039.12 264.579 1034.02 266.332C1039.17 267.691 1043.47 270.005 1046.93 273.275C1050.19 276.363 1052.7 280.302 1054.45 285.093C1058.2 294.821 1060.08 304.41 1060.08 313.859V323.448C1060.08 326.089 1059.18 328.312 1057.37 330.119C1055.56 331.925 1053.34 332.828 1050.7 332.828C1047.78 332.828 1045.42 331.995 1043.61 330.327ZM1056.5 266.491C1060.26 270.498 1063.21 275.364 1065.29 281.013C1069.48 291.905 1071.66 302.874 1071.66 313.859V323.448C1071.66 329.045 1069.62 334.249 1065.56 338.307C1061.5 342.366 1056.3 344.409 1050.7 344.409C1045.45 344.409 1040.09 342.838 1035.76 338.837L1035.42 338.522L1035.1 338.182C1031.2 333.954 1029.53 328.73 1029.53 323.448V317.195C1029.53 310.932 1028.96 305.365 1027.91 300.444L1027.9 300.39C1027.16 296.854 1025.41 293.594 1022.2 290.485L1022.14 290.425L1022.08 290.364C1020.32 288.605 1016.66 286.668 1008.8 286.668H977.231V323.448C977.231 329.257 974.959 334.491 970.768 338.458C966.732 342.416 961.588 344.409 956.061 344.409C950.464 344.409 945.26 342.366 941.202 338.307C937.144 334.249 935.1 329.045 935.1 323.448V195.876C935.1 190.349 937.093 185.206 941.05 181.17C945.017 176.979 950.252 174.706 956.061 174.706H1004.63C1024.83 174.706 1042.13 178.819 1054.52 189.021C1066.74 199.085 1072.91 212.628 1072.91 228.603C1072.91 239.274 1069.84 249.175 1063.83 258.023C1061.7 261.179 1059.25 263.998 1056.5 266.491ZM977.231 245.58H1003.38C1013.95 245.58 1020.84 243.471 1025.22 240.497L1025.31 240.437C1029.13 237.89 1030.78 234.86 1030.78 230.062C1030.78 224.987 1029.15 222.27 1026.38 220.25L1026.27 220.175C1023.46 218.085 1016.45 215.795 1002.34 215.795H977.231V245.58ZM1163.13 338.459L1162.98 338.307C1158.92 334.249 1156.87 329.045 1156.87 323.448V274.001L1108.98 206.867L1108.77 206.531C1106.64 203.07 1105.39 199.114 1105.39 194.834C1105.39 189.517 1107.16 184.421 1110.96 180.308L1110.98 180.283C1114.97 175.993 1120.26 173.664 1126.14 173.664C1133.9 173.664 1140.11 177.562 1144.09 183.578L1178.04 232.967L1212 183.578C1215.98 177.562 1222.18 173.664 1229.95 173.664C1235.76 173.664 1240.99 175.937 1244.96 180.128C1249 184.251 1250.92 189.534 1250.7 195.14C1250.64 199.303 1249.39 203.153 1247.32 206.531L1247.1 206.877L1199.01 274.013V323.448C1199.01 329.045 1196.96 334.249 1192.9 338.307C1188.85 342.366 1183.64 344.409 1178.04 344.409C1172.46 344.409 1167.36 342.388 1163.29 338.605L1163.13 338.459ZM1187.42 270.293L1237.45 200.462C1238.56 198.655 1239.12 196.779 1239.12 194.834C1239.26 192.193 1238.43 189.97 1236.62 188.163C1234.81 186.218 1232.59 185.245 1229.95 185.245C1226.47 185.245 1223.69 186.843 1221.61 190.039L1178.04 253.408L1134.48 190.039C1132.39 186.843 1129.61 185.245 1126.14 185.245C1123.5 185.245 1121.28 186.218 1119.47 188.163C1117.8 189.97 1116.97 192.193 1116.97 194.834C1116.97 196.779 1117.52 198.655 1118.64 200.462L1168.46 270.293V323.448C1168.46 326.089 1169.36 328.312 1171.17 330.119C1173.11 331.925 1175.4 332.828 1178.04 332.828C1180.68 332.828 1182.91 331.925 1184.71 330.119C1186.52 328.312 1187.42 326.089 1187.42 323.448V270.293ZM1386.01 212.344C1380.31 206.924 1370.38 204.214 1356.2 204.214H1320.14V260.913H1356.2C1370.38 260.913 1380.31 258.203 1386.01 252.783C1391.85 247.363 1394.77 240.623 1394.77 232.563C1394.77 224.503 1391.85 217.763 1386.01 212.344ZM1331.72 249.332H1356.2C1369.57 249.332 1375.66 246.647 1378.03 244.392L1378.13 244.296C1381.57 241.097 1383.18 237.447 1383.18 232.563C1383.18 227.68 1381.58 224.029 1378.13 220.83L1378.03 220.735C1375.66 218.48 1369.57 215.795 1356.2 215.795H1331.72V249.332ZM1310.55 344.409C1304.95 344.409 1299.75 342.366 1295.69 338.307C1291.63 334.249 1289.59 329.045 1289.59 323.448V195.876C1289.59 190.349 1291.58 185.205 1295.54 181.169C1299.51 176.978 1304.74 174.706 1310.55 174.706H1358.08C1372.47 174.706 1385.29 177.114 1395.84 182.739C1405.81 188.056 1413.69 195.288 1418.59 204.708C1423.09 213.356 1425.32 222.699 1425.32 232.563C1425.32 242.427 1423.09 251.771 1418.59 260.419C1413.69 269.839 1405.81 277.071 1395.84 282.387C1385.29 288.013 1372.47 290.42 1358.08 290.42H1331.72V323.448C1331.72 329.257 1329.45 334.491 1325.26 338.458C1321.22 342.416 1316.08 344.409 1310.55 344.409ZM1317.22 330.119C1319.17 328.312 1320.14 326.089 1320.14 323.448V278.84H1358.08C1371.28 278.84 1382.05 276.616 1390.39 272.169C1398.73 267.722 1404.7 262.024 1408.31 255.076C1411.93 248.128 1413.73 240.623 1413.73 232.563C1413.73 224.503 1411.93 216.999 1408.31 210.051C1404.7 203.102 1398.73 197.404 1390.39 192.958C1382.05 188.511 1371.28 186.287 1358.08 186.287H1310.55C1307.91 186.287 1305.69 187.26 1303.88 189.205C1302.07 191.012 1301.17 193.235 1301.17 195.876V323.448C1301.17 326.089 1302.07 328.312 1303.88 330.119C1305.69 331.925 1307.91 332.828 1310.55 332.828C1313.19 332.828 1315.41 331.925 1317.22 330.119ZM1562.54 212.344C1556.84 206.924 1546.91 204.214 1532.73 204.214H1496.67V260.913H1532.73C1546.91 260.913 1556.84 258.203 1562.54 252.783C1568.38 247.363 1571.3 240.623 1571.3 232.563C1571.3 224.503 1568.38 217.763 1562.54 212.344ZM1508.25 249.332H1532.73C1546.1 249.332 1552.19 246.647 1554.56 244.392L1554.66 244.296C1558.11 241.097 1559.72 237.447 1559.72 232.563C1559.72 227.68 1558.11 224.029 1554.66 220.83L1554.56 220.735C1552.19 218.48 1546.1 215.795 1532.73 215.795H1508.25V249.332ZM1487.08 344.409C1481.49 344.409 1476.28 342.366 1472.22 338.307C1468.17 334.249 1466.12 329.045 1466.12 323.448V195.876C1466.12 190.349 1468.12 185.205 1472.07 181.169C1476.04 176.978 1481.27 174.706 1487.08 174.706H1534.61C1549 174.706 1561.82 177.114 1572.37 182.739C1582.34 188.056 1590.22 195.288 1595.12 204.708C1599.62 213.356 1601.85 222.699 1601.85 232.563C1601.85 242.427 1599.62 251.771 1595.12 260.419C1590.22 269.839 1582.34 277.071 1572.37 282.387C1561.82 288.013 1549 290.42 1534.61 290.42H1508.25V323.448C1508.25 329.258 1505.98 334.493 1501.79 338.461C1497.75 342.417 1492.61 344.409 1487.08 344.409ZM1496.67 323.448C1496.67 326.089 1495.7 328.312 1493.75 330.119C1491.95 331.925 1489.72 332.828 1487.08 332.828C1484.44 332.828 1482.22 331.925 1480.41 330.119C1478.61 328.312 1477.7 326.089 1477.7 323.448V195.876C1477.7 193.235 1478.61 191.012 1480.41 189.205C1482.22 187.26 1484.44 186.287 1487.08 186.287H1534.61C1547.81 186.287 1558.58 188.511 1566.92 192.958C1575.26 197.404 1581.23 203.102 1584.85 210.051C1588.46 216.999 1590.27 224.503 1590.27 232.563C1590.27 240.623 1588.46 248.128 1584.85 255.076C1581.23 262.024 1575.26 267.722 1566.92 272.169C1558.58 276.616 1547.81 278.84 1534.61 278.84H1496.67V323.448ZM1633.9 259.037L1633.9 258.816C1634.21 242.671 1637.69 227.916 1644.63 214.835C1651.62 201.678 1661.61 191.266 1674.46 183.784C1687.46 176.216 1702.32 172.622 1718.65 172.622C1734.96 172.622 1749.76 176.209 1762.65 183.798C1775.5 191.286 1785.47 201.766 1792.44 215.02C1799.52 228.087 1803.08 242.778 1803.39 258.814L1803.4 259.037L1803.39 259.259C1803.08 275.318 1799.51 290.07 1792.44 303.259C1785.46 316.397 1775.48 326.798 1762.65 334.275C1749.76 341.864 1734.96 345.451 1718.65 345.451C1702.32 345.451 1687.46 341.857 1674.46 334.29C1661.61 326.808 1651.62 316.395 1644.63 303.239C1637.69 290.157 1634.21 275.402 1633.9 259.257L1633.9 259.037ZM1756.79 324.282C1767.77 317.889 1776.25 309.065 1782.22 297.809C1788.34 286.413 1791.54 273.489 1791.81 259.037C1791.54 244.584 1788.34 231.73 1782.22 220.473C1776.25 209.078 1767.77 200.184 1756.79 193.791C1745.95 187.399 1733.24 184.203 1718.65 184.203C1704.06 184.203 1691.27 187.399 1680.29 193.791C1669.31 200.184 1660.84 209.008 1654.86 220.265C1648.88 231.521 1645.76 244.445 1645.48 259.037C1645.76 273.628 1648.88 286.552 1654.86 297.809C1660.84 309.065 1669.31 317.889 1680.29 324.282C1691.27 330.674 1704.06 333.871 1718.65 333.871C1733.24 333.871 1745.95 330.674 1756.79 324.282ZM1718.65 304.572C1727.98 304.572 1735.48 302.492 1741.59 298.762C1747.93 294.895 1752.68 289.719 1756.02 283.041C1759.43 276.224 1761.26 268.305 1761.26 259.037C1761.26 249.768 1759.43 241.849 1756.02 235.032C1752.68 228.354 1747.93 223.178 1741.59 219.311C1735.48 215.582 1727.98 213.502 1718.65 213.502C1709.17 213.502 1701.61 215.587 1695.53 219.29C1689.34 223.142 1684.63 228.317 1681.27 235.032C1677.86 241.849 1676.03 249.768 1676.03 259.037C1676.03 268.305 1677.86 276.224 1681.27 283.041C1684.63 289.756 1689.34 294.931 1695.53 298.783C1701.61 302.486 1709.17 304.572 1718.65 304.572ZM1747.62 308.648C1739.42 313.651 1729.76 316.152 1718.65 316.152C1707.39 316.152 1697.66 313.651 1689.46 308.648C1681.4 303.645 1675.22 296.836 1670.91 288.22C1666.6 279.604 1664.45 269.876 1664.45 259.037C1664.45 248.197 1666.6 238.469 1670.91 229.853C1675.22 221.237 1681.4 214.428 1689.46 209.425C1697.66 204.422 1707.39 201.921 1718.65 201.921C1729.76 201.921 1739.42 204.422 1747.62 209.425C1755.82 214.428 1762.07 221.237 1766.38 229.853C1770.69 238.469 1772.84 248.197 1772.84 259.037C1772.84 269.876 1770.69 279.604 1766.38 288.22C1762.07 296.836 1755.82 303.645 1747.62 308.648Z" fill="#979797"/>
<path d="M757.459 497.912V417.755H785.113C789.083 417.755 792.69 418.575 795.935 420.217C799.217 421.82 801.813 424.167 803.721 427.259C805.63 430.351 806.584 434.053 806.584 438.367C806.584 440.695 806.183 442.947 805.382 445.123C804.618 447.26 803.55 449.111 802.175 450.676C800.84 452.203 799.313 453.234 797.595 453.768C800 454.379 802.042 455.467 803.721 457.032C805.401 458.559 806.756 460.353 807.786 462.414C808.855 464.475 809.619 466.632 810.077 468.884C810.535 471.136 810.764 473.311 810.764 475.411C810.764 479.838 809.752 483.751 807.729 487.148C805.744 490.507 803.072 493.141 799.714 495.049C796.355 496.958 792.652 497.912 788.606 497.912H757.459ZM767.078 489.438H787.747C790.381 489.438 792.767 488.77 794.904 487.434C797.08 486.06 798.817 484.19 800.114 481.823C801.412 479.457 802.061 476.785 802.061 473.807C802.061 471.174 801.412 468.693 800.114 466.364C798.817 463.998 797.08 462.089 794.904 460.639C792.767 459.188 790.381 458.463 787.747 458.463H767.078V489.438ZM767.078 450.161H784.197C787.709 450.161 790.705 449.131 793.186 447.069C795.706 444.97 796.965 442.05 796.965 438.309C796.965 434.263 795.706 431.248 793.186 429.263C790.705 427.24 787.709 426.228 784.197 426.228H767.078V450.161Z" fill="#979797"/>
<path d="M899.051 499.401C892.639 499.401 887.066 497.836 882.333 494.706C877.638 491.576 874.012 487.377 871.454 482.109C868.935 476.804 867.675 470.926 867.675 464.475V417.755H877.294V464.475C877.294 469.055 878.134 473.273 879.813 477.128C881.531 480.983 883.993 484.056 887.199 486.346C890.444 488.637 894.394 489.782 899.051 489.782C903.784 489.782 907.754 488.637 910.96 486.346C914.166 484.018 916.59 480.945 918.232 477.128C919.911 473.273 920.751 469.055 920.751 464.475V417.755H930.37V464.475C930.37 469.323 929.644 473.865 928.194 478.102C926.744 482.3 924.644 486.003 921.896 489.209C919.186 492.415 915.903 494.916 912.048 496.71C908.193 498.504 903.861 499.401 899.051 499.401Z" fill="#979797"/>
<path d="M1018.2 499.401C1013.88 499.401 1009.72 498.733 1005.71 497.397C1001.71 496.022 998.194 494.076 995.179 491.557C992.202 489.037 990.083 486.041 988.824 482.568L997.813 479.189C998.576 481.327 999.988 483.197 1002.05 484.8C1004.15 486.365 1006.61 487.587 1009.44 488.465C1012.26 489.343 1015.18 489.782 1018.2 489.782C1021.63 489.782 1024.82 489.228 1027.76 488.121C1030.73 486.976 1033.14 485.392 1034.97 483.369C1036.8 481.346 1037.72 478.98 1037.72 476.269C1037.72 473.483 1036.77 471.212 1034.86 469.456C1032.95 467.662 1030.51 466.25 1027.53 465.219C1024.55 464.15 1021.44 463.33 1018.2 462.757C1012.66 461.841 1007.7 460.543 1003.31 458.864C998.958 457.146 995.503 454.761 992.946 451.707C990.427 448.653 989.167 444.626 989.167 439.626C989.167 434.969 990.503 430.904 993.175 427.431C995.885 423.957 999.454 421.266 1003.88 419.358C1008.31 417.449 1013.08 416.495 1018.2 416.495C1022.43 416.495 1026.54 417.163 1030.51 418.499C1034.51 419.797 1038.04 421.705 1041.1 424.225C1044.15 426.744 1046.35 429.816 1047.68 433.443L1038.58 436.763C1037.81 434.588 1036.38 432.717 1034.28 431.152C1032.22 429.549 1029.78 428.328 1026.96 427.488C1024.17 426.61 1021.25 426.171 1018.2 426.171C1014.8 426.133 1011.63 426.687 1008.69 427.832C1005.75 428.977 1003.37 430.561 1001.53 432.584C999.702 434.607 998.786 436.954 998.786 439.626C998.786 442.832 999.626 445.294 1001.31 447.012C1003.02 448.692 1005.35 449.951 1008.29 450.791C1011.23 451.631 1014.53 452.375 1018.2 453.024C1023.39 453.902 1028.2 455.295 1032.62 457.204C1037.05 459.074 1040.6 461.574 1043.27 464.704C1045.98 467.834 1047.34 471.689 1047.34 476.269C1047.34 480.926 1045.98 484.991 1043.27 488.465C1040.6 491.938 1037.05 494.629 1032.62 496.538C1028.2 498.446 1023.39 499.401 1018.2 499.401Z" fill="#979797"/>
<path d="M1108.5 497.912V417.755H1118.12V497.912H1108.5Z" fill="#979797"/>
<path d="M1181.52 497.912V417.755H1191.94L1231.96 480.506V417.755H1241.58V497.912H1231.21L1191.08 435.16V497.912H1181.52Z" fill="#979797"/>
<path d="M1303.17 497.912V417.755H1352.35V427.374H1312.79V450.161H1345.2V459.78H1312.79V488.293H1352.35V497.912H1303.17Z" fill="#979797"/>
<path d="M1438.93 499.401C1434.62 499.401 1430.46 498.733 1426.45 497.397C1422.44 496.022 1418.93 494.076 1415.91 491.557C1412.94 489.037 1410.82 486.041 1409.56 482.568L1418.55 479.189C1419.31 481.327 1420.72 483.197 1422.79 484.8C1424.88 486.365 1427.35 487.587 1430.17 488.465C1433 489.343 1435.92 489.782 1438.93 489.782C1442.37 489.782 1445.55 489.228 1448.49 488.121C1451.47 486.976 1453.87 485.392 1455.71 483.369C1457.54 481.346 1458.46 478.98 1458.46 476.269C1458.46 473.483 1457.5 471.212 1455.59 469.456C1453.68 467.662 1451.24 466.25 1448.26 465.219C1445.29 464.15 1442.18 463.33 1438.93 462.757C1433.4 461.841 1428.43 460.543 1424.04 458.864C1419.69 457.146 1416.24 454.761 1413.68 451.707C1411.16 448.653 1409.9 444.626 1409.9 439.626C1409.9 434.969 1411.24 430.904 1413.91 427.431C1416.62 423.957 1420.19 421.266 1424.62 419.358C1429.05 417.449 1433.82 416.495 1438.93 416.495C1443.17 416.495 1447.27 417.163 1451.24 418.499C1455.25 419.797 1458.78 421.705 1461.83 424.225C1464.89 426.744 1467.08 429.816 1468.42 433.443L1459.31 436.763C1458.55 434.588 1457.12 432.717 1455.02 431.152C1452.96 429.549 1450.52 428.328 1447.69 427.488C1444.9 426.61 1441.98 426.171 1438.93 426.171C1435.53 426.133 1432.37 426.687 1429.43 427.832C1426.49 428.977 1424.1 430.561 1422.27 432.584C1420.44 434.607 1419.52 436.954 1419.52 439.626C1419.52 442.832 1420.36 445.294 1422.04 447.012C1423.76 448.692 1426.09 449.951 1429.03 450.791C1431.97 451.631 1435.27 452.375 1438.93 453.024C1444.12 453.902 1448.93 455.295 1453.36 457.204C1457.79 459.074 1461.34 461.574 1464.01 464.704C1466.72 467.834 1468.07 471.689 1468.07 476.269C1468.07 480.926 1466.72 484.991 1464.01 488.465C1461.34 491.938 1457.79 494.629 1453.36 496.538C1448.93 498.446 1444.12 499.401 1438.93 499.401Z" fill="#979797"/>
<path d="M1555.07 499.401C1550.76 499.401 1546.6 498.733 1542.59 497.397C1538.58 496.022 1535.07 494.076 1532.06 491.557C1529.08 489.037 1526.96 486.041 1525.7 482.568L1534.69 479.189C1535.45 481.327 1536.87 483.197 1538.93 484.8C1541.03 486.365 1543.49 487.587 1546.31 488.465C1549.14 489.343 1552.06 489.782 1555.07 489.782C1558.51 489.782 1561.7 489.228 1564.64 488.121C1567.61 486.976 1570.02 485.392 1571.85 483.369C1573.68 481.346 1574.6 478.98 1574.6 476.269C1574.6 473.483 1573.64 471.212 1571.74 469.456C1569.83 467.662 1567.38 466.25 1564.41 465.219C1561.43 464.15 1558.32 463.33 1555.07 462.757C1549.54 461.841 1544.58 460.543 1540.19 458.864C1535.84 457.146 1532.38 454.761 1529.82 451.707C1527.31 448.653 1526.05 444.626 1526.05 439.626C1526.05 434.969 1527.38 430.904 1530.05 427.431C1532.76 423.957 1536.33 421.266 1540.76 419.358C1545.19 417.449 1549.96 416.495 1555.07 416.495C1559.31 416.495 1563.41 417.163 1567.38 418.499C1571.39 419.797 1574.92 421.705 1577.98 424.225C1581.03 426.744 1583.22 429.816 1584.56 433.443L1575.46 436.763C1574.69 434.588 1573.26 432.717 1571.16 431.152C1569.1 429.549 1566.66 428.328 1563.83 427.488C1561.05 426.61 1558.13 426.171 1555.07 426.171C1551.68 426.133 1548.51 426.687 1545.57 427.832C1542.63 428.977 1540.24 430.561 1538.41 432.584C1536.58 434.607 1535.66 436.954 1535.66 439.626C1535.66 442.832 1536.5 445.294 1538.18 447.012C1539.9 448.692 1542.23 449.951 1545.17 450.791C1548.11 451.631 1551.41 452.375 1555.07 453.024C1560.27 453.902 1565.07 455.295 1569.5 457.204C1573.93 459.074 1577.48 461.574 1580.15 464.704C1582.86 467.834 1584.22 471.689 1584.22 476.269C1584.22 480.926 1582.86 484.991 1580.15 488.465C1577.48 491.938 1573.93 494.629 1569.5 496.538C1565.07 498.446 1560.27 499.401 1555.07 499.401Z" fill="#979797"/>
</svg>
